<svg width="800" height="36" viewBox="0 0 800 36" fill="none" xmlns="http://www.w3.org/2000/svg">
<path d="M0 12C0 5.37258 5.37258 0 12 0H370.615V24C370.615 30.6274 365.243 36 358.615 36H0V12Z" fill="#4D6569"/>
<path d="M175.348 12.452L176.068 11.364L177.956 12.74C177.7 13.06 177.076 13.252 176.212 13.332L176.228 14.036C176.74 19.012 179.22 22.612 183.764 24.484L183.716 24.66C183.044 24.708 182.628 25.108 182.356 25.828C179.828 24.404 177.14 21.348 176.388 17.476C175.316 21.316 172.724 24.212 169.06 25.812L168.916 25.588C172.452 23.668 175.236 19.556 175.732 14.052L175.716 12.916H172.036L171.94 12.452H175.348ZM187.38 15.156H199.348V15.604H187.508L187.38 15.156ZM198.404 15.156H198.228L198.996 14.34L200.404 15.54C200.276 15.668 200.068 15.764 199.716 15.812C199.556 20.644 199.204 24.052 198.356 24.932C197.86 25.46 197.188 25.684 196.228 25.684C196.228 25.284 196.148 24.916 195.86 24.708C195.556 24.484 194.724 24.26 193.924 24.116L193.94 23.86C194.836 23.94 196.26 24.068 196.676 24.068C197.012 24.068 197.156 24.02 197.332 23.844C197.956 23.284 198.26 19.7 198.404 15.156ZM192.58 11.076L194.58 11.284C194.532 11.508 194.388 11.684 194.02 11.732C193.892 17.46 194.052 22.516 186.788 25.812L186.596 25.54C192.82 21.876 192.564 16.932 192.58 11.076Z" fill="#FEFFF7"/>
<path d="M400 23.3848L405.385 18L400 12.6152" stroke="#4D6569" stroke-width="2"/>
<path d="M429.385 12C429.385 5.37258 434.757 0 441.385 0H800V24C800 30.6274 794.627 36 788 36H429.385V12Z" fill="#D8E3E5"/>
<path d="M598.46 18.692H610.572L611.42 17.684C611.42 17.684 612.364 18.404 612.956 18.9C612.924 19.076 612.764 19.156 612.54 19.156H598.604L598.46 18.692ZM601.052 16.052H608.028L608.828 15.092C608.828 15.092 609.756 15.748 610.316 16.26C610.284 16.436 610.124 16.516 609.9 16.516H601.18L601.052 16.052ZM600.46 13.412H611.772V13.876H600.46V13.412ZM605.004 11.028L606.908 11.204C606.876 11.428 606.732 11.588 606.316 11.652V13.62H605.004V11.028ZM600.268 12.404H600.524C601.132 14.436 600.524 15.796 599.836 16.324C599.388 16.692 598.748 16.708 598.508 16.276C598.316 15.892 598.556 15.492 598.924 15.236C599.612 14.82 600.284 13.668 600.268 12.404ZM611.116 13.412H610.94L611.74 12.612L613.148 13.972C613.02 14.084 612.844 14.116 612.524 14.132C611.996 14.66 611.052 15.412 610.364 15.828L610.188 15.716C610.508 15.108 610.924 14.02 611.116 13.412ZM603.052 18.804H604.492C604.188 21.892 603.644 24.34 598.412 25.796L598.252 25.556C602.412 23.78 602.892 21.444 603.052 18.804ZM606.508 18.836H607.788C607.788 19.012 607.788 19.22 607.788 19.348V23.908C607.788 24.164 607.868 24.244 608.46 24.244H610.06C610.748 24.244 611.276 24.228 611.516 24.212C611.724 24.212 611.804 24.164 611.868 24.004C612.012 23.732 612.22 22.916 612.428 21.988H612.636L612.684 24.084C613.084 24.212 613.18 24.372 613.18 24.628C613.18 25.204 612.636 25.428 609.98 25.428H608.22C606.796 25.428 606.508 25.14 606.508 24.196V18.836ZM622.62 15.7L624.524 15.892C624.476 16.132 624.332 16.26 623.964 16.324V23.972C623.964 24.98 623.708 25.604 621.74 25.78C621.66 25.364 621.548 25.06 621.244 24.836C620.892 24.612 620.38 24.468 619.388 24.34V24.084C619.388 24.084 621.74 24.244 622.172 24.244C622.524 24.244 622.62 24.132 622.62 23.876V15.7ZM627.82 12.388H627.628L628.492 11.572L629.948 12.884C629.804 12.996 629.612 13.044 629.228 13.06C627.756 14.068 625.468 15.492 623.548 16.276H623.244C624.844 15.284 626.892 13.412 627.82 12.388ZM617.004 12.388H628.636V12.868H617.148L617.004 12.388Z" fill="#00282E"/>
</svg>
