<svg width="327" height="36" viewBox="0 0 327 36" fill="none" xmlns="http://www.w3.org/2000/svg">
<path d="M0 12C0 5.37258 5.37258 0 12 0H150.115V24C150.115 30.6274 144.743 36 138.115 36H0V12Z" fill="#4D6569"/>
<path d="M65.0976 12.452L65.8176 11.364L67.7056 12.74C67.4496 13.06 66.8256 13.252 65.9616 13.332L65.9776 14.036C66.4896 19.012 68.9696 22.612 73.5136 24.484L73.4656 24.66C72.7936 24.708 72.3776 25.108 72.1056 25.828C69.5776 24.404 66.8896 21.348 66.1376 17.476C65.0656 21.316 62.4736 24.212 58.8096 25.812L58.6656 25.588C62.2016 23.668 64.9856 19.556 65.4816 14.052L65.4656 12.916H61.7856L61.6896 12.452H65.0976ZM77.1296 15.156H89.0976V15.604H77.2576L77.1296 15.156ZM88.1536 15.156H87.9776L88.7456 14.34L90.1536 15.54C90.0256 15.668 89.8176 15.764 89.4656 15.812C89.3056 20.644 88.9536 24.052 88.1056 24.932C87.6096 25.46 86.9376 25.684 85.9776 25.684C85.9776 25.284 85.8976 24.916 85.6096 24.708C85.3056 24.484 84.4736 24.26 83.6736 24.116L83.6896 23.86C84.5856 23.94 86.0096 24.068 86.4256 24.068C86.7616 24.068 86.9056 24.02 87.0816 23.844C87.7056 23.284 88.0096 19.7 88.1536 15.156ZM82.3296 11.076L84.3296 11.284C84.2816 11.508 84.1376 11.684 83.7696 11.732C83.6416 17.46 83.8016 22.516 76.5376 25.812L76.3456 25.54C82.5696 21.876 82.3136 16.932 82.3296 11.076Z" fill="#FEFFF7"/>
<path d="M163.5 23.3848L168.885 18L163.5 12.6152" stroke="#4D6569" stroke-width="2"/>
<path d="M176.885 12C176.885 5.37258 182.257 0 188.885 0H327V24C327 30.6274 321.627 36 315 36H176.885V12Z" fill="#D8E3E5"/>
<path d="M235.71 18.692H247.822L248.67 17.684C248.67 17.684 249.614 18.404 250.206 18.9C250.174 19.076 250.014 19.156 249.79 19.156H235.854L235.71 18.692ZM238.302 16.052H245.278L246.078 15.092C246.078 15.092 247.006 15.748 247.566 16.26C247.534 16.436 247.374 16.516 247.15 16.516H238.43L238.302 16.052ZM237.71 13.412H249.022V13.876H237.71V13.412ZM242.254 11.028L244.158 11.204C244.126 11.428 243.982 11.588 243.566 11.652V13.62H242.254V11.028ZM237.518 12.404H237.774C238.382 14.436 237.774 15.796 237.086 16.324C236.638 16.692 235.998 16.708 235.758 16.276C235.566 15.892 235.806 15.492 236.174 15.236C236.862 14.82 237.534 13.668 237.518 12.404ZM248.366 13.412H248.19L248.99 12.612L250.398 13.972C250.27 14.084 250.094 14.116 249.774 14.132C249.246 14.66 248.302 15.412 247.614 15.828L247.438 15.716C247.758 15.108 248.174 14.02 248.366 13.412ZM240.302 18.804H241.742C241.438 21.892 240.894 24.34 235.662 25.796L235.502 25.556C239.662 23.78 240.142 21.444 240.302 18.804ZM243.758 18.836H245.038C245.038 19.012 245.038 19.22 245.038 19.348V23.908C245.038 24.164 245.118 24.244 245.71 24.244H247.31C247.998 24.244 248.526 24.228 248.766 24.212C248.974 24.212 249.054 24.164 249.118 24.004C249.262 23.732 249.47 22.916 249.678 21.988H249.886L249.934 24.084C250.334 24.212 250.43 24.372 250.43 24.628C250.43 25.204 249.886 25.428 247.23 25.428H245.47C244.046 25.428 243.758 25.14 243.758 24.196V18.836ZM259.87 15.7L261.774 15.892C261.726 16.132 261.582 16.26 261.214 16.324V23.972C261.214 24.98 260.958 25.604 258.99 25.78C258.91 25.364 258.798 25.06 258.494 24.836C258.142 24.612 257.63 24.468 256.638 24.34V24.084C256.638 24.084 258.99 24.244 259.422 24.244C259.774 24.244 259.87 24.132 259.87 23.876V15.7ZM265.07 12.388H264.878L265.742 11.572L267.198 12.884C267.054 12.996 266.862 13.044 266.478 13.06C265.006 14.068 262.718 15.492 260.798 16.276H260.494C262.094 15.284 264.142 13.412 265.07 12.388ZM254.254 12.388H265.886V12.868H254.398L254.254 12.388Z" fill="#00282E"/>
</svg>
