<svg width="71" height="76" viewBox="0 0 71 76" fill="none" xmlns="http://www.w3.org/2000/svg">
<path d="M10.112 17.6C10.112 18.592 10.304 19.472 10.688 20.24C11.088 20.992 11.64 21.584 12.344 22.016C13.064 22.448 13.904 22.664 14.864 22.664C15.808 22.664 16.632 22.448 17.336 22.016C18.056 21.584 18.608 20.992 18.992 20.24C19.392 19.472 19.592 18.592 19.592 17.6C19.592 16.608 19.4 15.736 19.016 14.984C18.632 14.216 18.088 13.616 17.384 13.184C16.68 12.752 15.84 12.536 14.864 12.536C13.904 12.536 13.064 12.752 12.344 13.184C11.64 13.616 11.088 14.216 10.688 14.984C10.304 15.736 10.112 16.608 10.112 17.6ZM5.816 17.6C5.816 16.304 6.04 15.12 6.488 14.048C6.952 12.976 7.592 12.048 8.408 11.264C9.224 10.48 10.184 9.88 11.288 9.464C12.392 9.032 13.584 8.816 14.864 8.816C16.16 8.816 17.352 9.032 18.44 9.464C19.544 9.88 20.504 10.48 21.32 11.264C22.136 12.048 22.768 12.976 23.216 14.048C23.664 15.12 23.888 16.304 23.888 17.6C23.888 18.896 23.664 20.088 23.216 21.176C22.784 22.264 22.16 23.208 21.344 24.008C20.544 24.808 19.592 25.432 18.488 25.88C17.384 26.312 16.176 26.528 14.864 26.528C13.536 26.528 12.32 26.312 11.216 25.88C10.112 25.432 9.152 24.808 8.336 24.008C7.536 23.208 6.912 22.264 6.464 21.176C6.032 20.088 5.816 18.896 5.816 17.6ZM31.5749 26V22.664H40.0469V26H31.5749ZM31.5749 12.536V9.2H40.0469V12.536H31.5749ZM31.5749 18.8V15.536H39.5669V18.8H31.5749ZM28.8869 9.2H32.7749V26H28.8869V9.2ZM50.0679 17.432L49.0599 26H44.7879L47.4999 8.36L54.6519 18.608L61.8279 8.36L64.5399 26H60.2679L59.2599 17.432L54.6519 24.44L50.0679 17.432Z" fill="#00282E"/>
<path d="M38.8391 68.5413L25.6087 68.5413L25.6087 66.3674L38.8391 66.3674L33.0087 60.537L34.5457 59L43 67.4543L34.5457 75.9087L33.0087 74.3717L38.8391 68.5413Z" fill="#00282E"/>
<path d="M2.2423 41.5C2.2423 41.9133 2.3223 42.28 2.4823 42.6C2.64897 42.9133 2.87897 43.16 3.1723 43.34C3.4723 43.52 3.8223 43.61 4.2223 43.61C4.61564 43.61 4.95897 43.52 5.2523 43.34C5.5523 43.16 5.7823 42.9133 5.9423 42.6C6.10897 42.28 6.19231 41.9133 6.19231 41.5C6.19231 41.0867 6.11231 40.7233 5.95231 40.41C5.7923 40.09 5.56564 39.84 5.27231 39.66C4.97897 39.48 4.62897 39.39 4.2223 39.39C3.8223 39.39 3.4723 39.48 3.1723 39.66C2.87897 39.84 2.64897 40.09 2.4823 40.41C2.3223 40.7233 2.2423 41.0867 2.2423 41.5ZM0.452305 41.5C0.452305 40.96 0.545638 40.4667 0.732305 40.02C0.925638 39.5733 1.1923 39.1867 1.5323 38.86C1.8723 38.5333 2.2723 38.2833 2.7323 38.11C3.1923 37.93 3.68897 37.84 4.2223 37.84C4.7623 37.84 5.25897 37.93 5.7123 38.11C6.1723 38.2833 6.5723 38.5333 6.9123 38.86C7.2523 39.1867 7.51564 39.5733 7.70231 40.02C7.88897 40.4667 7.98231 40.96 7.98231 41.5C7.98231 42.04 7.88897 42.5367 7.70231 42.99C7.52231 43.4433 7.26231 43.8367 6.92231 44.17C6.58897 44.5033 6.19231 44.7633 5.73231 44.95C5.27231 45.13 4.76897 45.22 4.2223 45.22C3.66897 45.22 3.1623 45.13 2.7023 44.95C2.2423 44.7633 1.8423 44.5033 1.5023 44.17C1.16897 43.8367 0.908971 43.4433 0.722305 42.99C0.542305 42.5367 0.452305 42.04 0.452305 41.5ZM11.4052 40.4V45H9.9152V40.4H11.4052ZM12.7352 41.96C12.6552 41.88 12.5685 41.8167 12.4752 41.77C12.3885 41.7233 12.2785 41.7 12.1452 41.7C11.9985 41.7 11.8685 41.74 11.7552 41.82C11.6419 41.9 11.5552 42.0167 11.4952 42.17C11.4352 42.3233 11.4052 42.51 11.4052 42.73L11.0452 42.2C11.0452 41.8333 11.1152 41.5067 11.2552 41.22C11.4019 40.9333 11.5919 40.7067 11.8252 40.54C12.0585 40.3733 12.3019 40.29 12.5552 40.29C12.7219 40.29 12.8819 40.3233 13.0352 40.39C13.1885 40.4567 13.3052 40.55 13.3852 40.67L12.7352 41.96ZM14.9365 38.67C14.9365 38.43 15.0232 38.2367 15.1965 38.09C15.3699 37.9367 15.5765 37.86 15.8165 37.86C16.0632 37.86 16.2699 37.9367 16.4365 38.09C16.6099 38.2367 16.6965 38.43 16.6965 38.67C16.6965 38.91 16.6099 39.1067 16.4365 39.26C16.2699 39.4133 16.0632 39.49 15.8165 39.49C15.5765 39.49 15.3699 39.4133 15.1965 39.26C15.0232 39.1067 14.9365 38.91 14.9365 38.67ZM15.0865 40.4H16.5465V45H15.0865V40.4ZM18.6202 45.33H20.0802C20.1002 45.5167 20.1535 45.6733 20.2402 45.8C20.3335 45.9267 20.4569 46.02 20.6102 46.08C20.7635 46.1467 20.9369 46.18 21.1302 46.18C21.3435 46.18 21.5369 46.13 21.7102 46.03C21.8835 45.9367 22.0202 45.7933 22.1202 45.6C22.2269 45.4133 22.2802 45.18 22.2802 44.9V40.4H23.7302V44.9C23.7302 45.4867 23.6135 45.9633 23.3802 46.33C23.1535 46.6967 22.8502 46.9633 22.4702 47.13C22.0902 47.3033 21.6635 47.39 21.1902 47.39C20.6235 47.39 20.1535 47.3033 19.7802 47.13C19.4135 46.9567 19.1369 46.7133 18.9502 46.4C18.7635 46.0933 18.6535 45.7367 18.6202 45.33ZM18.5202 42.64C18.5202 42.12 18.6235 41.6867 18.8302 41.34C19.0435 40.9933 19.3169 40.7333 19.6502 40.56C19.9835 40.3867 20.3369 40.3 20.7102 40.3C21.0969 40.3 21.4369 40.3933 21.7302 40.58C22.0302 40.76 22.2669 41.0233 22.4402 41.37C22.6135 41.7167 22.7002 42.14 22.7002 42.64C22.7002 43.1333 22.6135 43.5567 22.4402 43.91C22.2669 44.2567 22.0302 44.5233 21.7302 44.71C21.4369 44.89 21.0969 44.98 20.7102 44.98C20.3369 44.98 19.9835 44.8933 19.6502 44.72C19.3169 44.54 19.0435 44.2767 18.8302 43.93C18.6235 43.5833 18.5202 43.1533 18.5202 42.64ZM20.1102 42.64C20.1102 42.8733 20.1602 43.0767 20.2602 43.25C20.3602 43.4167 20.4935 43.5433 20.6602 43.63C20.8269 43.7167 21.0102 43.76 21.2102 43.76C21.3835 43.76 21.5502 43.72 21.7102 43.64C21.8769 43.5533 22.0135 43.4267 22.1202 43.26C22.2269 43.0933 22.2802 42.8867 22.2802 42.64C22.2802 42.4533 22.2469 42.29 22.1802 42.15C22.1202 42.01 22.0369 41.8933 21.9302 41.8C21.8302 41.7067 21.7169 41.6367 21.5902 41.59C21.4635 41.5433 21.3369 41.52 21.2102 41.52C21.0102 41.52 20.8269 41.5633 20.6602 41.65C20.4935 41.7367 20.3602 41.8633 20.2602 42.03C20.1602 42.1967 20.1102 42.4 20.1102 42.64ZM25.8037 38.67C25.8037 38.43 25.8904 38.2367 26.0637 38.09C26.237 37.9367 26.4437 37.86 26.6837 37.86C26.9304 37.86 27.137 37.9367 27.3037 38.09C27.477 38.2367 27.5637 38.43 27.5637 38.67C27.5637 38.91 27.477 39.1067 27.3037 39.26C27.137 39.4133 26.9304 39.49 26.6837 39.49C26.4437 39.49 26.237 39.4133 26.0637 39.26C25.8904 39.1067 25.8037 38.91 25.8037 38.67ZM25.9537 40.4H27.4137V45H25.9537V40.4ZM32.6474 42.2C32.6474 41.9267 32.594 41.7167 32.4874 41.57C32.3874 41.4233 32.2174 41.35 31.9774 41.35C31.8174 41.35 31.6774 41.3833 31.5574 41.45C31.4374 41.5167 31.344 41.6133 31.2774 41.74C31.2107 41.8667 31.1774 42.02 31.1774 42.2V45H29.6574V40.4H31.1774V41.09C31.3107 40.8367 31.4907 40.64 31.7174 40.5C31.9507 40.36 32.2374 40.29 32.5774 40.29C33.1507 40.29 33.5674 40.4433 33.8274 40.75C34.0874 41.0567 34.2174 41.4867 34.2174 42.04V45H32.6474V42.2ZM37.5793 43.56C37.5793 43.68 37.6093 43.7833 37.6693 43.87C37.7293 43.95 37.8093 44.0133 37.9093 44.06C38.0093 44.1 38.1193 44.12 38.2393 44.12C38.4127 44.12 38.5727 44.0833 38.7193 44.01C38.866 43.9367 38.986 43.8267 39.0793 43.68C39.1727 43.5333 39.2193 43.3533 39.2193 43.14L39.3793 43.74C39.3793 44.0333 39.2993 44.2833 39.1393 44.49C38.9793 44.69 38.7727 44.8433 38.5193 44.95C38.266 45.05 37.9927 45.1 37.6993 45.1C37.406 45.1 37.1327 45.0467 36.8793 44.94C36.6327 44.8267 36.4327 44.66 36.2793 44.44C36.1327 44.22 36.0593 43.9533 36.0593 43.64C36.0593 43.2 36.216 42.8533 36.5293 42.6C36.8427 42.34 37.286 42.21 37.8593 42.21C38.1393 42.21 38.3893 42.2367 38.6093 42.29C38.836 42.3433 39.0293 42.41 39.1893 42.49C39.3493 42.57 39.4693 42.6533 39.5493 42.74V43.41C39.3893 43.29 39.2027 43.2 38.9893 43.14C38.7827 43.0733 38.5627 43.04 38.3293 43.04C38.1493 43.04 38.006 43.06 37.8993 43.1C37.7927 43.14 37.7127 43.2 37.6593 43.28C37.606 43.3533 37.5793 43.4467 37.5793 43.56ZM36.9093 41.81L36.3993 40.8C36.6593 40.6733 36.9727 40.5533 37.3393 40.44C37.706 40.3267 38.106 40.27 38.5393 40.27C38.946 40.27 39.3093 40.33 39.6293 40.45C39.9493 40.5633 40.2027 40.73 40.3893 40.95C40.576 41.17 40.6693 41.44 40.6693 41.76V45H39.2193V42.1C39.2193 41.9867 39.1993 41.89 39.1593 41.81C39.126 41.7233 39.0727 41.65 38.9993 41.59C38.926 41.53 38.8327 41.4867 38.7193 41.46C38.6127 41.4333 38.4893 41.42 38.3493 41.42C38.1427 41.42 37.9393 41.4433 37.7393 41.49C37.546 41.5367 37.376 41.5933 37.2293 41.66C37.0827 41.72 36.976 41.77 36.9093 41.81ZM42.8 37.2H44.32V45H42.8V37.2ZM49.9433 39.51V38H55.4833V39.51H53.5533V45H51.8633V39.51H49.9433ZM58.3688 45V43.61H61.8988V45H58.3688ZM58.3688 39.39V38H61.8988V39.39H58.3688ZM58.3688 42V40.64H61.6988V42H58.3688ZM57.2488 38H58.8688V45H57.2488V38ZM65.3742 43.65L65.4942 42.36H68.9642L69.0742 43.65H65.3742ZM67.2042 40.57L66.2242 42.83L66.3042 43.2L65.4342 45H63.5242L67.2042 37.56L70.8942 45H68.9742L68.1342 43.27L68.1942 42.84L67.2042 40.57Z" fill="#00282E"/>
</svg>
