<svg fill="none" height="44" viewBox="0 0 57 44" width="57" xmlns="http://www.w3.org/2000/svg" xmlns:xlink="http://www.w3.org/1999/xlink"><clipPath id="a"><path d="m0 0h56.6888v44h-56.6888z"/></clipPath><g clip-path="url(#a)" fill="#d5d933"><path d="m41.8191 16.0558c2.9444-3.3763 3.7934-7.53683 2.2676-11.12795-1.2212-2.87939-3.8359-4.762361-6.8226-4.914696-4.6725-.232249-7.432 2.789486-8.6807 4.652476-1.2486-1.86299-4.0081-4.88972-8.6806-4.652476-2.9868.152335-5.6015 2.035306-6.8251 4.914696-1.5234 3.59112-.6768 7.74915 2.2675 11.12795 2.1577 2.4749 4.8997 3.6411 7.3221 4.6725 2.325.9889 4.3328 1.8455 5.1195 3.5911.005.01.0125.0175.0175.025.0874.1748.2297.3246.4195.412.1174.0525.2398.0775.3596.0775.3322 0 .6518-.1923.7967-.5145.7866-1.7456 2.7945-2.5997 5.1194-3.5911 2.4199-1.0314 5.1645-2.1976 7.3221-4.6725zm-13.2357 6.2733c-1.2461-1.5084-3.1915-2.34-5.2318-3.2091-2.3575-1.0039-4.7948-2.0428-6.6878-4.2129-2.4948-2.8619-3.234-6.33569-1.9779-9.29499.974-2.29253 2.9568-3.73347 5.3043-3.85334 5.3617-.26971 7.6917 4.79233 7.7916 5.01459.015.03746.0325.06742.0499.0924.0899.14983.2223.2722.3921.34962.4395.19479.9565 0 1.1538-.44202.0974-.21477 2.4423-5.2843 7.7941-5.01459 2.3474.11987 4.3303 1.55832 5.3042 3.85334 1.2562 2.9593.517 6.43559-1.9778 9.29499-1.893 2.1701-4.3304 3.209-6.6878 4.2129-2.0403.8691-3.9857 1.7007-5.2319 3.2091z"/><path d="m54.3145 8.44378c-.6543-.1848-1.3511-.08991-1.9604.26721-.7767.45451-1.351 1.28361-1.5783 2.27251l-2.3 9.8194c-.8766-.1049-1.8805.2173-2.8694.964l-7.392 5.8886c-.6269.4995-1.0814 1.1688-1.3161 1.9354l-3.6661 12.0196c-.1723.5669-.0699 1.1662.2822 1.6432.3522.477.8941.7492 1.4884.7492h6.6254c.7367 0 1.4035-.437 1.6981-1.1138l2.5997-5.9811 8.1487-7.9014.0275-.0275c.8716-.924 1.426-2.1277 1.5583-3.3913l1.0139-13.5679c.1674-1.6682-.8416-3.19903-2.3574-3.57363zm.6168 3.40382-1.0139 13.5654c-.0949.874-.477 1.7056-1.0763 2.3474l-8.381 8.1288-2.7395 6.2982c-.0175.0374-.0525.0624-.0949.0624h-6.6254c-.0125 0-.0524 0-.0824-.0425-.0299-.0424-.02-.0799-.015-.0924l3.6661-12.0195c.1298-.427.3846-.7991.7317-1.0788l7.3745-5.8762c.2947-.2222.8991-.6193 1.441-.6193.2247 0 .4395.0674.6168.2447.5994.6668.1923 1.6932-.1598 2.0953l-5.1894 4.9796 1.2112 1.2611 5.2143-5.0021.04-.0399c.8516-.9265 1.4934-2.9568.2248-4.4203l2.4049-10.2664c.1173-.5144.402-.949.7591-1.1587.2023-.1199.4071-.1499.6069-.0924l.0424.01c.5869.1398 1.1363.8166 1.0439 1.7081z"/><path d="m19.7942 29.5885c-.2347-.7667-.6892-1.436-1.3161-1.9355l-7.412-5.9036c-.9789-.7367-1.97533-1.0563-2.85189-.949l-2.30001-9.8144c-.22726-.9914-.80413-1.8205-1.5783-2.27501-.60934-.35712-1.30609-.45201-1.96038-.26721-1.513368.37459-2.524777 1.90292-2.3574572 3.57112l1.0114072 13.5429v.025c.13486 1.2636.68676 2.4698 1.56082 3.3938l8.17621 7.929 2.5997 5.981c.2946.6768.9614 1.1138 1.6981 1.1138h6.6254c.5918 0 1.1362-.2722 1.4884-.7492.3521-.477.457-1.0738.2822-1.6432zm1.9779 12.6213c-.03.0425-.0699.0425-.0824.0425h-6.6254c-.0399 0-.0774-.025-.0949-.0625l-2.7395-6.2982-8.38097-8.1287c-.60185-.6418-.98144-1.4734-1.07634-2.3474l-1.01141-13.5404v-.025c-.0949-.8915.45451-1.5683 1.04138-1.7107l.04245-.0099c.19979-.0575.40456-.0275.60685.0924.35711.2097.6418.6418.76167 1.1612l2.40491 10.2639c-1.26863 1.4634-.62683 3.4938.22475 4.4203l5.25181 5.042 1.2112-1.2611-5.18938-4.9797c-.35212-.402-.75918-1.4284-.15983-2.0952.60685-.6043 1.64073.0599 2.0403.3596l7.39201 5.8887c.3496.2772.6019.6518.7342 1.0788l3.6661 12.0195s.0149.05-.015.0924z"/></g></svg>