<svg width="86" height="40" viewBox="0 0 86 40" fill="none" xmlns="http://www.w3.org/2000/svg">
<g clip-path="url(#clip0_347_78)">
<path d="M30.8996 28.1625C30.8996 28.1625 30.6112 28.1625 30.4876 28.1625C29.952 28.1625 29.4576 27.8986 28.922 27.974C28.4688 28.0494 28.0157 27.974 27.6037 27.974C27.1505 27.974 26.6561 27.974 26.2853 28.1248C25.7497 28.351 25.2141 28.3133 24.6785 28.4264C24.2253 28.5395 23.7309 28.5395 23.2365 28.5772C22.3302 28.6526 21.4238 28.728 20.5174 28.8034C20.2702 28.8034 20.023 28.728 19.7758 28.6903C19.3226 28.6903 18.8282 28.6903 18.3338 28.6903C18.0042 28.6903 17.6747 28.6149 17.3863 28.5018C17.0567 28.3887 16.6859 28.3887 16.3563 28.4264C16.0679 28.4264 15.7383 28.3133 15.4499 28.2379C15.2851 28.2379 15.1615 28.2002 14.9967 28.2002C14.7083 28.2002 14.4199 28.0871 14.1315 28.0871C13.5959 28.1625 13.0603 28.1248 12.5659 27.974C12.2776 27.8986 12.0716 27.6347 11.742 27.6724C11.4536 27.7101 11.1652 27.7478 10.8356 27.7478C10.4648 27.7478 10.094 27.7101 9.8056 27.4085C9.7232 27.2954 9.5172 27.2954 9.35241 27.22C8.81682 26.9561 8.40483 26.5414 8.03403 26.089C7.70444 25.6743 7.29245 25.3727 6.83925 25.0711C6.46846 24.8072 6.05647 24.7695 5.68568 24.581C5.56208 24.5433 5.43848 24.581 5.31488 24.581C4.90289 24.4679 4.5733 24.0155 4.5321 23.6008C4.5321 23.2992 4.3673 23.0353 4.2849 22.7714C4.2437 22.6206 4.2025 22.4698 4.1613 22.2813C3.99651 21.8289 3.54332 21.6027 3.17252 21.3388C2.80173 21.0749 2.34854 20.8864 1.93655 20.6225C1.73055 20.4717 1.52455 20.3209 1.35976 20.1701C1.03016 19.9062 1.15376 19.5669 1.15376 19.2276C1.15376 18.926 1.11256 18.5866 1.07136 18.285C1.07136 18.0588 1.07136 17.8703 1.07136 17.6441C1.07136 17.4556 1.07136 17.2671 1.07136 17.0786C1.07136 16.8147 1.07136 16.5508 1.07136 16.3246C1.07136 16.2869 1.07136 16.2115 1.07136 16.2115C0.782969 15.9853 0.782969 15.646 0.74177 15.3444C0.74177 15.1936 0.70057 15.0051 0.659371 14.8543C0.576973 14.5527 0.453375 14.2888 0.329777 14.0249C0.329777 13.9872 0.247379 13.9495 0.20618 13.9495C-0.123414 13.5725 -0.123414 12.9693 0.20618 12.5546C0.370977 12.3284 0.453375 12.1022 0.782969 11.9514C0.865367 11.9137 0.906566 11.6875 0.906566 11.5367C0.865367 11.1974 0.74177 10.8958 0.70057 10.5565C0.659371 10.3303 0.659371 10.0664 0.618172 9.84018C0.618172 9.68938 0.618172 9.57628 0.70057 9.42548C0.906567 8.89768 1.07136 8.29447 1.77175 8.10597C2.06014 8.03057 2.18374 7.76667 2.22494 7.54047C2.30734 7.27657 2.30734 7.01266 2.38974 6.74876C2.43094 6.59796 2.55454 6.44716 2.63693 6.33406C2.80173 6.10786 2.92533 5.84395 3.09013 5.61775C3.25492 5.39155 3.41972 5.12765 3.62572 4.90145C3.99651 4.48674 4.4085 4.10974 4.82049 3.73274C5.06769 3.50654 5.39728 3.28034 5.68568 3.05413C5.76807 3.01643 5.85047 2.97873 5.93287 2.94103C6.05647 2.90333 6.18007 2.90333 6.26247 2.82793C6.63326 2.52633 7.04525 2.30013 7.49844 2.11163C7.95163 1.96083 8.36363 1.69692 8.81682 1.50842C9.18761 1.39532 9.5584 1.35762 9.9704 1.28222C10.0116 1.28222 10.094 1.28222 10.1352 1.20682C10.3412 1.09372 10.506 0.980618 10.7944 1.05602C10.918 1.09372 11.124 1.05602 11.2476 0.980618C11.7832 0.754416 12.3188 0.980618 12.8543 0.792116C13.3487 0.603615 13.8843 0.415114 14.4611 0.490514C14.7083 0.528214 14.9555 0.415114 15.2439 0.415114C15.4087 0.415114 15.5735 0.415114 15.7383 0.415114C16.1503 0.415114 16.5623 0.339713 16.9743 0.339713C17.2627 0.339713 17.5511 0.339713 17.8394 0.339713C18.1278 0.339713 18.4162 0.339713 18.7046 0.339713C18.787 0.339713 18.9106 0.377413 18.993 0.415114C19.3226 0.452814 19.6522 0.490514 19.9818 0.528215C20.1878 0.528215 20.3938 0.565915 20.5586 0.641315C21.1354 0.867517 21.7534 0.754416 22.3302 0.754416C22.8658 0.754416 23.4425 0.679016 23.9781 0.716716C24.5549 0.716716 25.1317 0.716716 25.7497 0.603615C26.1617 0.528214 26.6149 0.603615 27.0269 0.603615C27.4389 0.603615 27.8509 0.528215 28.2629 0.528215C28.51 0.528215 28.7984 0.528215 29.0868 0.528215C29.334 0.528215 29.54 0.528215 29.7872 0.528215C30.1168 0.528215 30.4052 0.415114 30.7348 0.528215C30.8996 0.603615 31.1056 0.528214 31.3116 0.490514C31.7648 0.490514 32.1768 0.452814 32.63 0.452814C33.042 0.452814 33.454 0.490514 33.8659 0.490514C34.1131 0.490514 34.4015 0.415114 34.6487 0.415114C34.8135 0.415114 34.9783 0.415114 35.1843 0.415114C35.7199 0.415114 36.2555 0.339713 36.7499 0.415114C37.0795 0.452814 37.2443 0.302013 37.4915 0.264313C37.6975 0.264313 37.9035 0.226612 38.1095 0.188912C38.4391 0.188912 38.8099 0.151212 39.1394 0.151212C39.3454 0.151212 39.5514 0.188912 39.7162 0.226612C40.0458 0.302013 40.3342 0.377413 40.6638 0.415114C40.911 0.415114 41.1582 0.377413 41.4054 0.415114C41.6526 0.415114 41.8586 0.415114 42.1058 0.452814C42.4766 0.452814 42.8886 0.565915 43.2594 0.565915C43.4654 0.565915 43.6714 0.490514 43.8774 0.452814C44.2481 0.377413 44.5777 0.264313 44.9485 0.188912C45.4429 0.113511 45.9373 0.0758111 46.3905 0.000410512C46.6789 -0.0372898 46.9673 -0.150391 47.2969 -0.150391C47.7089 -0.150391 48.0797 -0.11269 48.4917 -0.0749901C48.7389 -0.0749901 49.0273 -0.0749901 49.2745 -0.0749901C49.4804 -0.0749901 49.6864 -0.0749901 49.8924 -0.0749901C50.1808 -0.0749901 50.5104 -0.11269 50.7988 -0.0749901C51.046 -0.0749901 51.3344 0.000410497 51.5816 0.0381108C51.7876 0.0381108 51.9936 0.113511 52.1996 0.0758111C52.4468 0.0758111 52.694 0.000410512 52.9412 0.000410512C53.0236 0.000410512 53.1472 0.0381108 53.2296 0.113511C53.4356 0.226612 53.6416 0.264312 53.8476 0.151212C54.0536 0.0381108 54.2184 0.151212 54.4244 0.151212C54.6716 0.188912 54.9599 0.151212 55.2071 0.188912C55.4955 0.188912 55.7839 0.188912 56.0311 0.226612C56.0311 0.226612 56.1135 0.226612 56.1547 0.226612C56.5255 0.0758111 56.8551 0.151212 57.2259 0.226612C57.6379 0.264312 58.0499 0.226612 58.4619 0.226612C58.7915 0.226612 59.1211 0.226612 59.4507 0.226612C59.9863 0.264312 60.5218 0.415114 61.0574 0.377413C61.6754 0.302013 62.2934 0.452814 62.9114 0.377413C63.1586 0.339713 63.447 0.452814 63.6942 0.452814C63.859 0.452814 64.065 0.452814 64.2298 0.452814C64.6418 0.452814 65.0126 0.452814 65.4245 0.452814C65.507 0.452814 65.5893 0.452814 65.6305 0.528215C65.8365 0.641315 66.0425 0.716716 66.2897 0.641315C66.4133 0.603615 66.5781 0.641315 66.7429 0.641315C67.1549 0.641315 67.6081 0.679016 68.0201 0.679016C68.4321 0.679016 68.8853 0.679016 69.2973 0.679016C69.4209 0.679016 69.5445 0.716716 69.7093 0.754416C69.8741 0.754416 69.9977 0.829817 70.1625 0.829817C70.6157 0.829817 71.11 0.867517 71.5632 0.829817C72.0988 0.754416 72.5932 0.905217 73.1288 0.867517C73.4584 0.867517 73.7056 1.05602 73.9528 1.09372C74.2824 1.09372 74.4884 1.24452 74.7768 1.31992C75.1476 1.43302 75.5184 1.50842 75.8892 1.62152C76.0951 1.65922 76.3423 1.69692 76.5895 1.77232C77.0015 1.92313 77.4135 2.07393 77.8667 2.07393C78.2787 2.26243 78.6907 2.45093 79.1027 2.60173C79.2263 2.67713 79.3911 2.71483 79.5147 2.75253C79.7207 2.79023 79.9679 2.79023 80.1327 2.90333C80.6683 3.16723 81.1215 3.46884 81.451 3.92124C81.4922 3.99664 81.5334 4.10974 81.5746 4.18514C81.5746 4.22284 81.5746 4.29824 81.5746 4.29824C81.863 4.59984 81.9866 4.97685 82.1514 5.31615C82.2338 5.50465 82.3162 5.73085 82.3986 5.95706C82.6046 6.48486 82.8518 7.05036 83.3462 7.42737C83.7994 7.76667 83.8818 8.18137 83.8406 8.70918C83.8406 9.27468 83.923 9.84018 83.923 10.4057C83.923 10.7827 84.129 10.9335 84.335 11.122C84.4998 11.2728 84.6234 11.4613 84.747 11.6498C84.6234 11.6498 84.8294 12.0268 85.0354 12.0645C85.2002 12.0645 85.4062 12.253 85.4062 12.4038C85.4062 12.6677 85.4886 12.8939 85.4886 13.1578C85.4886 13.4971 85.4474 13.8364 85.365 14.1757C85.2826 14.4773 85.1178 14.7412 84.9942 15.0051C84.9118 15.2313 84.7882 15.4198 84.6646 15.646C84.541 15.8722 84.4586 16.1361 84.335 16.3623C84.2114 16.5885 84.1702 16.8901 83.9642 17.0786C83.6346 17.3802 83.5934 17.7949 83.4286 18.1719C83.305 18.4359 83.2638 18.6998 83.1814 18.9637C83.1814 18.9637 83.1814 19.0391 83.1814 19.0768C83.2226 19.4161 83.2226 19.7931 83.305 20.1324C83.3874 20.5094 83.1402 20.7356 82.9342 20.9618C82.8106 21.0749 82.8106 21.2257 82.7282 21.4142C82.5222 21.4896 82.3162 21.5273 82.275 21.8666C82.275 21.9797 82.1514 22.1305 82.0278 22.2059C81.657 22.5829 81.2862 22.9222 80.9155 23.3369C80.7507 23.5254 80.6271 23.7516 80.5035 23.9401C80.5035 23.9778 80.4623 24.0532 80.4211 24.0909C79.7619 24.6941 79.1439 25.3727 78.4435 25.9382C78.0727 26.2398 77.6195 26.466 77.1251 26.5037C77.0427 26.5037 77.0015 26.5037 76.9191 26.5037C76.5483 26.6168 76.2187 26.7676 75.848 26.843C75.5184 26.9184 75.1476 26.9561 74.818 27.0315C74.4472 27.1069 74.0764 27.1446 73.7468 27.3331C73.6232 27.4085 73.4172 27.3708 73.2524 27.4085C73.0052 27.4085 72.7168 27.4085 72.4696 27.4839C72.3048 27.4839 72.14 27.597 71.934 27.6347C71.6868 27.6724 71.4396 27.7101 71.2336 27.7101C70.904 27.7101 70.5745 27.7855 70.2037 27.7855C69.9153 27.7855 69.6269 27.8609 69.3385 27.8609C69.0913 27.8609 68.8853 27.8609 68.6381 27.8609C68.1437 27.8609 67.6493 27.8609 67.1137 27.8609C66.8253 27.8609 66.5781 27.8609 66.2897 27.8609C66.1661 27.8609 66.0425 27.7478 65.9601 27.7478C65.5481 27.7478 65.1774 27.7855 64.7654 27.8232C64.6418 27.8232 64.477 27.8232 64.3534 27.8232C64.065 27.8232 63.7766 27.8232 63.4882 27.8232C63.4058 27.8232 63.2822 27.8609 63.1998 27.8986C62.8702 27.9363 62.5406 27.974 62.211 28.0117C62.0462 28.0117 61.8402 28.0117 61.6754 28.0117C61.0574 28.0117 60.4394 28.0494 59.8627 28.0494C59.4507 28.0494 58.9975 28.0117 58.5855 28.0117C58.4207 28.0117 58.2559 28.0494 58.0499 28.0494C57.8027 28.0494 57.5143 28.0871 57.2671 28.0871C57.0199 28.0871 56.7727 28.0494 56.5255 28.0871C56.2371 28.0871 55.9899 28.1625 55.7015 28.0871C55.4543 28.0871 55.2483 28.0871 55.0011 28.0871C54.7128 28.0871 54.4244 28.0871 54.136 28.0871C53.8476 28.0871 53.6004 28.0494 53.312 28.0117C53.106 28.0117 52.8588 28.0117 52.6528 28.0117C52.1584 28.0117 51.664 28.0117 51.2108 28.0117C50.9224 28.0117 50.6752 28.1248 50.428 28.1248C50.0984 28.0871 49.8924 28.1248 49.81 28.4264H49.7276C49.398 28.4641 49.1097 28.5395 48.7801 28.5395C48.3681 28.5395 47.9561 28.4264 47.5441 28.351H47.4617C46.7201 27.8609 45.8961 27.8986 45.0721 27.974C44.9485 27.974 44.7837 27.9363 44.6601 27.974C44.3305 28.0117 44.001 28.0871 43.6714 28.1248C43.4242 28.1248 43.177 28.1248 42.9298 28.1248C42.4766 28.1248 41.9822 28.1248 41.529 28.1248C41.323 28.1248 41.0758 28.1248 40.8698 28.0494C40.6638 28.0494 40.499 27.974 40.293 27.974C40.0046 27.974 39.7162 27.8986 39.4278 27.9363C38.9334 27.9363 38.4391 28.0494 37.9035 28.0494C37.6151 28.0494 37.3267 28.0117 37.0795 28.0494C36.5027 28.1625 35.8847 28.0494 35.3903 28.4641C35.2255 28.6149 34.8959 28.6149 34.6075 28.6149C34.2779 28.6149 33.9483 28.6149 33.6187 28.5395C33.2892 28.5018 33.0008 28.351 32.6712 28.2756C32.3828 28.2002 32.012 28.0117 31.7648 28.0494C31.394 28.1248 31.0232 27.8232 31.0232 27.8232L30.8996 28.1625ZM32.836 2.63943C32.3828 2.71483 31.394 2.71483 31.3528 2.71483C31.3116 2.71483 30.8172 2.79023 30.364 2.82793C29.9108 2.86563 29.746 2.71483 29.7048 2.67713C29.6636 2.63943 28.5924 2.67713 28.2217 2.75253C27.8509 2.82793 27.4389 2.52633 27.4389 2.52633C26.8621 2.41323 26.2441 2.37553 25.7497 2.79023C25.5025 2.97873 25.2141 2.94103 24.9257 2.97873C24.6373 2.97873 24.3077 2.97873 24.0193 2.97873C23.7309 2.97873 23.4425 2.97873 23.1541 2.97873C22.7422 2.94103 22.3714 2.94103 21.9594 2.97873C21.7122 2.97873 21.5062 2.97873 21.259 2.97873C21.0118 2.97873 20.8058 2.86563 20.5586 2.82793C20.4762 2.82793 20.1466 2.75253 20.0642 2.75253C19.611 2.67713 19.1578 2.63943 18.7046 2.60173C18.4574 2.60173 18.169 2.60173 17.9218 2.60173C17.6335 2.60173 17.3451 2.52633 17.0567 2.52633C16.4799 2.52633 15.8619 2.52633 15.2851 2.56403C15.0379 2.56403 14.7907 2.56403 14.5435 2.56403C14.5435 2.56403 13.6783 2.75253 13.1427 2.79023C12.6071 2.82793 12.4011 2.94103 12.1128 3.12953C11.8244 3.31804 11.4124 3.05413 11.4124 3.05413C11.2476 3.12953 10.8356 3.50654 10.5884 3.73274C10.4236 3.84584 10.2176 4.03434 10.1352 3.99664C9.8468 3.88354 9.7644 4.10974 9.5996 4.18514C9.476 4.22284 9.35241 4.33594 9.27001 4.41134C9.02281 4.56214 8.73442 4.71295 8.69322 5.05225C8.69322 5.27845 8.61082 5.54235 8.52842 5.76855C8.48722 5.91935 8.36363 6.03246 8.24003 6.25866C7.95163 6.33406 7.58084 6.37176 7.25125 6.52256C7.04525 6.59796 6.88045 6.74876 6.79806 6.93726C6.67446 7.16346 6.63326 7.42737 6.59206 7.65357C6.42726 8.29447 6.34486 8.97308 5.93287 9.53858C5.93287 9.57628 5.89167 9.65168 5.89167 9.68938C5.85047 10.0664 5.56208 10.368 5.31488 10.6319C5.06769 10.8958 4.73809 11.0089 4.69689 11.4613C4.69689 11.9137 4.3673 12.3661 4.82049 12.8185C4.82049 12.8185 4.82049 12.8939 4.82049 12.9316C4.77929 13.2709 4.77929 13.6479 4.6557 13.9495C4.4909 14.4019 4.2849 14.8166 4.3261 15.3067C4.3261 15.4952 4.3261 15.6837 4.3261 15.8345C4.3261 16.2869 4.3673 16.7393 4.4497 17.1917C4.4909 17.4933 4.6557 17.7949 4.69689 18.0965C4.82049 18.6621 4.98529 19.1899 5.39728 19.68C5.52088 19.8308 5.56208 20.057 5.68568 20.2455C5.89167 20.5471 6.30366 20.7733 6.26247 21.2257C6.26247 21.2257 6.30366 21.2634 6.34486 21.3011C6.88045 21.9043 7.45724 22.5075 8.11643 22.9976C8.36363 23.1861 8.61082 23.4123 8.89922 23.4877C9.18761 23.5631 9.39361 23.6762 9.6408 23.8647C9.888 24.0909 10.1764 24.2794 10.5472 24.3548C10.7944 24.3925 11.0828 24.4302 11.2888 24.5056C11.7832 24.7695 12.3188 24.6564 12.8131 24.6941C13.2663 24.6941 13.6371 24.958 13.6783 25.3727C13.6783 25.7497 14.0903 25.9382 14.4199 25.712C14.5847 25.6366 14.7907 25.5612 14.9967 25.5235C15.2439 25.4858 15.4911 25.5235 15.7383 25.4858C16.0679 25.3727 16.3563 25.4858 16.6447 25.4104C16.9743 25.4104 17.2627 25.335 17.5923 25.2973C17.7158 25.2973 17.8394 25.2973 18.0042 25.2973C18.2514 25.2973 18.6634 25.3727 19.199 25.4104C19.7346 25.4481 20.1466 25.5235 20.1466 25.5235C20.3938 25.8251 20.847 25.6743 21.2178 25.712C21.5062 25.712 21.7946 25.6743 22.1242 25.6743C22.7834 25.6743 23.4013 25.6743 24.0605 25.5612C24.1841 25.5612 24.3077 25.5612 24.4313 25.5612C24.8433 25.5612 25.2553 25.6366 25.6673 25.6366C26.0793 25.6366 26.5325 25.6366 26.9445 25.6366C27.3977 25.6366 27.8921 25.6366 28.3452 25.5989C28.5924 25.5989 28.8396 25.4858 29.128 25.4858C29.746 25.4858 30.4052 25.4858 31.0232 25.4858C31.3116 25.4858 31.6 25.4858 31.8884 25.4858C32.1356 25.4858 32.424 25.4858 32.6712 25.4858C32.8772 25.4858 33.0832 25.4481 33.2892 25.4481C33.5364 25.4481 33.7835 25.5235 34.0307 25.4858C34.4839 25.4858 34.8959 25.2973 35.3491 25.3727C35.3491 25.3727 35.4315 25.3727 35.4727 25.3727C35.7611 25.3727 36.0907 25.3727 36.3791 25.3727C36.4615 25.3727 36.5851 25.4481 36.6263 25.4104C37.1619 25.2219 37.6151 25.4104 38.1095 25.5989C38.4391 25.712 38.6863 25.9382 39.0159 26.0136C39.5102 26.1267 39.9634 26.089 40.4166 25.9759C40.6638 25.9005 40.9522 25.9005 41.2406 25.8628C41.6114 25.7874 41.9822 25.7874 42.2706 25.5989C42.6002 25.4104 42.971 25.6366 43.3006 25.4481C43.3006 25.4481 43.3418 25.4858 43.383 25.4858C43.4654 25.4858 43.589 25.4858 43.6714 25.4858C43.8774 25.4481 44.0834 25.335 44.2481 25.335C44.7013 25.335 45.1957 25.335 45.6489 25.335C46.1021 25.335 46.5553 25.335 47.0085 25.4104C47.7501 25.4858 48.4505 25.5612 49.1921 25.6366C49.7276 25.6743 50.222 25.7497 50.7576 25.7874C50.8812 25.7874 51.0048 25.7874 51.1284 25.7874C51.4168 25.7874 51.664 25.8628 51.9524 25.9005C52.4056 25.9005 52.9 25.9005 53.3532 25.9005C53.6004 25.9005 53.8888 25.9005 54.136 25.9005C54.4656 25.9005 54.7952 25.9005 55.1247 25.9005C55.2071 25.9005 55.3307 26.0136 55.4131 26.0136C55.8251 26.0136 56.1959 25.9759 56.6079 25.9759C56.8551 25.9759 57.0611 26.0136 57.3083 26.0136C57.7615 26.0136 58.2559 26.089 58.7091 26.089C59.2447 26.089 59.8215 26.0136 60.357 25.9759C60.5218 25.9759 60.7278 25.9759 60.8926 25.9759C61.1398 25.9759 61.387 26.0513 61.6754 26.0513C61.9638 26.0513 62.2522 26.0136 62.4994 25.9759C62.9526 25.9759 63.4058 25.9759 63.859 25.9759C64.065 25.9759 64.3122 25.9382 64.5182 25.9005C65.095 25.8628 65.6717 25.8251 66.2485 25.7874C66.5369 25.7874 66.7841 25.7874 67.0725 25.7874C67.3197 25.7874 67.5257 25.7874 67.7729 25.7497C68.1849 25.712 68.5557 25.5989 68.9677 25.5612C69.3797 25.5235 69.7917 25.4858 70.2037 25.4481C70.5745 25.4104 70.9452 25.335 71.316 25.2596C71.5632 25.2219 71.7692 25.1088 72.0164 25.0334C72.346 24.958 72.6756 24.8826 72.964 24.7695C73.17 24.7318 73.376 24.6564 73.5408 24.581C73.7056 24.5056 73.9116 24.4679 73.994 24.3171C74.2824 23.9778 74.4884 23.6008 74.7768 23.2238C74.7768 23.1861 74.8592 23.1107 74.9416 23.073C75.1888 22.9599 75.436 22.8845 75.7243 22.7714C75.8479 22.7337 75.9303 22.6583 76.0539 22.6583C76.7955 22.6583 77.4547 22.319 78.1139 21.9797C78.6083 21.7158 78.9791 21.2257 79.3499 20.811C79.4323 20.7356 79.4735 20.6225 79.5559 20.5094C79.6795 20.2832 79.8031 20.0947 79.9267 19.8685C80.1327 19.4538 80.3387 19.0014 80.5447 18.549C80.7507 18.2096 80.9978 17.8703 81.2038 17.4933C81.3274 17.2671 81.3275 16.9278 81.5334 16.777C81.863 16.4754 81.6982 16.023 81.9454 15.7214C81.9454 15.6837 81.9454 15.5329 81.9454 15.4575C81.9454 15.3444 81.863 15.2313 81.863 15.1182C81.863 14.5527 81.9454 13.9872 81.5334 13.4971V13.4217C81.5334 13.007 81.4098 12.6677 81.2038 12.3284C81.0802 12.0645 80.9566 11.8006 80.9566 11.5367C80.9566 11.3105 80.8743 11.1974 80.7919 11.0466C80.6683 10.745 80.5859 10.4434 80.3799 10.1795C80.2151 9.95329 80.2151 9.68938 80.1327 9.46318C80.0915 9.27468 80.1327 9.01078 80.2151 8.82228C80.3799 8.40757 80.3799 8.21907 80.1327 8.03057C79.6795 7.65357 79.2263 7.27657 78.7731 6.89956C78.6495 6.78646 78.4435 6.59796 78.3199 6.63566C78.0727 6.71106 77.9491 6.52256 77.7431 6.44716C77.5371 6.33406 77.3311 6.25866 77.3311 5.95706C77.3311 5.73085 77.2487 5.50465 77.2075 5.27845C77.2075 5.16535 77.2075 5.01455 77.1251 4.93915C76.8779 4.71295 76.6719 4.44904 76.2187 4.44904C75.9715 4.44904 75.7244 4.18514 75.3536 4.14744C74.9828 4.14744 74.612 3.92124 74.2412 3.80814C73.994 3.73274 73.7056 3.65734 73.4584 3.58194C73.1288 3.46884 72.8404 3.35574 72.5108 3.24264C72.0988 3.43114 71.8104 3.05413 71.4396 3.01643C70.9864 3.01643 70.5333 2.75253 70.0801 2.63943C69.9153 2.60173 69.7505 2.60173 69.5857 2.60173C69.2973 2.60173 69.0501 2.60173 68.7617 2.60173C68.4321 2.60173 68.0613 2.67713 67.7317 2.71483C67.4845 2.75253 67.2373 2.82793 66.9901 2.86563C66.7017 2.86563 66.3721 2.86563 66.0425 2.90333C65.4246 2.94103 64.7654 3.01643 64.1474 3.05413C63.6942 3.05413 63.1998 3.01643 62.7054 2.94103C62.0874 2.86563 61.5106 2.75253 60.8926 2.67713C60.769 2.67713 60.6042 2.67713 60.4806 2.67713C60.1922 2.67713 59.9039 2.60173 59.6567 2.56403C59.3683 2.56403 59.0387 2.48863 58.7503 2.48863C58.2559 2.48863 57.7203 2.48863 57.2259 2.48863C57.2259 2.48863 57.1847 2.48863 57.1435 2.48863C56.8551 2.52633 56.5667 2.56403 56.3195 2.60173C56.1547 2.60173 55.9487 2.60173 55.7839 2.60173C55.4131 2.60173 55.0423 2.56403 54.7127 2.75253C54.6304 2.79023 54.5068 2.79023 54.4244 2.82793C54.136 2.82793 53.8476 2.86563 53.5592 2.90333C53.2708 2.94103 52.9824 3.05413 52.694 3.05413C52.3644 3.05413 52.0348 3.05413 51.7052 3.05413C51.5404 3.05413 51.3756 3.09183 51.252 3.09183C50.8812 3.09183 50.5104 3.09183 50.1808 3.05413C49.9748 3.05413 49.81 3.05413 49.604 3.05413C49.1921 2.97873 48.7801 2.90333 48.3681 2.82793C48.1621 2.79023 47.9149 2.82793 47.7913 2.82793C47.5029 2.67713 47.2969 2.67713 46.9673 2.63943C46.5141 2.63943 46.1021 2.48863 45.6489 2.41323C45.3193 2.37553 44.9485 2.41323 44.6189 2.33783C44.2893 2.26243 44.001 2.11163 43.6302 2.14933C43.2182 2.14933 42.8474 2.14933 42.4354 2.14933C41.735 2.22473 41.0758 2.33783 40.3754 2.41323C40.0046 2.45093 39.5926 2.41323 39.2218 2.41323C38.5215 2.48863 37.7799 2.45093 37.0795 2.48863C36.2967 2.48863 35.5551 2.30013 34.7723 2.14933C34.6899 2.14933 34.5251 2.14933 34.4427 2.18703C34.2779 2.30013 34.2367 2.41323 33.1244 2.56403L32.836 2.63943ZM25.6261 15.6083C25.6261 15.6083 25.7085 15.3821 25.7085 15.269C25.7085 15.0051 25.5849 14.7412 25.5849 14.4773C25.5849 13.9872 25.5025 13.4971 25.5025 13.0447C25.5025 12.5923 25.5025 12.1022 25.5437 11.6498C25.5437 11.122 25.6261 10.2172 25.5849 10.0664C25.5437 9.91559 25.4201 9.95329 25.5849 9.68938C25.7497 9.42548 25.7497 8.59608 25.7497 8.06827C25.7497 7.61587 25.7085 7.12576 25.6261 6.67336C25.5849 6.33406 25.4613 6.03246 25.3789 5.69315C25.3789 5.61775 25.4201 5.54235 25.3789 5.46695C25.3377 5.27845 25.3789 5.16535 25.6261 5.12765C25.7497 5.12765 25.9145 5.01455 26.0381 4.93915C26.4501 4.71295 26.6561 4.29824 27.0269 4.07204C27.2741 3.92124 27.8097 3.77044 27.9745 3.65734C28.1393 3.54424 28.5512 3.31804 29.4164 3.50654C29.8284 3.61964 29.7048 3.43114 30.4876 3.58194C31.2704 3.73274 32.1356 3.43114 32.218 3.58194C32.3004 3.73274 33.5776 3.28034 34.4015 3.50654C34.6899 3.58194 34.5663 3.73274 34.9371 3.80814C35.3491 3.88354 35.7199 3.95894 36.1319 4.03434C36.5027 4.10974 36.8735 4.03434 37.2031 4.18514C37.4091 4.26054 37.6563 4.26054 37.8623 4.41134C38.0683 4.63755 38.2743 4.86375 38.5215 5.05225C38.9747 5.39155 39.0158 5.91935 39.263 6.33406C39.4278 6.63566 39.469 6.97496 39.5102 7.31427C39.5514 7.65357 39.5102 8.03057 39.5926 8.36987C39.675 8.78458 39.5102 9.16158 39.5926 9.57628C39.675 9.95329 39.3866 10.3303 39.3866 10.7827C39.4278 11.3105 39.2218 11.8383 39.5102 12.3284C39.5102 12.3284 39.5102 12.3661 39.5102 12.4038C39.5102 12.7808 39.5102 13.1578 39.5102 13.5725C39.5102 13.761 39.5102 13.9495 39.5102 14.138C39.5514 14.4396 39.6338 14.7035 39.675 15.0051C39.7574 15.5706 39.7986 16.1361 39.8398 16.7016C39.9222 17.4179 40.0046 18.1342 40.0458 18.8506C40.0458 19.0391 40.0458 19.1899 40.0458 19.3784C40.0458 19.6046 40.1282 19.8685 40.1282 20.0947C40.1282 20.3963 40.1282 20.6979 40.0458 21.0372C39.9634 21.7158 39.8398 22.3944 39.3454 22.9599C39.263 23.0353 39.263 23.1484 39.1806 23.1861C38.9334 23.3369 38.6863 23.45 38.4391 23.6008C38.1095 23.7893 37.7799 23.9401 37.4503 24.0532C37.2855 24.0909 37.1619 24.2417 37.0383 24.2794C36.7911 24.3925 36.5439 24.4302 36.3379 24.5433C36.0907 24.6564 35.9259 24.6564 35.6787 24.5433C35.5963 24.5056 35.5139 24.5433 35.4315 24.5433C35.1843 24.5433 34.9371 24.3548 34.9371 24.0909C34.9371 23.8647 34.9371 23.6008 34.9371 23.3746C34.9371 23.2615 34.9371 23.1107 34.9371 22.9976C34.9371 22.8468 34.9371 22.6583 34.8959 22.5452C34.6487 22.0928 34.8959 21.7158 35.0195 21.3388C35.1431 20.8864 35.5139 20.4717 35.8435 20.057C36.2555 19.4915 36.2967 19.1899 35.5963 18.7374C35.4315 18.6243 35.2667 18.549 35.0607 18.549C34.8547 18.549 34.6075 18.3981 34.3603 18.4358C34.2367 18.4358 34.0719 18.5112 33.9483 18.549C33.5364 18.6621 33.1244 18.7375 32.7124 18.8506C32.5476 18.8883 32.3828 19.0768 32.218 18.8506C32.218 18.8506 32.0944 18.8506 32.0532 18.8506C31.9708 18.8506 31.8884 18.8506 31.7648 18.8506C31.6824 18.8506 31.6412 18.8506 31.5588 18.8506H31.2292C31.2292 18.8506 31.1056 18.8506 31.0644 18.8506C30.776 18.8506 30.4876 18.8506 30.2404 18.8506C29.9932 18.8506 29.7048 18.8506 29.4576 18.8506C29.1692 18.8506 28.8396 18.926 28.5512 18.9637C28.4688 18.9637 28.3864 18.9637 28.304 19.0391C27.7685 19.4161 27.7273 20.057 27.2741 20.4717C27.3565 20.7356 27.1917 20.9241 27.0269 21.0749C26.4501 21.6027 25.8733 22.1305 25.2965 22.6583C25.2553 22.696 25.1317 22.7714 25.0905 22.7714C24.8021 22.6583 24.6785 22.8845 24.5137 22.9976C24.2665 23.1484 23.9781 23.4877 23.8133 23.45C23.3601 23.3369 22.2066 23.9401 21.9182 24.0155C21.5062 24.1286 21.1354 24.2794 20.7646 24.4302C20.7646 24.4302 20.6822 24.4302 20.641 24.4302C20.1878 24.3925 20.0642 24.6564 19.6934 24.8072C19.3226 24.958 18.6222 24.6941 18.6222 24.6941L18.5398 24.5433C18.5398 24.5433 18.5398 24.2794 18.5398 24.204C18.5398 24.1286 18.5398 23.827 18.5398 23.827C18.5398 23.5254 18.5398 23.2615 18.5398 22.9976C18.5398 22.8091 18.6222 22.5075 18.7458 22.4698C19.199 22.319 19.4462 21.942 19.9818 21.9043C20.435 21.9043 20.847 21.6781 21.3002 21.5273C21.7122 21.3765 22.1654 21.3011 22.495 21.0749C22.9482 20.6979 23.3189 20.1701 23.6897 19.7177M23.4013 17.6441C23.4013 18.2473 22.289 18.5112 22.289 18.5112C21.7122 18.3227 22.0418 18.8129 21.5062 19.1899C21.3414 19.303 21.1766 19.4915 21.0118 19.6046C20.4762 19.9439 20.1466 20.5471 19.405 20.6225C19.0342 20.6602 18.6222 20.7733 18.2514 20.8487C17.8806 20.9241 17.4687 20.7733 17.1803 21.0749C17.1803 21.0749 17.0567 21.0749 17.0155 21.0749C16.8095 21.1126 16.6035 21.188 16.4387 21.2257C16.3563 21.2257 16.2327 21.2634 16.1915 21.2257C15.9443 21.0372 15.6971 20.811 15.4499 20.6225C15.1615 20.3963 14.9555 20.0947 14.6259 19.9062C14.2963 19.7177 13.8431 19.68 13.4723 19.5669C13.0603 19.4161 12.6071 19.2653 12.1952 19.1522C12.0716 19.1145 11.9068 19.1522 11.8244 19.0768C11.536 18.926 11.4536 18.7375 11.536 18.285C11.5772 17.908 11.6596 17.531 11.6596 17.154C11.6596 16.8524 11.6184 16.5131 11.5772 16.2115C11.5772 15.7968 11.536 15.4198 11.536 15.0051C11.536 14.7789 11.6184 14.5527 11.6596 14.3642C11.7008 14.1003 11.8244 13.8364 11.8244 13.6102C11.8244 13.2332 11.5772 12.9693 11.2476 12.7808C11.0416 12.6677 10.918 12.5169 10.7532 12.3284C10.712 12.253 10.7532 12.1399 10.6708 12.1022C10.5472 11.9137 10.3824 11.7252 10.2176 11.5367C10.2588 11.3859 10.2176 11.2728 10.2176 11.1597C10.2176 10.9335 10.1352 10.6696 10.2176 10.4811C10.506 10.0664 10.5472 9.57628 10.6708 9.12388C10.712 8.97308 10.6296 8.74688 10.712 8.63377C11.0004 8.29447 10.918 7.95517 10.8356 7.61587C10.7532 7.31427 10.7532 6.93726 10.4648 6.71106C10.2588 6.56026 9.9292 6.22096 9.888 5.95706C9.888 5.69315 10.094 5.46695 10.2588 5.27845C10.6708 4.78835 11.0004 4.86375 11.6184 4.86375C11.7832 4.86375 12.2364 4.63755 12.4423 4.56214C12.6483 4.48674 12.9779 4.67525 13.3075 4.56214C14.0491 4.29824 14.4611 4.56214 14.5023 4.63755C14.5435 4.71295 14.5847 4.78835 14.6259 4.82605C14.9555 5.12765 15.2439 5.39155 15.7383 5.58005C16.2327 5.73085 16.6859 5.91935 17.2215 5.95706C17.3863 5.95706 17.5923 5.91935 17.757 5.95706C18.169 6.10786 18.4986 5.99476 18.8694 5.88165C19.0754 5.80625 19.3638 5.76855 19.611 5.69315C19.7758 5.61775 19.7346 5.54235 19.9406 5.54235C20.0642 5.54235 20.2702 5.46695 20.3938 5.42925C20.5174 5.39155 20.641 5.27845 20.7646 5.24075C21.1766 5.12765 21.5886 4.93915 22.0006 4.82605C22.4538 4.71295 22.8658 4.82605 23.2777 4.75065C23.4425 4.75065 23.6485 4.75065 23.8133 4.82605C23.9781 4.86375 24.1841 4.97685 24.2253 5.05225C24.3077 5.31615 24.3077 5.61775 24.3077 5.88165C24.3077 6.07016 24.3077 6.22096 24.3077 6.40946C24.2665 7.08806 24.1429 7.76667 24.1429 8.44527C24.1429 8.93538 24.1429 9.42548 24.1429 9.91559C24.1429 10.6319 24.1841 11.3482 24.0605 12.0645C24.0605 12.0645 24.0605 12.1022 24.0605 12.1399C24.1017 12.3284 24.1841 12.5169 24.2253 12.7054C24.2665 13.0447 24.0193 13.6856 24.1429 13.9872C24.3077 14.4019 23.8133 14.6281 24.1017 14.9674C24.1841 15.1182 23.2365 17.0786 23.2365 17.6818L23.4013 17.6441ZM15.3263 15.7968C15.4087 16.0607 15.4499 16.3246 15.5323 16.5885C15.8207 17.2294 16.6447 17.6818 17.3863 17.6441C17.7982 17.6441 18.6222 17.5687 18.7458 17.4933C19.1166 17.3048 19.5286 17.1917 19.8582 17.1917C20.3938 17.2294 20.8882 16.2869 20.9706 16.0607C21.0942 15.6837 21.5474 15.4198 21.671 15.0428C21.671 14.5527 21.7534 14.1003 21.7122 13.6856C21.7122 13.384 21.5062 13.1201 21.3414 12.8562C21.3002 12.7808 21.053 12.7808 20.9294 12.7431C20.435 12.4792 19.8582 12.63 19.3226 12.63C18.8282 12.63 18.2926 12.7808 17.7982 12.8939C17.3863 12.9693 16.9743 13.0447 16.5623 13.1201C16.2327 13.1955 15.8619 13.2709 15.5323 13.384C15.3263 13.4594 14.9967 13.6102 14.9555 13.761C14.9143 14.0626 14.9555 14.4396 15.1203 14.7035C15.3263 15.0805 15.2851 15.4575 15.3263 15.8345V15.7968ZM36.6675 7.84207C36.6675 7.84207 36.5851 7.65357 36.5439 7.61587C36.2967 7.35197 36.0907 7.01266 35.7611 6.86186C35.1431 6.56026 34.8959 5.99476 34.1543 5.91935C33.8659 5.91935 33.6188 5.84395 33.3716 5.69315C33.2892 5.65545 32.8772 5.69315 32.7124 5.61775C32.5476 5.54235 32.0532 5.61775 31.6824 5.58005C31.0644 5.50465 30.57 5.80625 30.1992 6.25866C29.7872 6.78646 29.2516 7.20116 29.0456 7.84207C28.922 8.21907 28.8808 8.67148 29.2516 8.93538C29.6636 9.23698 30.1992 9.31238 30.6936 9.35008C31.2704 9.35008 31.8884 9.35008 32.4652 9.35008C33.0008 9.35008 33.4952 9.38778 34.0307 9.35008C34.6487 9.27468 35.2667 9.35008 35.8435 9.19928C36.0083 9.16158 36.1731 9.04848 36.2555 8.93538C36.4203 8.59607 36.5027 8.21907 36.5851 7.87977L36.6675 7.84207ZM28.304 14.2511C28.304 14.2511 28.3041 14.4019 28.3452 14.515C28.4276 14.892 28.7984 15.0051 29.0044 15.2313C29.1692 15.3821 29.4164 15.4575 29.6636 15.4952C30.1992 15.5706 30.7348 15.6083 31.2292 15.6837C31.5176 15.6837 31.806 15.7214 32.1356 15.7214C32.5476 15.7214 32.9596 15.7214 33.3716 15.7214C33.4128 15.7214 33.4952 15.7214 33.5364 15.7214C33.8659 15.646 34.1955 15.5329 34.5251 15.4952C35.0607 15.3821 35.6375 15.4198 36.1319 15.0805C36.5851 14.7789 36.8323 14.1003 36.5439 13.6856C36.4615 13.5725 36.3379 13.4971 36.2555 13.384C35.8847 12.9693 35.3491 12.8185 34.8547 12.7808C34.3603 12.7808 33.8659 12.9316 33.3716 13.007C33.1656 13.007 32.9184 13.0824 32.6712 13.0447C32.3416 13.0447 32.0532 12.9316 31.7236 12.8939C31.3528 12.8562 30.982 12.7808 30.6524 12.7431C30.1992 12.6677 29.746 12.5923 29.3752 12.8562C29.2104 12.9693 29.0868 13.1201 28.922 13.2332C28.5512 13.4971 28.3452 13.7987 28.304 14.2888V14.2511ZM20.1466 10.2549C20.435 10.1795 20.641 10.1041 20.8882 10.0664C21.3826 10.0287 21.7122 9.46318 21.5474 9.01078C21.4238 8.67148 21.1354 8.48297 20.847 8.25677C20.4762 7.99287 20.0642 7.95517 19.611 7.99287C19.3638 7.99287 19.0754 8.10597 18.8694 7.99287C18.5398 7.87977 18.2926 8.03057 18.0042 7.99287C17.5923 7.95517 17.1803 8.25677 16.7683 8.06827C16.7271 8.06827 16.6447 8.06827 16.6035 8.06827C16.3975 8.06827 16.1915 8.06827 15.9855 8.10597C15.7383 8.10597 15.4911 8.10597 15.2439 8.10597C14.8319 8.14367 15.0791 8.52067 14.9555 8.67148C14.9143 8.74688 14.8731 8.82228 14.8731 8.93538C14.8731 9.04848 14.8731 9.16158 14.8731 9.23698C15.1203 9.57628 15.4087 9.87788 15.8619 9.95329C16.1915 10.0287 16.5211 10.2172 16.8919 10.1418C17.1391 10.1418 17.3863 10.2549 17.6335 10.2549C18.0454 10.2549 18.4574 10.1795 18.8694 10.1418C19.3226 10.1418 19.7346 10.1418 20.1054 10.1418L20.1466 10.2549Z" fill="#FEFFF7"/>
<path d="M48.903 10.2542C48.903 10.2542 48.903 10.5181 48.903 10.6312C48.903 10.7066 48.903 10.7443 48.903 10.8197C48.8206 11.5737 48.7382 12.29 48.6558 13.044C48.6146 13.5341 48.5322 14.0242 48.4498 14.552C48.4498 14.7405 48.3674 14.8913 48.3262 15.0798C48.3262 15.3437 48.285 15.5699 48.2438 15.8338C48.2438 15.9846 48.2438 16.1731 48.1614 16.3239C48.079 16.4747 48.079 16.5878 48.1614 16.7386C48.2438 16.8517 48.2438 17.0402 48.2438 17.1533C48.2438 17.4549 48.2438 17.7188 48.2438 18.0204C48.2438 18.2466 48.079 18.5105 48.079 18.7367C48.079 19.1137 47.7082 19.4153 47.8318 19.83C47.873 20.0185 47.8318 20.207 47.8318 20.3955C47.7906 20.6217 47.873 20.6971 48.079 20.6971C48.2026 20.6971 48.3262 20.6971 48.3674 20.7348C48.6558 21.0364 49.0266 20.9233 49.315 20.9233C49.727 20.9233 50.139 20.8479 50.551 20.7725C50.6746 20.7725 50.8394 20.584 50.8806 20.4709C51.0042 19.9431 51.4574 19.5661 51.7458 19.1137C51.9106 18.8875 52.0342 18.6236 52.199 18.3974C52.3226 18.2466 52.4462 18.1335 52.5698 17.9827C52.9406 17.568 53.3525 17.1533 53.6821 16.7009C53.9705 16.2862 54.4237 16.1731 54.7945 15.9469C55.0005 15.8338 55.0829 15.7207 55.0417 15.4945C55.0417 15.3437 55.1653 15.1552 55.2065 14.9667C55.2477 14.7405 55.2889 14.552 55.2889 14.3258C55.2889 14.175 55.3301 13.9865 55.3713 13.8357C55.3713 13.421 55.4125 13.044 55.4125 12.6293C55.4125 12.2146 55.4125 11.7999 55.4125 11.3852C55.4125 11.0082 55.4125 10.6312 55.4537 10.2542C55.4537 9.72636 55.4537 9.16085 55.4537 8.63305C55.4537 8.29375 55.5773 7.99214 55.6185 7.65284C55.6597 7.31354 55.7009 6.97424 55.7421 6.63493C55.7833 6.22023 55.8657 5.80553 55.9481 5.42852C56.0717 4.90072 56.4013 4.48602 56.7721 4.10901C56.8957 3.99591 57.1017 3.95821 57.2665 3.95821C57.4313 3.95821 57.5961 3.88281 57.7609 3.88281C58.2553 3.88281 58.6672 4.07131 58.9968 4.44832C59.3264 4.82532 59.6972 5.12692 60.1092 5.46622C60.2328 5.57933 60.4388 5.57933 60.6036 5.61703C60.8096 5.69243 60.9744 5.76783 61.1392 5.88093L61.0568 5.95633C61.0568 6.22023 61.0568 6.48413 61.0568 6.74803C61.0568 7.27584 61.0568 7.80364 61.1392 8.33145C61.1392 8.67075 61.2216 9.04775 61.2628 9.38705C61.2628 9.76406 61.2628 10.1411 61.2628 10.5181C61.2628 10.782 61.2628 11.0836 61.2628 11.3475C61.2628 11.4229 61.2628 11.4983 61.2628 11.5737C61.1804 11.8376 61.0568 12.1392 61.0568 12.4031C61.0568 12.5916 60.9744 12.7424 60.9332 12.8932C60.7684 13.2702 60.6036 13.6472 60.3564 14.0242C60.068 14.4766 59.9032 14.9667 59.8208 15.4568C59.7384 15.8715 59.8208 16.3239 59.9444 16.7386C60.068 17.2287 60.2328 17.6811 60.5212 18.0958C60.8508 18.6236 61.0156 19.2268 61.51 19.6415L61.5924 19.7169C61.6336 20.3578 62.2928 20.584 62.6636 20.961C62.8284 21.1495 63.2404 21.1118 63.5288 21.1872C63.6112 21.1872 63.7347 21.1872 63.8583 21.2249C64.2291 21.2249 64.5587 21.3003 64.9295 21.3003C65.1355 21.3003 65.3003 21.3003 65.5063 21.3003C65.9595 21.3003 66.3715 21.3757 66.8247 21.338C67.2779 21.338 67.7723 21.338 68.1843 21.0741C68.2667 20.9987 68.3491 20.8856 68.3903 20.7725C68.4727 20.6217 68.4315 20.4332 68.5551 20.3201C68.7199 20.0562 68.6787 19.7923 68.5551 19.6038C68.3903 19.2645 68.4727 18.8498 68.1431 18.5859C68.3491 18.3597 67.8135 18.1335 68.1019 17.8696C68.1019 17.8696 68.0195 17.6811 67.9783 17.568C67.8959 17.191 67.8547 16.8517 67.7723 16.4747C67.6899 15.9092 67.6075 15.3437 67.5251 14.7782C67.4427 14.3635 67.3603 13.9865 67.2779 13.5718C67.2367 13.2702 67.1543 12.9309 67.1543 12.6293C67.1543 12.2523 67.1131 11.913 67.1131 11.536C67.1131 11.0836 67.1543 10.6689 67.1543 10.2165C67.1543 10.028 67.0719 9.83946 67.0719 9.65096C67.0719 9.61326 67.0719 9.53785 67.0719 9.50015C67.0719 9.19855 67.1131 8.89695 67.1543 8.59535C67.1543 8.55765 67.1543 8.48225 67.1955 8.44455C67.3191 8.18064 67.4427 7.87904 67.6075 7.65284C67.6487 7.53974 67.8135 7.50204 67.9371 7.42664C68.4315 7.08734 68.967 6.97424 69.5438 7.04964C69.9558 7.08734 70.409 7.01194 70.821 7.01194C71.1094 7.01194 71.3566 7.08734 71.645 7.08734C71.6862 7.08734 71.7274 7.08734 71.8098 7.08734C71.8922 7.08734 71.9746 7.08734 72.057 7.08734C72.057 7.16274 72.0158 7.20044 71.9746 7.27584V7.38894C72.1806 7.53974 72.0982 7.76594 72.1806 7.95444C72.5514 8.74615 72.469 9.57555 72.3454 10.3673C72.3454 10.6689 72.1394 10.8574 72.057 11.0836C71.9746 11.2721 71.9746 11.4983 71.9334 11.6868C71.8922 12.0261 71.8098 12.3277 71.7274 12.667C71.7274 12.7424 71.7274 12.8178 71.7274 12.8932C71.8922 13.3456 72.0158 13.7603 72.1806 14.175C72.5102 14.4389 72.5514 14.8159 72.5514 15.1175C72.5514 15.5322 72.4278 15.9092 72.3454 16.2862C72.3454 16.3993 72.2218 16.4747 72.0982 16.6255C72.3042 16.8517 72.5102 17.0402 72.7162 17.2664C72.7986 17.3418 72.7986 17.4172 72.8398 17.5303C72.9222 17.8696 73.293 18.0958 73.3342 18.4728C73.3754 18.7744 73.293 18.9629 73.087 19.076C72.6338 19.3776 72.469 19.7923 72.469 20.2824C72.469 20.7725 72.469 21.3003 72.469 21.7904C72.469 21.9789 72.469 22.1674 72.469 22.3183C72.4278 22.6199 72.1806 22.7707 71.9334 22.8838C71.7274 22.9969 71.5214 23.0723 71.3566 23.1854C70.9858 23.4116 70.6562 23.7509 70.203 23.9017C69.6674 24.0902 69.173 24.3541 68.5551 24.241C68.3491 24.2033 68.1431 24.241 67.9371 24.241C67.3191 24.241 66.7423 24.241 66.1243 24.241C66.0831 24.241 66.0419 24.241 65.9595 24.2033C65.5887 24.0148 65.1767 23.9771 64.7235 24.0525C64.5587 24.0525 64.3527 24.0525 64.1879 24.0148C63.7347 24.0148 63.2816 24.0148 62.8284 23.9394C62.6636 23.9394 62.4988 23.9017 62.334 23.9017C62.1692 23.9017 62.0044 23.864 61.922 23.9017C61.5512 24.0525 61.2216 23.9394 60.8508 23.9771C60.6036 23.9771 60.3976 24.0148 60.1916 24.0148C59.862 24.0148 59.5736 24.0148 59.244 24.0148C59.1616 24.0148 59.038 24.0902 58.9556 24.1279C58.626 24.1279 58.3376 24.1279 58.0081 24.2033C57.2253 24.3164 56.4013 24.3164 55.6185 24.3164C55.1241 24.3164 54.6709 24.3918 54.1765 24.4295C53.8881 24.4295 53.5585 24.3918 53.2701 24.3918C52.6522 24.3918 51.993 24.4672 51.375 24.4295C50.6746 24.4295 50.0154 24.3541 49.315 24.3164C49.0266 24.3164 48.697 24.3541 48.4086 24.3164C47.9554 24.2033 47.5023 24.0902 47.0903 23.9017C46.5135 23.6001 46.0191 23.1854 45.4835 22.8838C45.2363 22.7707 44.9067 22.733 44.6183 22.733C44.3299 22.733 44.2475 22.6576 44.2063 22.3559C44.2063 22.0543 44.0415 21.7904 44.0003 21.4888C44.0003 21.338 44.0003 21.1872 44.0003 21.0364C43.9179 20.8102 43.8767 20.5463 43.7531 20.3201C43.5471 20.0185 43.5883 19.6792 43.5471 19.3399C43.5471 19.2645 43.5471 19.1891 43.5471 19.1514C43.2587 18.8875 43.4647 18.5482 43.4647 18.2466C43.4235 17.8319 43.4647 17.4172 43.3823 17.0025C43.3823 16.6632 43.3411 16.3239 43.3823 15.9469C43.4235 15.6076 43.3823 15.2683 43.3823 14.929C43.3823 14.7782 43.3823 14.6651 43.3823 14.5143C43.3823 14.0996 43.3823 13.6849 43.3823 13.2702C43.3823 13.1194 43.2175 12.9686 43.1351 12.8178C43.2999 12.6293 43.5471 12.4031 43.6707 12.1769C43.7943 12.0261 43.9591 11.8376 43.8355 11.5737C43.7943 11.4229 43.9179 11.2344 43.9179 11.0459C43.8355 10.5935 43.7531 10.1034 43.3823 9.72636C43.1763 9.50015 43.1351 9.19855 43.0527 8.93465V8.85925C43.4647 8.51995 43.5471 7.95444 44.0827 7.69054C44.4535 7.46434 44.8243 7.35124 45.2775 7.38894C45.4835 7.38894 45.6895 7.38894 45.8955 7.31354C46.1427 7.23814 46.2663 7.31354 46.4723 7.38894C47.0079 7.57744 47.5023 7.72824 48.0378 7.91674C48.1614 7.99214 48.2438 8.18064 48.3262 8.33145C48.4086 8.48225 48.4498 8.63305 48.5734 8.74615C48.7382 8.93465 48.8206 9.04775 48.8206 9.31165C48.8206 9.57556 48.9442 9.87716 48.9854 10.1411H48.903V10.2542ZM59.45 20.4332C59.3264 20.207 59.1616 19.7923 58.9144 19.453C58.626 18.9252 57.9669 18.8875 57.4725 18.6236C57.4725 18.6236 57.3489 18.6236 57.3077 18.6613C57.1429 18.7367 56.9781 18.8875 56.8133 18.8498C56.2777 18.8121 55.9481 19.1137 55.5773 19.3776C55.2889 19.6038 55.3713 20.4709 55.6597 20.6971C55.9069 20.8856 56.0305 21.1495 56.4013 21.1872C56.4425 21.1872 56.4837 21.2626 56.5249 21.2626C56.7309 21.338 56.9369 21.5265 57.1429 21.5265C57.5961 21.5265 58.0493 21.4888 58.5024 21.3757C59.038 21.2626 59.4088 20.9233 59.45 20.3955V20.4332Z" fill="#FEFFF7"/>
<path d="M43.877 39.9987V32.2324H46.0605L50.098 36.9827V32.2324H52.2816V39.9987H50.098L46.0605 35.2484V39.9987H43.877Z" fill="#FEFFF7"/>
<path d="M6.09766 39.9987L7.53963 32.2324H9.72319L11.4536 36.3795L13.2663 32.2324H15.4499L16.7271 39.9987H14.5435L13.9255 35.5123L11.8655 39.9987H11.0004L9.0228 35.5123L8.28121 39.9987H6.09766Z" fill="#FEFFF7"/>
<path d="M22.5781 33.9672H19.9414V35.249H22.4133V36.9455H19.9414V38.2651H22.5781V39.9616H17.7578V32.1953H22.5781V33.8918V33.9672Z" fill="#FEFFF7"/>
<path d="M25.832 32.2324V39.9987H23.6484V32.2324H25.832Z" fill="#FEFFF7"/>
<path d="M30.5693 38.3035H34.1124V40H26.8613L30.8989 33.968H27.5617V32.2715H34.5656L30.5693 38.3035Z" fill="#FEFFF7"/>
<path d="M40.5813 38.7182H37.4914L36.9146 40.0377H34.6074L37.8622 32.2715H40.2517L43.4241 40.0377H41.0757L40.5401 38.7182H40.5813ZM40.0045 37.1725L39.0569 34.6466L38.1094 37.1725H40.0045Z" fill="#FEFFF7"/>
<path d="M61.7166 33.968V40H59.5331V33.968H56.9375V32.2715H64.3122V33.968H61.7166Z" fill="#FEFFF7"/>
<path d="M69.916 33.9672H67.2793V35.249H69.7512V36.9455H67.2793V38.2651H69.916V39.9616H65.0957V32.1953H69.916V33.8918V33.9672Z" fill="#FEFFF7"/>
<path d="M76.5071 38.7182H73.4171L72.8404 40.0377H70.5332L73.7879 32.2715H76.1775L79.3498 40.0377H77.0015L76.4659 38.7182H76.5071ZM75.9303 37.1725L74.9827 34.6466L74.0351 37.1725H75.9303Z" fill="#FEFFF7"/>
</g>
<defs>
<clipPath id="clip0_347_78">
<rect width="85.4472" height="40" fill="white"/>
</clipPath>
</defs>
</svg>
