<svg width="120" height="120" viewBox="0 0 120 120" fill="none" xmlns="http://www.w3.org/2000/svg">
<rect x="0.5" y="0.5" width="119" height="119" rx="59.5" stroke="#D5D933"/>
<circle cx="60" cy="60" r="55" fill="#D5D933"/>
<path d="M35.112 42.6C35.112 43.592 35.304 44.472 35.688 45.24C36.088 45.992 36.64 46.584 37.344 47.016C38.064 47.448 38.904 47.664 39.864 47.664C40.808 47.664 41.632 47.448 42.336 47.016C43.056 46.584 43.608 45.992 43.992 45.24C44.392 44.472 44.592 43.592 44.592 42.6C44.592 41.608 44.4 40.736 44.016 39.984C43.632 39.216 43.088 38.616 42.384 38.184C41.68 37.752 40.84 37.536 39.864 37.536C38.904 37.536 38.064 37.752 37.344 38.184C36.64 38.616 36.088 39.216 35.688 39.984C35.304 40.736 35.112 41.608 35.112 42.6ZM30.816 42.6C30.816 41.304 31.04 40.12 31.488 39.048C31.952 37.976 32.592 37.048 33.408 36.264C34.224 35.48 35.184 34.88 36.288 34.464C37.392 34.032 38.584 33.816 39.864 33.816C41.16 33.816 42.352 34.032 43.44 34.464C44.544 34.88 45.504 35.48 46.32 36.264C47.136 37.048 47.768 37.976 48.216 39.048C48.664 40.12 48.888 41.304 48.888 42.6C48.888 43.896 48.664 45.088 48.216 46.176C47.784 47.264 47.16 48.208 46.344 49.008C45.544 49.808 44.592 50.432 43.488 50.88C42.384 51.312 41.176 51.528 39.864 51.528C38.536 51.528 37.32 51.312 36.216 50.88C35.112 50.432 34.152 49.808 33.336 49.008C32.536 48.208 31.912 47.264 31.464 46.176C31.032 45.088 30.816 43.896 30.816 42.6ZM56.5749 51V47.664H65.0469V51H56.5749ZM56.5749 37.536V34.2H65.0469V37.536H56.5749ZM56.5749 43.8V40.536H64.5669V43.8H56.5749ZM53.8869 34.2H57.7749V51H53.8869V34.2ZM75.0679 42.432L74.0599 51H69.7879L72.4999 33.36L79.6519 43.608L86.8279 33.36L89.5399 51H85.2679L84.2599 42.432L79.6519 49.44L75.0679 42.432Z" fill="#00282E"/>
<path d="M63.8391 93.5413L50.6087 93.5413L50.6087 91.3674L63.8391 91.3674L58.0087 85.537L59.5457 84L68 92.4543L59.5457 100.909L58.0087 99.3717L63.8391 93.5413Z" fill="#00282E"/>
<path d="M27.2423 66.5C27.2423 66.9133 27.3223 67.28 27.4823 67.6C27.649 67.9133 27.879 68.16 28.1723 68.34C28.4723 68.52 28.8223 68.61 29.2223 68.61C29.6156 68.61 29.959 68.52 30.2523 68.34C30.5523 68.16 30.7823 67.9133 30.9423 67.6C31.109 67.28 31.1923 66.9133 31.1923 66.5C31.1923 66.0867 31.1123 65.7233 30.9523 65.41C30.7923 65.09 30.5656 64.84 30.2723 64.66C29.979 64.48 29.629 64.39 29.2223 64.39C28.8223 64.39 28.4723 64.48 28.1723 64.66C27.879 64.84 27.649 65.09 27.4823 65.41C27.3223 65.7233 27.2423 66.0867 27.2423 66.5ZM25.4523 66.5C25.4523 65.96 25.5456 65.4667 25.7323 65.02C25.9256 64.5733 26.1923 64.1867 26.5323 63.86C26.8723 63.5333 27.2723 63.2833 27.7323 63.11C28.1923 62.93 28.689 62.84 29.2223 62.84C29.7623 62.84 30.259 62.93 30.7123 63.11C31.1723 63.2833 31.5723 63.5333 31.9123 63.86C32.2523 64.1867 32.5156 64.5733 32.7023 65.02C32.889 65.4667 32.9823 65.96 32.9823 66.5C32.9823 67.04 32.889 67.5367 32.7023 67.99C32.5223 68.4433 32.2623 68.8367 31.9223 69.17C31.589 69.5033 31.1923 69.7633 30.7323 69.95C30.2723 70.13 29.769 70.22 29.2223 70.22C28.669 70.22 28.1623 70.13 27.7023 69.95C27.2423 69.7633 26.8423 69.5033 26.5023 69.17C26.169 68.8367 25.909 68.4433 25.7223 67.99C25.5423 67.5367 25.4523 67.04 25.4523 66.5ZM36.4052 65.4V70H34.9152V65.4H36.4052ZM37.7352 66.96C37.6552 66.88 37.5685 66.8167 37.4752 66.77C37.3885 66.7233 37.2785 66.7 37.1452 66.7C36.9985 66.7 36.8685 66.74 36.7552 66.82C36.6419 66.9 36.5552 67.0167 36.4952 67.17C36.4352 67.3233 36.4052 67.51 36.4052 67.73L36.0452 67.2C36.0452 66.8333 36.1152 66.5067 36.2552 66.22C36.4019 65.9333 36.5919 65.7067 36.8252 65.54C37.0585 65.3733 37.3019 65.29 37.5552 65.29C37.7219 65.29 37.8819 65.3233 38.0352 65.39C38.1885 65.4567 38.3052 65.55 38.3852 65.67L37.7352 66.96ZM39.9365 63.67C39.9365 63.43 40.0232 63.2367 40.1965 63.09C40.3699 62.9367 40.5765 62.86 40.8165 62.86C41.0632 62.86 41.2699 62.9367 41.4365 63.09C41.6099 63.2367 41.6965 63.43 41.6965 63.67C41.6965 63.91 41.6099 64.1067 41.4365 64.26C41.2699 64.4133 41.0632 64.49 40.8165 64.49C40.5765 64.49 40.3699 64.4133 40.1965 64.26C40.0232 64.1067 39.9365 63.91 39.9365 63.67ZM40.0865 65.4H41.5465V70H40.0865V65.4ZM43.6202 70.33H45.0802C45.1002 70.5167 45.1535 70.6733 45.2402 70.8C45.3335 70.9267 45.4569 71.02 45.6102 71.08C45.7635 71.1467 45.9369 71.18 46.1302 71.18C46.3435 71.18 46.5369 71.13 46.7102 71.03C46.8835 70.9367 47.0202 70.7933 47.1202 70.6C47.2269 70.4133 47.2802 70.18 47.2802 69.9V65.4H48.7302V69.9C48.7302 70.4867 48.6135 70.9633 48.3802 71.33C48.1535 71.6967 47.8502 71.9633 47.4702 72.13C47.0902 72.3033 46.6635 72.39 46.1902 72.39C45.6235 72.39 45.1535 72.3033 44.7802 72.13C44.4135 71.9567 44.1369 71.7133 43.9502 71.4C43.7635 71.0933 43.6535 70.7367 43.6202 70.33ZM43.5202 67.64C43.5202 67.12 43.6235 66.6867 43.8302 66.34C44.0435 65.9933 44.3169 65.7333 44.6502 65.56C44.9835 65.3867 45.3369 65.3 45.7102 65.3C46.0969 65.3 46.4369 65.3933 46.7302 65.58C47.0302 65.76 47.2669 66.0233 47.4402 66.37C47.6135 66.7167 47.7002 67.14 47.7002 67.64C47.7002 68.1333 47.6135 68.5567 47.4402 68.91C47.2669 69.2567 47.0302 69.5233 46.7302 69.71C46.4369 69.89 46.0969 69.98 45.7102 69.98C45.3369 69.98 44.9835 69.8933 44.6502 69.72C44.3169 69.54 44.0435 69.2767 43.8302 68.93C43.6235 68.5833 43.5202 68.1533 43.5202 67.64ZM45.1102 67.64C45.1102 67.8733 45.1602 68.0767 45.2602 68.25C45.3602 68.4167 45.4935 68.5433 45.6602 68.63C45.8269 68.7167 46.0102 68.76 46.2102 68.76C46.3835 68.76 46.5502 68.72 46.7102 68.64C46.8769 68.5533 47.0135 68.4267 47.1202 68.26C47.2269 68.0933 47.2802 67.8867 47.2802 67.64C47.2802 67.4533 47.2469 67.29 47.1802 67.15C47.1202 67.01 47.0369 66.8933 46.9302 66.8C46.8302 66.7067 46.7169 66.6367 46.5902 66.59C46.4635 66.5433 46.3369 66.52 46.2102 66.52C46.0102 66.52 45.8269 66.5633 45.6602 66.65C45.4935 66.7367 45.3602 66.8633 45.2602 67.03C45.1602 67.1967 45.1102 67.4 45.1102 67.64ZM50.8037 63.67C50.8037 63.43 50.8904 63.2367 51.0637 63.09C51.237 62.9367 51.4437 62.86 51.6837 62.86C51.9304 62.86 52.137 62.9367 52.3037 63.09C52.477 63.2367 52.5637 63.43 52.5637 63.67C52.5637 63.91 52.477 64.1067 52.3037 64.26C52.137 64.4133 51.9304 64.49 51.6837 64.49C51.4437 64.49 51.237 64.4133 51.0637 64.26C50.8904 64.1067 50.8037 63.91 50.8037 63.67ZM50.9537 65.4H52.4137V70H50.9537V65.4ZM57.6474 67.2C57.6474 66.9267 57.594 66.7167 57.4874 66.57C57.3874 66.4233 57.2174 66.35 56.9774 66.35C56.8174 66.35 56.6774 66.3833 56.5574 66.45C56.4374 66.5167 56.344 66.6133 56.2774 66.74C56.2107 66.8667 56.1774 67.02 56.1774 67.2V70H54.6574V65.4H56.1774V66.09C56.3107 65.8367 56.4907 65.64 56.7174 65.5C56.9507 65.36 57.2374 65.29 57.5774 65.29C58.1507 65.29 58.5674 65.4433 58.8274 65.75C59.0874 66.0567 59.2174 66.4867 59.2174 67.04V70H57.6474V67.2ZM62.5793 68.56C62.5793 68.68 62.6093 68.7833 62.6693 68.87C62.7293 68.95 62.8093 69.0133 62.9093 69.06C63.0093 69.1 63.1193 69.12 63.2393 69.12C63.4127 69.12 63.5727 69.0833 63.7193 69.01C63.866 68.9367 63.986 68.8267 64.0793 68.68C64.1727 68.5333 64.2193 68.3533 64.2193 68.14L64.3793 68.74C64.3793 69.0333 64.2993 69.2833 64.1393 69.49C63.9793 69.69 63.7727 69.8433 63.5193 69.95C63.266 70.05 62.9927 70.1 62.6993 70.1C62.406 70.1 62.1327 70.0467 61.8793 69.94C61.6327 69.8267 61.4327 69.66 61.2793 69.44C61.1327 69.22 61.0593 68.9533 61.0593 68.64C61.0593 68.2 61.216 67.8533 61.5293 67.6C61.8427 67.34 62.286 67.21 62.8593 67.21C63.1393 67.21 63.3893 67.2367 63.6093 67.29C63.836 67.3433 64.0293 67.41 64.1893 67.49C64.3493 67.57 64.4693 67.6533 64.5493 67.74V68.41C64.3893 68.29 64.2027 68.2 63.9893 68.14C63.7827 68.0733 63.5627 68.04 63.3293 68.04C63.1493 68.04 63.006 68.06 62.8993 68.1C62.7927 68.14 62.7127 68.2 62.6593 68.28C62.606 68.3533 62.5793 68.4467 62.5793 68.56ZM61.9093 66.81L61.3993 65.8C61.6593 65.6733 61.9727 65.5533 62.3393 65.44C62.706 65.3267 63.106 65.27 63.5393 65.27C63.946 65.27 64.3093 65.33 64.6293 65.45C64.9493 65.5633 65.2027 65.73 65.3893 65.95C65.576 66.17 65.6693 66.44 65.6693 66.76V70H64.2193V67.1C64.2193 66.9867 64.1993 66.89 64.1593 66.81C64.126 66.7233 64.0727 66.65 63.9993 66.59C63.926 66.53 63.8327 66.4867 63.7193 66.46C63.6127 66.4333 63.4893 66.42 63.3493 66.42C63.1427 66.42 62.9393 66.4433 62.7393 66.49C62.546 66.5367 62.376 66.5933 62.2293 66.66C62.0827 66.72 61.976 66.77 61.9093 66.81ZM67.8 62.2H69.32V70H67.8V62.2ZM74.9433 64.51V63H80.4833V64.51H78.5533V70H76.8633V64.51H74.9433ZM83.3688 70V68.61H86.8988V70H83.3688ZM83.3688 64.39V63H86.8988V64.39H83.3688ZM83.3688 67V65.64H86.6988V67H83.3688ZM82.2488 63H83.8688V70H82.2488V63ZM90.3742 68.65L90.4942 67.36H93.9642L94.0742 68.65H90.3742ZM92.2042 65.57L91.2242 67.83L91.3042 68.2L90.4342 70H88.5242L92.2042 62.56L95.8942 70H93.9742L93.1342 68.27L93.1942 67.84L92.2042 65.57Z" fill="#00282E"/>
</svg>
