<svg width="190" height="98" viewBox="0 0 190 98" fill="none" xmlns="http://www.w3.org/2000/svg">
<g clip-path="url(#clip0_335_13753)">
<path d="M68.9373 68.6588C68.9373 68.6588 68.2994 68.6588 68.026 68.6588C66.8414 68.6588 65.7478 68.0189 64.5632 68.2017C63.5608 68.3846 62.5583 68.2017 61.6471 68.2017C60.6446 68.2017 59.5511 68.2017 58.731 68.5674C57.5463 69.1159 56.3616 69.0245 55.177 69.2988C54.1745 69.5731 53.081 69.5731 51.9875 69.6645C49.9826 69.8473 47.9778 70.0302 45.973 70.213C45.4262 70.213 44.8795 70.0302 44.3327 69.9387C43.3303 69.9387 42.2367 69.9387 41.1432 69.9387C40.4142 69.9387 39.6852 69.7559 39.0473 69.4816C38.3182 69.2074 37.4981 69.2074 36.769 69.2988C36.1311 69.2988 35.4021 69.0245 34.7642 68.8417C34.3997 68.8417 34.1263 68.7502 33.7618 68.7502C33.1239 68.7502 32.486 68.476 31.8481 68.476C30.6635 68.6588 29.4788 68.5674 28.3852 68.2017C27.7473 68.0189 27.2917 67.3789 26.5627 67.4703C25.9248 67.5617 25.2869 67.6532 24.5579 67.6532C23.7377 67.6532 22.9176 67.5617 22.2797 66.8304C22.0974 66.5561 21.6418 66.5561 21.2772 66.3732C20.0926 65.7333 19.1813 64.7276 18.3611 63.6305C17.6321 62.6249 16.7208 61.8935 15.7184 61.1621C14.8983 60.5222 13.987 60.4307 13.1668 59.9736C12.8934 59.8822 12.6201 59.9736 12.3467 59.9736C11.4354 59.6993 10.7064 58.6023 10.6152 57.5966C10.6152 56.8652 10.2507 56.2253 10.0685 55.5853C9.97734 55.2196 9.88621 54.8539 9.79508 54.3968C9.43057 53.2997 8.42816 52.7512 7.608 52.1112C6.78785 51.4713 5.78544 51.0141 4.87416 50.3742C4.41851 50.0085 3.96287 49.6428 3.59836 49.2771C2.86933 48.6371 3.14272 47.8143 3.14272 46.9915C3.14272 46.2601 3.05159 45.4373 2.96046 44.7059C2.96046 44.1574 2.96046 43.7003 2.96046 43.1517C2.96046 42.6946 2.96046 42.2375 2.96046 41.7804C2.96046 41.1404 2.96046 40.5005 2.96046 39.9519C2.96046 39.8605 2.96046 39.6777 2.96046 39.6777C2.32256 39.1291 2.32257 38.3063 2.23144 37.5749C2.23144 37.2092 2.14031 36.7521 2.04918 36.3864C1.86692 35.655 1.59354 35.0151 1.32015 34.3751C1.32015 34.2837 1.1379 34.1923 1.04677 34.1923C0.317743 33.278 0.317743 31.8153 1.04677 30.8096C1.41128 30.2611 1.59354 29.7125 2.32256 29.3468C2.50482 29.2554 2.59595 28.7069 2.59595 28.3412C2.50482 27.5184 2.23144 26.787 2.14031 25.9642C2.04918 25.4156 2.04918 24.7757 1.95805 24.2271C1.95805 23.8615 1.95805 23.5872 2.14031 23.2215C2.59595 21.9416 2.96046 20.4788 4.50964 20.0217C5.14754 19.8388 5.42093 19.1989 5.51205 18.6503C5.69431 18.0104 5.69431 17.3704 5.87657 16.7304C5.96769 16.3648 6.24108 15.9991 6.42334 15.7248C6.78785 15.1762 7.06123 14.5363 7.42575 13.9877C7.79026 13.4392 8.15477 12.7992 8.61041 12.2507C9.43057 11.2451 10.3419 10.3308 11.2531 9.41659C11.7999 8.86805 12.5289 8.31951 13.1668 7.77097C13.3491 7.67955 13.5313 7.58813 13.7136 7.4967C13.987 7.40528 14.2604 7.40528 14.4426 7.22243C15.2628 6.49105 16.1741 5.94251 17.1765 5.48539C18.1789 5.1197 19.0902 4.47974 20.0926 4.02262C20.9127 3.74835 21.7329 3.65693 22.6442 3.47408C22.7353 3.47408 22.9176 3.47408 23.0087 3.29123C23.4643 3.01697 23.8288 2.7427 24.4667 2.92554C24.7401 3.01697 25.1958 2.92554 25.4691 2.7427C26.6538 2.19416 27.8385 2.7427 29.0231 2.28558C30.1167 1.82846 31.3013 1.37135 32.5771 1.55419C33.1239 1.64562 33.6707 1.37135 34.3086 1.37135C34.6731 1.37135 35.0376 1.37135 35.4021 1.37135C36.3134 1.37135 37.2247 1.1885 38.136 1.1885C38.7739 1.1885 39.4118 1.1885 40.0497 1.1885C40.6876 1.1885 41.3255 1.1885 41.9634 1.1885C42.1456 1.1885 42.419 1.27992 42.6013 1.37135C43.3303 1.46277 44.0593 1.55419 44.7883 1.64562C45.244 1.64562 45.6996 1.73704 46.0641 1.91989C47.3399 2.46843 48.7068 2.19416 49.9826 2.19416C51.1673 2.19416 52.4431 2.01131 53.6278 2.10273C54.9036 2.10273 56.1794 2.10273 57.5463 1.82846C58.4576 1.64562 59.46 1.82846 60.3713 1.82846C61.2825 1.82846 62.1938 1.64562 63.1051 1.64562C63.6519 1.64562 64.2898 1.64562 64.9277 1.64562C65.4744 1.64562 65.9301 1.64562 66.4769 1.64562C67.2059 1.64562 67.8438 1.37135 68.5728 1.64562C68.9373 1.82846 69.393 1.64562 69.8486 1.55419C70.851 1.55419 71.7623 1.46277 72.7647 1.46277C73.676 1.46277 74.5873 1.55419 75.4986 1.55419C76.0453 1.55419 76.6832 1.37135 77.23 1.37135C77.5945 1.37135 77.959 1.37135 78.4147 1.37135C79.5993 1.37135 80.784 1.1885 81.8775 1.37135C82.6066 1.46277 82.9711 1.09708 83.5178 1.00566C83.9735 1.00566 84.4291 0.914232 84.8848 0.822809C85.6138 0.822809 86.4339 0.731386 87.163 0.731386C87.6186 0.731386 88.0743 0.822809 88.4388 0.914232C89.1678 1.09708 89.8057 1.27992 90.5347 1.37135C91.0815 1.37135 91.6283 1.27992 92.175 1.37135C92.7218 1.37135 93.1774 1.37135 93.7242 1.46277C94.5444 1.46277 95.4556 1.73704 96.2758 1.73704C96.7314 1.73704 97.1871 1.55419 97.6427 1.46277C98.4629 1.27992 99.1919 1.00566 100.012 0.822809C101.106 0.639962 102.199 0.548539 103.202 0.365693C103.839 0.27427 104.477 0 105.206 0C106.118 0 106.938 0.0914232 107.849 0.182846C108.396 0.182846 109.034 0.182846 109.581 0.182846C110.036 0.182846 110.492 0.182846 110.947 0.182846C111.585 0.182846 112.314 0.0914232 112.952 0.182846C113.499 0.182846 114.137 0.365693 114.684 0.457116C115.139 0.457116 115.595 0.639962 116.051 0.548539C116.597 0.548539 117.144 0.365693 117.691 0.365693C117.873 0.365693 118.147 0.457116 118.329 0.639962C118.784 0.914232 119.24 1.00566 119.696 0.731386C120.151 0.457116 120.516 0.731386 120.972 0.731386C121.518 0.822809 122.156 0.731386 122.703 0.822809C123.341 0.822809 123.979 0.822809 124.526 0.914232C124.526 0.914232 124.708 0.914232 124.799 0.914232C125.619 0.548539 126.348 0.731386 127.168 0.914232C128.08 1.00566 128.991 0.914232 129.902 0.914232C130.631 0.914232 131.36 0.914232 132.089 0.914232C133.274 1.00566 134.459 1.37135 135.643 1.27992C137.01 1.09708 138.377 1.46277 139.744 1.27992C140.291 1.1885 140.929 1.46277 141.475 1.46277C141.84 1.46277 142.296 1.46277 142.66 1.46277C143.571 1.46277 144.392 1.46277 145.303 1.46277C145.485 1.46277 145.667 1.46277 145.758 1.64562C146.214 1.91989 146.67 2.10273 147.216 1.91989C147.49 1.82846 147.854 1.91989 148.219 1.91989C149.13 1.91989 150.133 2.01131 151.044 2.01131C151.955 2.01131 152.958 2.01131 153.869 2.01131C154.142 2.01131 154.416 2.10273 154.78 2.19416C155.145 2.19416 155.418 2.377 155.783 2.377C156.785 2.377 157.879 2.46843 158.881 2.377C160.066 2.19416 161.159 2.55985 162.344 2.46843C163.073 2.46843 163.62 2.92554 164.166 3.01697C164.895 3.01697 165.351 3.38266 165.989 3.5655C166.809 3.83977 167.629 4.02262 168.449 4.29689C168.905 4.38831 169.452 4.47974 169.999 4.66258C170.91 5.02828 171.821 5.39397 172.824 5.39397C173.735 5.85108 174.646 6.3082 175.557 6.67389C175.831 6.85674 176.195 6.94816 176.469 7.03959C176.924 7.13101 177.471 7.13101 177.836 7.40528C179.02 8.04524 180.023 8.77663 180.752 9.8737C180.843 10.0566 180.934 10.3308 181.025 10.5137C181.025 10.6051 181.025 10.7879 181.025 10.7879C181.663 11.5193 181.936 12.4336 182.301 13.2564C182.483 13.7135 182.665 14.262 182.848 14.8106C183.303 16.0905 183.85 17.4618 184.944 18.3761C185.946 19.1989 186.128 20.2045 186.037 21.4845C186.037 22.8558 186.219 24.2271 186.219 25.5985C186.219 26.5127 186.675 26.8784 187.131 27.3355C187.495 27.7012 187.769 28.1583 188.042 28.6155C187.769 28.6155 188.224 29.5297 188.68 29.6211C189.044 29.6211 189.5 30.0782 189.5 30.4439C189.5 31.0839 189.682 31.6324 189.682 32.2724C189.682 33.0952 189.591 33.918 189.409 34.7408C189.227 35.4722 188.862 36.1122 188.589 36.7521C188.406 37.3007 188.133 37.7578 187.86 38.3063C187.586 38.8549 187.404 39.4948 187.131 40.0434C186.857 40.5919 186.766 41.3233 186.311 41.7804C185.581 42.5118 185.49 43.5174 185.126 44.4317C184.852 45.0716 184.761 45.7116 184.579 46.3516C184.579 46.3516 184.579 46.5344 184.579 46.6258C184.67 47.4486 184.67 48.3629 184.852 49.1857C185.035 50.0999 184.488 50.6484 184.032 51.197C183.759 51.4713 183.759 51.837 183.577 52.2941C183.121 52.4769 182.665 52.5683 182.574 53.3911C182.574 53.6654 182.301 54.0311 182.027 54.214C181.207 55.1282 180.387 55.951 179.567 56.9567C179.202 57.4138 178.929 57.9623 178.656 58.4194C178.656 58.5108 178.565 58.6937 178.473 58.7851C177.015 60.2479 175.649 61.8935 174.099 63.2649C173.279 63.9962 172.277 64.5448 171.183 64.6362C171.001 64.6362 170.91 64.6362 170.728 64.6362C169.907 64.9105 169.178 65.2762 168.358 65.459C167.629 65.6419 166.809 65.7333 166.08 65.9161C165.26 66.099 164.44 66.1904 163.711 66.6475C163.437 66.8304 162.982 66.7389 162.617 66.8304C162.07 66.8304 161.432 66.8304 160.886 67.0132C160.521 67.0132 160.157 67.2875 159.701 67.3789C159.154 67.4703 158.608 67.5617 158.152 67.5617C157.423 67.5617 156.694 67.7446 155.874 67.7446C155.236 67.7446 154.598 67.9274 153.96 67.9274C153.413 67.9274 152.958 67.9274 152.411 67.9274C151.317 67.9274 150.224 67.9274 149.039 67.9274C148.401 67.9274 147.854 67.9274 147.216 67.9274C146.943 67.9274 146.67 67.6532 146.487 67.6532C145.576 67.6532 144.756 67.7446 143.845 67.836C143.571 67.836 143.207 67.836 142.933 67.836C142.296 67.836 141.658 67.836 141.02 67.836C140.838 67.836 140.564 67.9274 140.382 68.0189C139.653 68.1103 138.924 68.2017 138.195 68.2931C137.83 68.2931 137.375 68.2931 137.01 68.2931C135.643 68.2931 134.276 68.3846 133 68.3846C132.089 68.3846 131.087 68.2931 130.176 68.2931C129.811 68.2931 129.446 68.3846 128.991 68.3846C128.444 68.3846 127.806 68.476 127.259 68.476C126.713 68.476 126.166 68.3846 125.619 68.476C124.981 68.476 124.434 68.6588 123.797 68.476C123.25 68.476 122.794 68.476 122.247 68.476C121.609 68.476 120.972 68.476 120.334 68.476C119.696 68.476 119.149 68.3846 118.511 68.2931C118.055 68.2931 117.509 68.2931 117.053 68.2931C115.959 68.2931 114.866 68.2931 113.864 68.2931C113.226 68.2931 112.679 68.5674 112.132 68.5674C111.403 68.476 110.947 68.5674 110.765 69.2988H110.583C109.854 69.3902 109.216 69.5731 108.487 69.5731C107.576 69.5731 106.664 69.2988 105.753 69.1159H105.571C103.931 67.9274 102.108 68.0189 100.285 68.2017C100.012 68.2017 99.6475 68.1103 99.3742 68.2017C98.6451 68.2931 97.9161 68.476 97.1871 68.5674C96.6403 68.5674 96.0935 68.5674 95.5468 68.5674C94.5444 68.5674 93.4508 68.5674 92.4484 68.5674C91.9928 68.5674 91.446 68.5674 90.9904 68.3846C90.5347 68.3846 90.1702 68.2017 89.7146 68.2017C89.0767 68.2017 88.4388 68.0189 87.8009 68.1103C86.7073 68.1103 85.6138 68.3846 84.4291 68.3846C83.7912 68.3846 83.1533 68.2931 82.6066 68.3846C81.3308 68.6588 79.9638 68.3846 78.8703 69.3902C78.5058 69.7559 77.7768 69.7559 77.1389 69.7559C76.4098 69.7559 75.6808 69.7559 74.9518 69.5731C74.2228 69.4816 73.5849 69.1159 72.8558 68.9331C72.2179 68.7502 71.3978 68.2931 70.851 68.3846C70.0309 68.5674 69.2107 67.836 69.2107 67.836L68.9373 68.6588ZM73.2203 6.76532C72.2179 6.94816 70.0309 6.94816 69.9397 6.94816C69.8486 6.94816 68.7551 7.13101 67.7527 7.22243C66.7502 7.31386 66.3857 6.94816 66.2946 6.85674C66.2035 6.76532 63.8341 6.85674 63.014 7.03959C62.1938 7.22243 61.2825 6.49105 61.2825 6.49105C60.0068 6.21678 58.6398 6.12535 57.5463 7.13101C56.9995 7.58813 56.3616 7.4967 55.7237 7.58813C55.0858 7.58813 54.3568 7.58813 53.7189 7.58813C53.081 7.58813 52.4431 7.58813 51.8052 7.58813C50.8939 7.4967 50.0738 7.4967 49.1625 7.58813C48.6157 7.58813 48.1601 7.58813 47.6133 7.58813C47.0665 7.58813 46.6109 7.31386 46.0641 7.22243C45.8819 7.22243 45.1528 7.03959 44.9706 7.03959C43.9682 6.85674 42.9658 6.76532 41.9634 6.67389C41.4166 6.67389 40.7787 6.67389 40.2319 6.67389C39.594 6.67389 38.9561 6.49105 38.3182 6.49105C37.0424 6.49105 35.6755 6.49105 34.3997 6.58247C33.8529 6.58247 33.3062 6.58247 32.7594 6.58247C32.7594 6.58247 30.8457 7.03959 29.661 7.13101C28.4764 7.22243 28.0207 7.4967 27.3828 7.95382C26.7449 8.41093 25.8337 7.77097 25.8337 7.77097C25.4691 7.95382 24.5579 8.86805 24.0111 9.41659C23.6466 9.69086 23.1909 10.148 23.0087 10.0566C22.3708 9.78228 22.1885 10.3308 21.824 10.5137C21.5506 10.6051 21.2772 10.8794 21.095 11.0622C20.5482 11.4279 19.9103 11.7936 19.8192 12.6164C19.8192 13.1649 19.6369 13.8049 19.4547 14.3534C19.3635 14.7191 19.0902 14.9934 18.8168 15.5419C18.1789 15.7248 17.3587 15.8162 16.6297 16.1819C16.1741 16.3648 15.8095 16.7304 15.6273 17.1876C15.3539 17.7361 15.2628 18.3761 15.1716 18.9246C14.8071 20.4788 14.6249 22.1244 13.7136 23.4958C13.7136 23.5872 13.6225 23.77 13.6225 23.8615C13.5313 24.7757 12.8934 25.5071 12.3467 26.147C11.7999 26.787 11.0709 27.0613 10.9797 28.1583C10.9797 29.2554 10.2507 30.3525 11.2531 31.4496C11.2531 31.4496 11.2531 31.6324 11.2531 31.7239C11.162 32.5467 11.162 33.4609 10.8886 34.1923C10.5241 35.2894 10.0685 36.295 10.1596 37.4835C10.1596 37.9406 10.1596 38.3977 10.1596 38.7634C10.1596 39.8605 10.2507 40.9576 10.433 42.0547C10.5241 42.7861 10.8886 43.5174 10.9797 44.2488C11.2531 45.6202 11.6176 46.9001 12.5289 48.0886C12.8023 48.4543 12.8934 49.0028 13.1668 49.4599C13.6225 50.1913 14.5338 50.7399 14.4426 51.837C14.4426 51.837 14.5338 51.9284 14.6249 52.0198C15.8095 53.4826 17.0853 54.9453 18.5434 56.1338C19.0902 56.591 19.6369 57.1395 20.2748 57.3223C20.9127 57.5052 21.3684 57.7795 21.9151 58.2366C22.4619 58.7851 23.0998 59.2422 23.92 59.4251C24.4667 59.5165 25.1046 59.6079 25.5603 59.7908C26.6538 60.4307 27.8385 60.1565 28.932 60.2479C29.9344 60.2479 30.7546 60.8878 30.8457 61.8935C30.8457 62.8077 31.757 63.2649 32.486 62.7163C32.8505 62.5335 33.3062 62.3506 33.7618 62.2592C34.3086 62.1678 34.8554 62.2592 35.4021 62.1678C36.1311 61.8935 36.769 62.1678 37.4069 61.9849C38.136 61.9849 38.7739 61.8021 39.5029 61.7107C39.7763 61.7107 40.0497 61.7107 40.4142 61.7107C40.9609 61.7107 41.8722 61.8935 43.0569 61.9849C44.2416 62.0763 45.1528 62.2592 45.1528 62.2592C45.6996 62.9906 46.702 62.6249 47.5222 62.7163C48.1601 62.7163 48.798 62.6249 49.527 62.6249C50.9851 62.6249 52.352 62.6249 53.81 62.3506C54.0834 62.3506 54.3568 62.3506 54.6302 62.3506C55.5415 62.3506 56.4528 62.5335 57.364 62.5335C58.2753 62.5335 59.2777 62.5335 60.189 62.5335C61.1914 62.5335 62.285 62.5335 63.2874 62.442C63.8341 62.442 64.3809 62.1678 65.0188 62.1678C66.3857 62.1678 67.8438 62.1678 69.2107 62.1678C69.8486 62.1678 70.4865 62.1678 71.1244 62.1678C71.6712 62.1678 72.3091 62.1678 72.8558 62.1678C73.3115 62.1678 73.7671 62.0764 74.2228 62.0764C74.7695 62.0764 75.3163 62.2592 75.8631 62.1678C76.8655 62.1678 77.7768 61.7107 78.7792 61.8935C78.7792 61.8935 78.9614 61.8935 79.0526 61.8935C79.6905 61.8935 80.4195 61.8935 81.0574 61.8935C81.2396 61.8935 81.513 62.0763 81.6041 61.9849C82.7888 61.5278 83.7912 61.9849 84.8848 62.442C85.6138 62.7163 86.1606 63.2649 86.8896 63.4477C87.9831 63.722 88.9855 63.6305 89.988 63.3563C90.5347 63.1734 91.1726 63.1734 91.8105 63.082C92.6307 62.8992 93.4508 62.8992 94.0887 62.442C94.8177 61.9849 95.6379 62.5335 96.3669 62.0764C96.3669 62.0764 96.4581 62.1678 96.5492 62.1678C96.7314 62.1678 97.0048 62.1678 97.1871 62.1678C97.6427 62.0764 98.0984 61.8021 98.4629 61.8021C99.4653 61.8021 100.559 61.8021 101.561 61.8021C102.564 61.8021 103.566 61.8021 104.568 61.9849C106.209 62.1678 107.758 62.3506 109.398 62.5335C110.583 62.6249 111.676 62.8077 112.861 62.8992C113.135 62.8992 113.408 62.8992 113.681 62.8992C114.319 62.8992 114.866 63.082 115.504 63.1734C116.506 63.1734 117.6 63.1734 118.602 63.1734C119.149 63.1734 119.787 63.1734 120.334 63.1734C121.063 63.1734 121.792 63.1734 122.521 63.1734C122.703 63.1734 122.976 63.4477 123.159 63.4477C124.07 63.4477 124.89 63.3563 125.801 63.3563C126.348 63.3563 126.804 63.4477 127.351 63.4477C128.353 63.4477 129.446 63.6305 130.449 63.6305C131.634 63.6305 132.909 63.4477 134.094 63.3563C134.459 63.3563 134.914 63.3563 135.279 63.3563C135.825 63.3563 136.372 63.5391 137.01 63.5391C137.648 63.5391 138.286 63.4477 138.833 63.3563C139.835 63.3563 140.838 63.3563 141.84 63.3563C142.296 63.3563 142.842 63.2649 143.298 63.1734C144.574 63.082 145.85 62.9906 147.125 62.8992C147.763 62.8992 148.31 62.8992 148.948 62.8992C149.495 62.8992 149.95 62.8992 150.497 62.8077C151.408 62.7163 152.229 62.442 153.14 62.3506C154.051 62.2592 154.962 62.1678 155.874 62.0764C156.694 61.9849 157.514 61.8021 158.334 61.6192C158.881 61.5278 159.337 61.2535 159.883 61.0707C160.612 60.8878 161.341 60.705 161.979 60.4307C162.435 60.3393 162.891 60.1565 163.255 59.9736C163.62 59.7908 164.075 59.6993 164.257 59.3337C164.895 58.5108 165.351 57.5966 165.989 56.6824C165.989 56.591 166.171 56.4081 166.353 56.3167C166.9 56.0424 167.447 55.8596 168.085 55.5853C168.358 55.4939 168.54 55.311 168.814 55.311C170.454 55.311 171.912 54.4882 173.37 53.6654C174.464 53.0255 175.284 51.837 176.104 50.8313C176.286 50.6484 176.378 50.3742 176.56 50.0999C176.833 49.5514 177.107 49.0943 177.38 48.5457C177.836 47.5401 178.291 46.443 178.747 45.3459C179.202 44.5231 179.749 43.7003 180.205 42.7861C180.478 42.2375 180.478 41.4147 180.934 41.049C181.663 40.3176 181.298 39.2206 181.845 38.4892C181.845 38.3977 181.845 38.032 181.845 37.8492C181.845 37.5749 181.663 37.3007 181.663 37.0264C181.663 35.655 181.845 34.2837 180.934 33.0952V32.9123C180.934 31.9067 180.661 31.0839 180.205 30.2611C179.932 29.6211 179.658 28.9812 179.658 28.3412C179.658 27.7927 179.476 27.5184 179.294 27.1527C179.02 26.4213 178.838 25.6899 178.382 25.05C178.018 24.5014 178.018 23.8615 177.836 23.3129C177.744 22.8558 177.836 22.2158 178.018 21.7587C178.382 20.7531 178.382 20.2959 177.836 19.8388C176.833 18.9246 175.831 18.0104 174.828 17.0961C174.555 16.8219 174.099 16.3648 173.826 16.4562C173.279 16.639 173.006 16.1819 172.55 15.9991C172.095 15.7248 171.639 15.5419 171.639 14.8106C171.639 14.262 171.457 13.7135 171.365 13.1649C171.365 12.8907 171.365 12.525 171.183 12.3421C170.636 11.7936 170.181 11.1536 169.178 11.1536C168.632 11.1536 168.085 10.5137 167.265 10.4222C166.445 10.4222 165.624 9.8737 164.804 9.59943C164.257 9.41659 163.62 9.23374 163.073 9.0509C162.344 8.77663 161.706 8.50236 160.977 8.22809C160.066 8.6852 159.428 7.77097 158.608 7.67955C157.605 7.67955 156.603 7.03959 155.6 6.76532C155.236 6.67389 154.871 6.67389 154.507 6.67389C153.869 6.67389 153.322 6.67389 152.684 6.67389C151.955 6.67389 151.135 6.85674 150.406 6.94816C149.859 7.03959 149.312 7.22243 148.766 7.31386C148.128 7.31386 147.399 7.31386 146.67 7.40528C145.303 7.4967 143.845 7.67955 142.478 7.77097C141.475 7.77097 140.382 7.67955 139.288 7.4967C137.921 7.31386 136.646 7.03959 135.279 6.85674C135.005 6.85674 134.641 6.85674 134.367 6.85674C133.73 6.85674 133.092 6.67389 132.545 6.58247C131.907 6.58247 131.178 6.39962 130.54 6.39962C129.446 6.39962 128.262 6.39962 127.168 6.39962C127.168 6.39962 127.077 6.39962 126.986 6.39962C126.348 6.49105 125.71 6.58247 125.163 6.67389C124.799 6.67389 124.343 6.67389 123.979 6.67389C123.159 6.67389 122.338 6.58247 121.609 7.03959C121.427 7.13101 121.154 7.13101 120.972 7.22243C120.334 7.22243 119.696 7.31386 119.058 7.40528C118.42 7.4967 117.782 7.77097 117.144 7.77097C116.415 7.77097 115.686 7.77097 114.957 7.77097C114.593 7.77097 114.228 7.8624 113.955 7.8624C113.135 7.8624 112.314 7.8624 111.585 7.77097C111.13 7.77097 110.765 7.77097 110.31 7.77097C109.398 7.58813 108.487 7.40528 107.576 7.22243C107.12 7.13101 106.573 7.22243 106.3 7.22243C105.662 6.85674 105.206 6.85674 104.477 6.76532C103.475 6.76532 102.564 6.39962 101.561 6.21678C100.832 6.12535 100.012 6.21678 99.283 6.03393C98.554 5.85108 97.9161 5.48539 97.096 5.57682C96.1847 5.57682 95.3645 5.57682 94.4532 5.57682C92.9041 5.75966 91.446 6.03393 89.8968 6.21678C89.0767 6.3082 88.1654 6.21678 87.3452 6.21678C85.7961 6.39962 84.1557 6.3082 82.6066 6.39962C80.8751 6.39962 79.2348 5.94251 77.5034 5.57682C77.3211 5.57682 76.9566 5.57682 76.7743 5.66824C76.4098 5.94251 76.3187 6.21678 73.8582 6.58247L73.2203 6.76532ZM57.2729 38.2149C57.2729 38.2149 57.4552 37.6664 57.4552 37.3921C57.4552 36.7521 57.1818 36.1122 57.1818 35.4722C57.1818 34.2837 56.9995 33.0952 56.9995 31.9981C56.9995 30.901 56.9995 29.7125 57.0906 28.6155C57.0906 27.3355 57.2729 25.1414 57.1818 24.7757C57.0906 24.41 56.8173 24.5014 57.1818 23.8615C57.5463 23.2215 57.5463 21.2102 57.5463 19.9303C57.5463 18.8332 57.4552 17.6447 57.2729 16.5476C57.1818 15.7248 56.9084 14.9934 56.7261 14.1706C56.7261 13.9877 56.8173 13.8049 56.7261 13.6221C56.635 13.1649 56.7261 12.8907 57.2729 12.7992C57.5463 12.7992 57.9108 12.525 58.1842 12.3421C59.0955 11.7936 59.5511 10.7879 60.3713 10.2394C60.918 9.8737 62.1027 9.50801 62.4672 9.23374C62.8317 8.95947 63.743 8.41093 65.6567 8.86805C66.568 9.14232 66.2946 8.6852 68.026 9.0509C69.7575 9.41659 71.6712 8.6852 71.8534 9.0509C72.0357 9.41659 74.8607 8.31951 76.6832 8.86805C77.3211 9.0509 77.0477 9.41659 77.8679 9.59943C78.7792 9.78228 79.5993 9.96513 80.5106 10.148C81.3308 10.3308 82.1509 10.148 82.8799 10.5137C83.3356 10.6965 83.8823 10.6965 84.338 11.0622C84.7936 11.6107 85.2493 12.1593 85.7961 12.6164C86.7985 13.4392 86.8896 14.7191 87.4364 15.7248C87.8009 16.4562 87.892 17.279 87.9831 18.1018C88.0743 18.9246 87.9831 19.8388 88.1654 20.6616C88.3476 21.6673 87.9831 22.5815 88.1654 23.5872C88.3476 24.5014 87.7097 25.4156 87.7097 26.5127C87.8009 27.7927 87.3452 29.0726 87.9831 30.2611C87.9831 30.2611 87.9831 30.3525 87.9831 30.4439C87.9831 31.3582 87.9831 32.2724 87.9831 33.278C87.9831 33.7352 87.9831 34.1923 87.9831 34.6494C88.0743 35.3808 88.2565 36.0207 88.3476 36.7521C88.5299 38.1235 88.621 39.4948 88.7122 40.8662C88.8944 42.6032 89.0767 44.3403 89.1678 46.0773C89.1678 46.5344 89.1678 46.9001 89.1678 47.3572C89.1678 47.9058 89.35 48.5457 89.35 49.0943C89.35 49.8256 89.3501 50.557 89.1678 51.3798C88.9855 53.0255 88.7122 54.6711 87.6186 56.0424C87.4364 56.2253 87.4364 56.4995 87.2541 56.591C86.7073 56.9567 86.1606 57.2309 85.6138 57.5966C84.8848 58.0537 84.1557 58.4194 83.4267 58.6937C83.0622 58.7851 82.7888 59.1508 82.5154 59.2422C81.9687 59.5165 81.4219 59.6079 80.9662 59.8822C80.4195 60.1565 80.055 60.1565 79.5082 59.8822C79.3259 59.7908 79.1437 59.8822 78.9614 59.8822C78.4147 59.8822 77.8679 59.4251 77.8679 58.7851C77.8679 58.2366 77.8679 57.5966 77.8679 57.0481C77.8679 56.7738 77.8679 56.4081 77.8679 56.1338C77.8679 55.7682 77.8679 55.311 77.7768 55.0368C77.23 53.9397 77.7768 53.0255 78.0501 52.1112C78.3235 51.0141 79.1437 50.0085 79.8727 49.0028C80.784 47.6315 80.8751 46.9001 79.3259 45.803C78.9614 45.5288 78.5969 45.3459 78.1413 45.3459C77.6856 45.3459 77.1389 44.9802 76.5921 45.0716C76.3187 45.0716 75.9542 45.2545 75.6808 45.3459C74.7695 45.6202 73.8582 45.803 72.947 46.0773C72.5825 46.1687 72.2179 46.6258 71.8534 46.0773C71.8534 46.0773 71.58 46.0773 71.4889 46.0773C71.3067 46.0773 71.1244 46.0773 70.851 46.0773C70.6688 46.0773 70.5776 46.0773 70.3954 46.0773H69.6663C69.6663 46.0773 69.393 46.0773 69.3018 46.0773C68.6639 46.0773 68.026 46.0773 67.4793 46.0773C66.9325 46.0773 66.2946 46.0773 65.7478 46.0773C65.1099 46.0773 64.3809 46.2601 63.743 46.3516C63.5608 46.3516 63.3785 46.3516 63.1962 46.5344C62.0116 47.4486 61.9204 49.0028 60.918 50.0085C61.1003 50.6484 60.7358 51.1056 60.3713 51.4713C59.0955 52.7512 57.8197 54.0311 56.5439 55.311C56.4527 55.4025 56.1794 55.5853 56.0882 55.5853C55.4503 55.311 55.177 55.8596 54.8124 56.1338C54.2657 56.4995 53.6278 57.3223 53.2633 57.2309C52.2609 56.9566 49.7093 58.4194 49.0714 58.6023C48.1601 58.8765 47.3399 59.2422 46.5198 59.6079C46.5198 59.6079 46.3375 59.6079 46.2464 59.6079C45.244 59.5165 44.9706 60.1565 44.1504 60.5222C43.3303 60.8878 41.7811 60.2479 41.7811 60.2479L41.5988 59.8822C41.5988 59.8822 41.5988 59.2422 41.5988 59.0594C41.5988 58.8765 41.5988 58.1452 41.5988 58.1452C41.5988 57.4138 41.5988 56.7738 41.5988 56.1338C41.5988 55.6767 41.7811 54.9453 42.0545 54.8539C43.0569 54.4882 43.6037 53.574 44.7883 53.4826C45.7907 53.4826 46.702 52.934 47.7044 52.5683C48.6157 52.2026 49.6181 52.0198 50.3472 51.4713C51.3496 50.557 52.1697 49.2771 52.9899 48.18M52.352 43.1517C52.352 44.6145 49.8915 45.2545 49.8915 45.2545C48.6157 44.7974 49.3447 45.9859 48.1601 46.9001C47.7956 47.1744 47.4311 47.6315 47.0665 47.9058C45.8819 48.7286 45.1528 50.1913 43.5125 50.3742C42.6924 50.4656 41.7811 50.7399 40.9609 50.9227C40.1408 51.1056 39.2295 50.7399 38.5916 51.4713C38.5916 51.4713 38.3182 51.4713 38.2271 51.4713C37.7715 51.5627 37.3158 51.7455 36.9513 51.837C36.769 51.837 36.4957 51.9284 36.4045 51.837C35.8578 51.3798 35.311 50.8313 34.7642 50.3742C34.1263 49.8256 33.6707 49.0943 32.9417 48.6371C32.2126 48.18 31.2102 48.0886 30.3901 47.8143C29.4788 47.4486 28.4764 47.0829 27.5651 46.8087C27.2917 46.7173 26.9272 46.8087 26.7449 46.6258C26.107 46.2601 25.9248 45.803 26.107 44.7059C26.1982 43.7917 26.3804 42.8775 26.3804 41.9632C26.3804 41.2319 26.2893 40.4091 26.1982 39.6777C26.1982 38.672 26.107 37.7578 26.107 36.7521C26.107 36.2036 26.2893 35.655 26.3804 35.1979C26.4716 34.558 26.7449 33.918 26.7449 33.3695C26.7449 32.4552 26.1982 31.8153 25.4691 31.3582C25.0135 31.0839 24.7401 30.7182 24.3756 30.2611C24.2845 30.0782 24.3756 29.804 24.1933 29.7125C23.92 29.2554 23.5554 28.7983 23.1909 28.3412C23.2821 27.9755 23.1909 27.7012 23.1909 27.427C23.1909 26.8784 23.0087 26.2385 23.1909 25.7813C23.8288 24.7757 23.92 23.5872 24.1933 22.4901C24.2845 22.1244 24.1022 21.5759 24.2845 21.3016C24.9224 20.4788 24.7401 19.656 24.5579 18.8332C24.3756 18.1018 24.3756 17.1876 23.7377 16.639C23.2821 16.2733 22.553 15.4505 22.4619 14.8106C22.4619 14.1706 22.9176 13.6221 23.2821 13.1649C24.1933 11.9764 24.9224 12.1593 26.2893 12.1593C26.6538 12.1593 27.6562 11.6107 28.1119 11.4279C28.5675 11.2451 29.2965 11.7022 30.0256 11.4279C31.6659 10.7879 32.5771 11.4279 32.6683 11.6107C32.7594 11.7936 32.8505 11.9764 32.9417 12.0679C33.6707 12.7992 34.3086 13.4392 35.4021 13.8963C36.4957 14.262 37.4981 14.7191 38.6827 14.8106C39.0473 14.8106 39.5029 14.7191 39.8674 14.8106C40.7787 15.1763 41.5077 14.902 42.3279 14.6277C42.7835 14.4449 43.4214 14.3534 43.9682 14.1706C44.3327 13.9877 44.2416 13.8049 44.6972 13.8049C44.9706 13.8049 45.4262 13.6221 45.6996 13.5306C45.973 13.4392 46.2464 13.1649 46.5198 13.0735C47.4311 12.7992 48.3423 12.3421 49.2536 12.0679C50.256 11.7936 51.1673 12.0679 52.0786 11.885C52.4431 11.885 52.8988 11.885 53.2633 12.0679C53.6278 12.1593 54.0834 12.4336 54.1745 12.6164C54.3568 13.2564 54.3568 13.9877 54.3568 14.6277C54.3568 15.0848 54.3568 15.4505 54.3568 15.9076C54.2657 17.5533 53.9923 19.1989 53.9923 20.8445C53.9923 22.033 53.9923 23.2215 53.9923 24.41C53.9923 26.147 54.0834 27.8841 53.81 29.6211C53.81 29.6211 53.81 29.7125 53.81 29.804C53.9012 30.2611 54.0834 30.7182 54.1745 31.1753C54.2657 31.9981 53.7189 33.5523 53.9923 34.2837C54.3568 35.2894 53.2633 35.8379 53.9012 36.6607C54.0834 37.0264 51.9875 41.7804 51.9875 43.2432L52.352 43.1517ZM34.4908 38.672C34.6731 39.312 34.7642 39.9519 34.9465 40.5919C35.5844 42.1461 37.4069 43.2432 39.0473 43.1517C39.9585 43.1517 41.7811 42.9689 42.0545 42.7861C42.8746 42.3289 43.7859 42.0547 44.5149 42.0547C45.6996 42.1461 46.7932 39.8605 46.9754 39.312C47.2488 38.3977 48.2512 37.7578 48.5246 36.8436C48.5246 35.655 48.7068 34.558 48.6157 33.5523C48.6157 32.8209 48.1601 32.181 47.7956 31.541C47.7044 31.3582 47.1577 31.3582 46.8843 31.2667C45.7907 30.6268 44.5149 30.9925 43.3303 30.9925C42.2367 30.9925 41.0521 31.3582 39.9585 31.6324C39.0473 31.8153 38.136 31.9981 37.2247 32.181C36.4957 32.3638 35.6755 32.5467 34.9465 32.8209C34.4908 33.0038 33.7618 33.3695 33.6707 33.7352C33.5796 34.4665 33.6707 35.3808 34.0352 36.0207C34.4908 36.935 34.3997 37.8492 34.4908 38.7634V38.672ZM81.6953 19.3817C81.6953 19.3817 81.513 18.9246 81.4219 18.8332C80.8751 18.1932 80.4195 17.3704 79.6905 17.0047C78.3235 16.2733 77.7768 14.902 76.1365 14.7191C75.4986 14.7191 74.9518 14.5363 74.405 14.1706C74.2228 14.0792 73.3115 14.1706 72.947 13.9877C72.5825 13.8049 71.4889 13.9877 70.6688 13.8963C69.3018 13.7135 68.2083 14.4449 67.3881 15.5419C66.4769 16.8219 65.2922 17.8275 64.8365 19.3817C64.5632 20.2959 64.472 21.393 65.2922 22.033C66.2035 22.7644 67.3881 22.9472 68.4817 23.0386C69.7575 23.0386 71.1244 23.0386 72.4002 23.0386C73.5849 23.0386 74.6784 23.1301 75.8631 23.0386C77.23 22.8558 78.5969 23.0386 79.8727 22.673C80.2372 22.5815 80.6017 22.3073 80.784 22.033C81.1485 21.2102 81.3308 20.2959 81.513 19.4731L81.6953 19.3817ZM63.1962 34.9237C63.1962 34.9237 63.1962 35.2894 63.2874 35.5636C63.4696 36.4779 64.2898 36.7521 64.7454 37.3007C65.1099 37.6664 65.6567 37.8492 66.2035 37.9406C67.3881 38.1235 68.5728 38.2149 69.6663 38.3977C70.3042 38.3977 70.9421 38.4892 71.6712 38.4892C72.5825 38.4892 73.4937 38.4892 74.405 38.4892C74.4961 38.4892 74.6784 38.4892 74.7695 38.4892C75.4986 38.3063 76.2276 38.0321 76.9566 37.9406C78.1413 37.6664 79.4171 37.7578 80.5106 36.935C81.513 36.2036 82.0598 34.558 81.4219 33.5523C81.2396 33.278 80.9663 33.0952 80.784 32.8209C79.9638 31.8153 78.7792 31.4496 77.6856 31.3582C76.5921 31.3582 75.4986 31.7239 74.405 31.9067C73.9494 31.9067 73.4026 32.0895 72.8558 31.9981C72.1268 31.9981 71.4889 31.7239 70.7599 31.6324C69.9397 31.541 69.1196 31.3582 68.3905 31.2667C67.3881 31.0839 66.3857 30.901 65.5656 31.541C65.2011 31.8153 64.9277 32.181 64.5632 32.4552C63.743 33.0952 63.2874 33.8266 63.1962 35.0151V34.9237ZM45.1528 25.2328C45.7907 25.05 46.2464 24.8671 46.7932 24.7757C47.8867 24.6843 48.6157 23.3129 48.2512 22.2158C47.9778 21.393 47.3399 20.9359 46.702 20.3874C45.8819 19.7474 44.9706 19.656 43.9682 19.7474C43.4214 19.7474 42.7835 20.0217 42.3279 19.7474C41.5988 19.4731 41.0521 19.8388 40.4142 19.7474C39.5029 19.656 38.5916 20.3874 37.6803 19.9303C37.5892 19.9303 37.4069 19.9303 37.3158 19.9303C36.8602 19.9303 36.4045 19.9303 35.9489 20.0217C35.4021 20.0217 34.8554 20.0217 34.3086 20.0217C33.3973 20.1131 33.9441 21.0273 33.6707 21.393C33.5796 21.5759 33.4884 21.7587 33.4884 22.033C33.4884 22.3073 33.4884 22.5815 33.4884 22.7644C34.0352 23.5872 34.6731 24.3186 35.6755 24.5014C36.4045 24.6843 37.1336 25.1414 37.9537 24.9585C38.5005 24.9585 39.0473 25.2328 39.594 25.2328C40.5053 25.2328 41.4166 25.05 42.3279 24.9585C43.3303 24.9585 44.2416 24.9585 45.0617 24.9585L45.1528 25.2328Z" fill="#FEFFF7"/>
<path d="M108.761 25.2327C108.761 25.2327 108.761 25.8727 108.761 26.147C108.761 26.3298 108.761 26.4212 108.761 26.6041C108.578 28.4326 108.396 30.1696 108.214 31.9981C108.123 33.1866 107.94 34.3751 107.758 35.655C107.758 36.1121 107.576 36.4778 107.485 36.9349C107.485 37.5749 107.394 38.1234 107.302 38.7634C107.302 39.1291 107.302 39.5862 107.12 39.9519C106.938 40.3176 106.938 40.5918 107.12 40.9575C107.302 41.2318 107.302 41.6889 107.302 41.9632C107.302 42.6946 107.302 43.3345 107.302 44.0659C107.302 44.6145 106.938 45.2544 106.938 45.803C106.938 46.7172 106.118 47.4486 106.391 48.4542C106.482 48.9114 106.391 49.3685 106.391 49.8256C106.3 50.3741 106.482 50.557 106.938 50.557C107.211 50.557 107.485 50.557 107.576 50.6484C108.214 51.3798 109.034 51.1055 109.672 51.1055C110.583 51.1055 111.494 50.9227 112.406 50.7398C112.679 50.7398 113.044 50.2827 113.135 50.0084C113.408 48.7285 114.41 47.8143 115.048 46.7172C115.413 46.1687 115.686 45.5287 116.051 44.9802C116.324 44.6145 116.598 44.3402 116.871 43.9745C117.691 42.9688 118.602 41.9632 119.331 40.8661C119.969 39.8605 120.972 39.5862 121.792 39.0376C122.248 38.7634 122.43 38.4891 122.339 37.9406C122.339 37.5749 122.612 37.1178 122.703 36.6606C122.794 36.1121 122.885 35.655 122.885 35.1064C122.885 34.7408 122.977 34.2836 123.068 33.9179C123.068 32.9123 123.159 31.9981 123.159 30.9924C123.159 29.9867 123.159 28.9811 123.159 27.9754C123.159 27.0612 123.159 26.147 123.25 25.2327C123.25 23.9528 123.25 22.5815 123.25 21.3015C123.25 20.4787 123.523 19.7474 123.614 18.9245C123.706 18.1017 123.797 17.2789 123.888 16.4561C123.979 15.4505 124.161 14.4448 124.343 13.5306C124.617 12.2507 125.346 11.245 126.166 10.3308C126.439 10.0565 126.895 9.96507 127.26 9.96507C127.624 9.96507 127.989 9.78223 128.353 9.78223C129.447 9.78223 130.358 10.2393 131.087 11.1536C131.816 12.0678 132.636 12.7992 133.547 13.622C133.821 13.8963 134.276 13.8963 134.641 13.9877C135.097 14.1705 135.461 14.3534 135.826 14.6277L135.643 14.8105C135.643 15.4505 135.643 16.0904 135.643 16.7304C135.643 18.0103 135.643 19.2902 135.826 20.5702C135.826 21.393 136.008 22.3072 136.099 23.13C136.099 24.0442 136.099 24.9585 136.099 25.8727C136.099 26.5127 136.099 27.2441 136.099 27.884C136.099 28.0669 136.099 28.2497 136.099 28.4326C135.917 29.0725 135.643 29.8039 135.643 30.4439C135.643 30.901 135.461 31.2667 135.37 31.6324C135.005 32.5466 134.641 33.4608 134.094 34.3751C133.456 35.4721 133.092 36.6606 132.91 37.8491C132.727 38.8548 132.91 39.9519 133.183 40.9575C133.456 42.146 133.821 43.2431 134.459 44.2488C135.188 45.5287 135.552 46.9915 136.646 47.9971L136.828 48.18C136.919 49.7342 138.377 50.2827 139.197 51.1969C139.562 51.654 140.473 51.5626 141.111 51.7455C141.293 51.7455 141.567 51.7455 141.84 51.8369C142.66 51.8369 143.389 52.0197 144.209 52.0197C144.665 52.0197 145.03 52.0197 145.485 52.0197C146.488 52.0197 147.399 52.2026 148.401 52.1112C149.404 52.1112 150.497 52.1112 151.409 51.4712C151.591 51.2884 151.773 51.0141 151.864 50.7398C152.046 50.3741 151.955 49.917 152.229 49.6427C152.593 49.0028 152.502 48.3628 152.229 47.9057C151.864 47.0829 152.046 46.0772 151.317 45.4373C151.773 44.8887 150.588 44.3402 151.226 43.7002C151.226 43.7002 151.044 43.2431 150.953 42.9688C150.771 42.0546 150.68 41.2318 150.497 40.3176C150.315 38.9462 150.133 37.5749 149.95 36.2035C149.768 35.1979 149.586 34.2836 149.404 33.278C149.313 32.5466 149.13 31.7238 149.13 30.9924C149.13 30.0782 149.039 29.2554 149.039 28.3411C149.039 27.2441 149.13 26.2384 149.13 25.1413C149.13 24.6842 148.948 24.2271 148.948 23.77C148.948 23.6786 148.948 23.4957 148.948 23.4043C148.948 22.6729 149.039 21.9415 149.13 21.2101C149.13 21.1187 149.13 20.9359 149.221 20.8444C149.495 20.2045 149.768 19.4731 150.133 18.9245C150.224 18.6503 150.588 18.5589 150.862 18.376C151.955 17.5532 153.14 17.2789 154.416 17.4618C155.327 17.5532 156.329 17.3704 157.241 17.3704C157.879 17.3704 158.425 17.5532 159.063 17.5532C159.154 17.5532 159.246 17.5532 159.428 17.5532C159.61 17.5532 159.792 17.5532 159.975 17.5532C159.975 17.736 159.883 17.8275 159.792 18.0103V18.2846C160.248 18.6503 160.066 19.1988 160.248 19.6559C161.068 21.5758 160.886 23.5871 160.612 25.507C160.612 26.2384 160.157 26.6955 159.975 27.2441C159.792 27.7012 159.792 28.2497 159.701 28.7068C159.61 29.5296 159.428 30.261 159.246 31.0838C159.246 31.2667 159.246 31.4495 159.246 31.6324C159.61 32.7294 159.883 33.7351 160.248 34.7408C160.977 35.3807 161.068 36.295 161.068 37.0263C161.068 38.032 160.795 38.9462 160.612 39.8605C160.612 40.1347 160.339 40.3176 160.066 40.6833C160.521 41.2318 160.977 41.6889 161.433 42.2375C161.615 42.4203 161.615 42.6032 161.706 42.8774C161.888 43.7002 162.708 44.2488 162.8 45.163C162.891 45.8944 162.708 46.3515 162.253 46.6258C161.25 47.3572 160.886 48.3628 160.886 49.5513C160.886 50.7398 160.886 52.0197 160.886 53.2082C160.886 53.6654 160.886 54.1225 160.886 54.4882C160.795 55.2196 160.248 55.5852 159.701 55.8595C159.246 56.1338 158.79 56.3166 158.425 56.5909C157.605 57.1394 156.876 57.9622 155.874 58.3279C154.689 58.7851 153.596 59.425 152.229 59.1507C151.773 59.0593 151.317 59.1507 150.862 59.1507C149.495 59.1507 148.219 59.1507 146.852 59.1507C146.761 59.1507 146.67 59.1507 146.488 59.0593C145.667 58.6022 144.756 58.5108 143.754 58.6936C143.389 58.6936 142.934 58.6936 142.569 58.6022C141.567 58.6022 140.564 58.6022 139.562 58.4194C139.197 58.4194 138.833 58.3279 138.468 58.3279C138.104 58.3279 137.739 58.2365 137.557 58.3279C136.737 58.6936 136.008 58.4194 135.188 58.5108C134.641 58.5108 134.185 58.6022 133.73 58.6022C133.001 58.6022 132.363 58.6022 131.634 58.6022C131.451 58.6022 131.178 58.7851 130.996 58.8765C130.267 58.8765 129.629 58.8765 128.9 59.0593C127.168 59.3336 125.346 59.3336 123.614 59.3336C122.521 59.3336 121.518 59.5164 120.425 59.6079C119.787 59.6079 119.058 59.5164 118.42 59.5164C117.053 59.5164 115.595 59.6993 114.228 59.6079C112.679 59.6079 111.221 59.425 109.672 59.3336C109.034 59.3336 108.305 59.425 107.667 59.3336C106.665 59.0593 105.662 58.7851 104.751 58.3279C103.475 57.5966 102.382 56.5909 101.197 55.8595C100.65 55.5852 99.9211 55.4938 99.2832 55.4938C98.6453 55.4938 98.463 55.311 98.3719 54.5796C98.3719 53.8482 98.0074 53.2082 97.9163 52.4769C97.9163 52.1112 97.9163 51.7455 97.9163 51.3798C97.734 50.8312 97.6429 50.1913 97.3695 49.6427C96.9139 48.9113 97.005 48.0885 96.9139 47.2657C96.9139 47.0829 96.9139 46.9 96.9139 46.8086C96.276 46.1687 96.7316 45.3458 96.7316 44.6145C96.6405 43.6088 96.7316 42.6032 96.5493 41.5975C96.5493 40.7747 96.4582 39.9519 96.5493 39.0376C96.6405 38.2148 96.5493 37.392 96.5493 36.5692C96.5493 36.2035 96.5493 35.9293 96.5493 35.5636C96.5493 34.5579 96.5493 33.5523 96.5493 32.5466C96.5493 32.1809 96.1848 31.8152 96.0026 31.4495C96.3671 30.9924 96.9139 30.4439 97.1872 29.8953C97.4606 29.5296 97.8251 29.0725 97.5518 28.4326C97.4606 28.0669 97.734 27.6097 97.734 27.1526C97.5517 26.0556 97.3695 24.8671 96.5493 23.9528C96.0937 23.4043 96.0026 22.6729 95.8203 22.0329V21.8501C96.7316 21.0273 96.9139 19.6559 98.0985 19.016C98.9187 18.4674 99.7388 18.1932 100.741 18.2846C101.197 18.2846 101.653 18.2846 102.108 18.1017C102.655 17.9189 102.928 18.1017 103.384 18.2846C104.569 18.7417 105.662 19.1074 106.847 19.5645C107.12 19.7474 107.302 20.2045 107.485 20.5702C107.667 20.9359 107.758 21.3015 108.031 21.5758C108.396 22.0329 108.578 22.3072 108.578 22.9472C108.578 23.5871 108.852 24.3185 108.943 24.9585H108.761V25.2327ZM132.089 49.917C131.816 49.3685 131.451 48.3628 130.905 47.54C130.267 46.2601 128.809 46.1687 127.715 45.5287C127.715 45.5287 127.442 45.5287 127.351 45.6201C126.986 45.803 126.622 46.1687 126.257 46.0772C125.072 45.9858 124.343 46.7172 123.523 47.3572C122.885 47.9057 123.068 50.0084 123.706 50.557C124.252 51.0141 124.526 51.654 125.346 51.7455C125.437 51.7455 125.528 51.9283 125.619 51.9283C126.075 52.1112 126.531 52.5683 126.986 52.5683C127.989 52.5683 128.991 52.4769 129.993 52.2026C131.178 51.9283 131.998 51.1055 132.089 49.8256V49.917Z" fill="#FEFFF7"/>
<path d="M97.6426 97.1379V78.3047H102.472L111.403 89.824V78.3047H116.233V97.1379H111.403L102.472 85.6185V97.1379H97.6426Z" fill="#FEFFF7"/>
<path d="M14.0781 97.1379L17.2676 78.3047H22.0974L25.9248 88.3612L29.9344 78.3047H34.7642L37.5892 97.1379H32.7594L31.3925 86.2585L26.8361 97.1379H24.9224L20.5482 86.2585L18.9079 97.1379H14.0781Z" fill="#FEFFF7"/>
<path d="M50.5292 82.5098H44.697V85.6182H50.1647V89.7322H44.697V92.932H50.5292V97.0461H39.8672V78.2129H50.5292V82.3269V82.5098Z" fill="#FEFFF7"/>
<path d="M57.7282 78.3047V97.1379H52.8984V78.3047H57.7282Z" fill="#FEFFF7"/>
<path d="M68.2074 93.0232H76.0444V97.1373H60.0059L68.9364 82.5095H61.555V78.3955H77.0468L68.2074 93.0232Z" fill="#FEFFF7"/>
<path d="M90.3523 94.0289H83.5177L82.2419 97.2287H77.1387L84.3378 78.3955H89.6233L96.6401 97.2287H91.4458L90.2611 94.0289H90.3523ZM89.0765 90.2805L86.9805 84.1552L84.8846 90.2805H89.0765Z" fill="#FEFFF7"/>
<path d="M137.102 82.5095V97.1373H132.272V82.5095H126.531V78.3955H142.843V82.5095H137.102Z" fill="#FEFFF7"/>
<path d="M155.236 82.5098H149.404V85.6182H154.872V89.7322H149.404V92.932H155.236V97.0461H144.574V78.2129H155.236V82.3269V82.5098Z" fill="#FEFFF7"/>
<path d="M169.817 94.0289H162.982L161.707 97.2287H156.604L163.803 78.3955H169.088L176.105 97.2287H170.911L169.726 94.0289H169.817ZM168.541 90.2805L166.445 84.1552L164.349 90.2805H168.541Z" fill="#FEFFF7"/>
</g>
<defs>
<clipPath id="clip0_335_13753">
<rect width="189.182" height="97.229" fill="white" transform="translate(0.5)"/>
</clipPath>
</defs>
</svg>
