<svg width="36" height="36" viewBox="0 0 36 36" fill="none" xmlns="http://www.w3.org/2000/svg">
<g clip-path="url(#clip0_660_9341)">
<path d="M18.0043 36C8.07533 36 0 27.9247 0 18.0043C0 8.08391 8.07533 0 18.0043 0C27.9333 0 36.0086 8.07533 36.0086 18.0043C36.0086 27.9333 27.9333 36.0086 18.0043 36.0086V36ZM18.0043 1.39023C8.83909 1.39023 1.39023 8.83909 1.39023 18.0043C1.39023 27.1695 8.83909 34.6184 18.0043 34.6184C27.1695 34.6184 34.6184 27.1695 34.6184 18.0043C34.6184 8.83909 27.1609 1.39023 18.0043 1.39023Z" fill="#00282E"/>
<path d="M18.1492 29.5722C18.0291 29.5722 17.9175 29.5293 17.8231 29.4349L6.55544 18.1672C6.40097 18.0127 6.37523 17.7724 6.49537 17.5922C6.57261 17.4721 8.4434 14.6401 11.5414 11.5336C14.6394 8.42701 17.4799 6.56479 17.6 6.48756C17.7802 6.36742 18.0205 6.39316 18.175 6.54763L29.4427 17.8153C29.5972 17.9698 29.6229 18.2101 29.5028 18.3903C29.4255 18.5104 27.5547 21.3424 24.4568 24.4489C21.3588 27.5469 18.5183 29.4177 18.3981 29.4949C18.3209 29.5464 18.2351 29.5722 18.1492 29.5722ZM7.47368 17.7982L18.2007 28.5252C19.016 27.9588 21.3502 26.2597 23.8045 23.8053C26.2589 21.351 27.9581 19.0168 28.5245 18.2015L17.7974 7.47445C16.9821 8.04084 14.6479 9.74 12.1936 12.1944C9.73923 14.6487 8.04007 16.9829 7.47368 17.7982Z" fill="#00282E"/>
<path d="M29.1159 18.6052C28.9957 18.6052 28.8842 18.5623 28.7898 18.4679L17.5221 7.20023C17.4363 7.11442 17.3848 6.99427 17.3848 6.87413C17.3848 6.75399 17.4363 6.63384 17.5221 6.54803L20.1738 3.8963C20.3025 3.76757 20.4827 3.73325 20.6458 3.79332C20.8088 3.85339 20.929 3.99928 20.9461 4.17949L21.1693 6.35923L23.349 6.58235C23.5635 6.6081 23.7352 6.77115 23.7523 6.98569L23.9755 9.16543L26.1552 9.38855C26.3697 9.4143 26.5414 9.57735 26.5585 9.79189L26.7817 11.9716L28.9614 12.1947C29.1759 12.2205 29.3476 12.3835 29.3647 12.5981L29.5879 14.7778L31.7676 15.0009C31.9392 15.0181 32.0937 15.1383 32.1538 15.3013C32.2138 15.4644 32.1709 15.6532 32.0422 15.7733L29.3905 18.425C29.3047 18.5108 29.1845 18.5623 29.0644 18.5623L29.1159 18.6052ZM18.5004 6.88271L29.1159 17.4982L30.7635 15.8505L29.1674 15.6875C28.9528 15.6617 28.7812 15.4987 28.764 15.2841L28.5409 13.1044L26.3612 12.8813C26.1466 12.8555 25.975 12.6925 25.9578 12.4779L25.7347 10.2982L23.555 10.0751C23.3404 10.0493 23.1688 9.88629 23.1516 9.67175L22.9285 7.49201L20.7488 7.26889C20.5342 7.24314 20.3626 7.08009 20.3454 6.86555L20.1824 5.26936L18.5347 6.91704L18.5004 6.88271Z" fill="#00282E"/>
<path d="M15.4978 32.2242C15.4463 32.2242 15.3948 32.2157 15.3433 32.1985C15.1803 32.1384 15.0601 31.9925 15.0429 31.8123L14.8198 29.6326L12.6401 29.4095C12.4255 29.3837 12.2539 29.2207 12.2367 29.0061L12.0136 26.8264L9.83389 26.6033C9.61935 26.5775 9.44771 26.4145 9.43055 26.1999L9.20743 24.0202L7.02769 23.7971C6.81315 23.7713 6.64152 23.6083 6.62435 23.3937L6.40123 21.214L4.22149 20.9909C4.04986 20.9737 3.89539 20.8536 3.83532 20.6905C3.77525 20.5275 3.81815 20.3387 3.94688 20.2185L6.59861 17.5668C6.77882 17.3866 7.06202 17.3866 7.24223 17.5668L18.5099 28.8345C18.5957 28.9203 18.6472 29.0405 18.6472 29.1606C18.6472 29.2807 18.5957 29.4009 18.5099 29.4867L15.8582 32.1384C15.7724 32.2243 15.6522 32.2757 15.5321 32.2757L15.4978 32.2242ZM13.0949 28.5341L15.2746 28.7573C15.4892 28.783 15.6608 28.9461 15.678 29.1606L15.841 30.7568L17.4887 29.1091L6.87322 18.4936L5.22554 20.1413L6.82173 20.3043C7.03627 20.3301 7.2079 20.4931 7.22507 20.7077L7.44819 22.8874L9.62793 23.1105C9.84247 23.1363 10.0141 23.2993 10.0313 23.5139L10.2544 25.6936L12.4341 25.9167C12.6487 25.9425 12.8203 26.1055 12.8375 26.3201L13.0606 28.4998L13.0949 28.5341Z" fill="#00282E"/>
<path d="M20.7576 12.5811L12.8453 15.8592L12.5879 17.0092L20.5002 13.731L20.7576 12.5811Z" fill="#D5D933"/>
<path d="M22.0885 15.791L14.1762 19.0692L13.9102 20.2191L21.8224 16.941L22.0885 15.791Z" fill="#D5D933"/>
<path d="M23.41 18.9912L15.4977 22.2694L15.2402 23.4193L23.1525 20.1412L23.41 18.9912Z" fill="#D5D933"/>
</g>
<defs>
<clipPath id="clip0_660_9341">
<rect width="36" height="36" fill="white"/>
</clipPath>
</defs>
</svg>
