<svg width="36" height="36" viewBox="0 0 36 36" fill="none" xmlns="http://www.w3.org/2000/svg">
<g clip-path="url(#clip0_660_9587)">
<path d="M18.0043 36C8.07533 36 0 27.9247 0 18.0043C0 8.08391 8.07533 0 18.0043 0C27.9333 0 36.0086 8.07533 36.0086 18.0043C36.0086 27.9333 27.9333 36.0086 18.0043 36.0086V36ZM18.0043 1.39023C8.83909 1.39023 1.39023 8.83909 1.39023 18.0043C1.39023 27.1695 8.83909 34.6184 18.0043 34.6184C27.1695 34.6184 34.6184 27.1695 34.6184 18.0043C34.6184 8.83909 27.1609 1.39023 18.0043 1.39023Z" fill="#00282E"/>
<path d="M10.5045 26.5343C10.3586 26.5343 10.2127 26.4828 10.0926 26.3884C9.78363 26.1567 9.72356 25.7191 9.95526 25.4101L10.35 24.8952C10.5817 24.5863 11.028 24.5262 11.3283 24.7665C11.6373 24.9982 11.6973 25.4359 11.4656 25.7448L11.0709 26.2597C10.9336 26.4485 10.719 26.5429 10.5045 26.5343ZM12.0921 24.4576C11.9462 24.4576 11.8003 24.4061 11.6802 24.3117C11.3712 24.08 11.3112 23.6337 11.5515 23.3334L11.9462 22.8185C12.1779 22.5095 12.6242 22.4495 12.9245 22.6897C13.2335 22.9214 13.2935 23.3677 13.0532 23.668L12.6585 24.1829C12.5212 24.3632 12.3066 24.4661 12.0921 24.4576ZM13.6711 22.3808C13.5252 22.3808 13.3793 22.3293 13.2592 22.2349C12.9503 22.0032 12.8902 21.5655 13.1305 21.2566L13.5252 20.7417C13.7569 20.4328 14.2032 20.3727 14.5035 20.613C14.8125 20.8447 14.8725 21.2823 14.6323 21.5913L14.2375 22.1062C14.1002 22.2864 13.8857 22.3894 13.6711 22.3808Z" fill="#D5D933"/>
<path d="M12.5301 27.65C12.3842 27.65 12.2383 27.5985 12.1182 27.5042C11.8092 27.2724 11.7492 26.8348 11.9894 26.5258L12.3842 26.0109C12.6159 25.702 13.0622 25.6419 13.3625 25.8822C13.6714 26.1139 13.7315 26.5516 13.4912 26.8605L13.0965 27.3754C12.9592 27.5642 12.7446 27.6586 12.5301 27.65ZM14.1091 25.5733C13.9632 25.5733 13.8173 25.5218 13.6972 25.4274C13.3883 25.1957 13.3282 24.758 13.5685 24.4491L13.9632 23.9342C14.1949 23.6252 14.6326 23.5652 14.9415 23.8055C15.2505 24.0372 15.3105 24.4748 15.0703 24.7838L14.6755 25.2987C14.5382 25.4875 14.3237 25.5819 14.1091 25.5733ZM15.6881 23.4965C15.5422 23.4965 15.3964 23.445 15.2762 23.3506C14.9673 23.1189 14.9072 22.6813 15.1475 22.3723L15.5422 21.8574C15.774 21.5485 16.2202 21.4884 16.5206 21.7287C16.8295 21.9604 16.8896 22.3981 16.6493 22.707L16.2545 23.2219C16.1172 23.4107 15.9027 23.5051 15.6881 23.4965Z" fill="#D5D933"/>
<path d="M14.5887 28.7142C14.4428 28.7142 14.2969 28.6627 14.1768 28.5683C13.8678 28.3366 13.8078 27.899 14.048 27.59L14.4428 27.0751C14.6745 26.7662 15.1122 26.7061 15.4211 26.9464C15.73 27.1781 15.7901 27.6158 15.5498 27.9247L15.1551 28.4396C15.0178 28.6284 14.8032 28.7228 14.5887 28.7142ZM16.1677 26.6375C16.0218 26.6375 15.8759 26.586 15.7558 26.4916C15.4468 26.2599 15.3868 25.8222 15.6271 25.5133L16.0218 24.9984C16.2535 24.6894 16.6998 24.6293 17.0001 24.8696C17.3091 25.1013 17.3691 25.539 17.1288 25.8479L16.7341 26.3628C16.5968 26.5431 16.3822 26.646 16.1677 26.6375ZM17.7467 24.5693C17.6008 24.5693 17.455 24.5178 17.3348 24.4234C17.0259 24.1917 16.9658 23.7454 17.2061 23.4451L17.6008 22.9302C17.8325 22.6212 18.2788 22.5612 18.5791 22.8015C18.8881 23.0332 18.9482 23.4794 18.7079 23.7798L18.3131 24.2947C18.1758 24.4749 17.9613 24.5779 17.7467 24.5693Z" fill="#D5D933"/>
<path d="M16.6238 29.8041C16.478 29.8041 16.3321 29.7526 16.2119 29.6582C15.903 29.4265 15.8429 28.9888 16.0832 28.6799L16.478 28.165C16.7097 27.856 17.1559 27.7959 17.4563 28.0362C17.7652 28.2679 17.8253 28.7056 17.585 29.0145L17.1902 29.5294C17.0529 29.7182 16.8384 29.8126 16.6238 29.8041ZM18.2029 27.7359C18.057 27.7359 17.9111 27.6844 17.7909 27.59C17.482 27.3583 17.4219 26.9206 17.6622 26.6117L18.057 26.0968C18.2887 25.7878 18.7349 25.7278 19.0353 25.9681C19.3442 26.1998 19.4043 26.6374 19.164 26.9464L18.7693 27.4613C18.6319 27.6415 18.4174 27.7445 18.2029 27.7359ZM19.7905 25.6591C19.6446 25.6591 19.4987 25.6076 19.3785 25.5132C19.0696 25.2815 19.0095 24.8353 19.2498 24.5349L19.6446 24.02C19.8763 23.7111 20.3225 23.651 20.6229 23.8913C20.9318 24.123 20.9919 24.5693 20.7516 24.8696L20.3569 25.3845C20.2195 25.5647 20.005 25.6677 19.7905 25.6591Z" fill="#D5D933"/>
<path d="M18.8192 30.6962C18.6733 30.6962 18.5274 30.6448 18.4072 30.5504C18.0983 30.3186 18.0382 29.881 18.2785 29.572L18.6733 29.0571C18.905 28.7482 19.3426 28.6881 19.6516 28.9284C19.9605 29.1601 20.0206 29.5978 19.7803 29.9067L19.3855 30.4216C19.2482 30.6104 19.0337 30.7048 18.8192 30.6962ZM20.3982 28.6195C20.2523 28.6195 20.1064 28.568 19.9863 28.4736C19.6773 28.2419 19.6172 27.8042 19.8575 27.4953L20.2523 26.9804C20.484 26.6715 20.9302 26.6114 21.2306 26.8517C21.5395 27.0834 21.5996 27.521 21.3593 27.83L20.9646 28.3449C20.8273 28.5251 20.6127 28.6281 20.3982 28.6195ZM21.9772 26.5513C21.8313 26.5513 21.6854 26.4998 21.5653 26.4054C21.2563 26.1737 21.1963 25.7275 21.4366 25.4271L21.8313 24.9122C22.063 24.6033 22.5093 24.5432 22.8096 24.7835C23.1186 25.0152 23.1786 25.4614 22.9383 25.7618L22.5436 26.2767C22.4063 26.4569 22.1917 26.5599 21.9772 26.5513ZM23.5648 24.4746C23.4189 24.4746 23.273 24.4231 23.1529 24.3287C22.8439 24.097 22.7839 23.6507 23.0242 23.3504L23.4189 22.8355C23.6506 22.5265 24.0969 22.4664 24.3972 22.7067C24.7062 22.9384 24.7662 23.3847 24.5259 23.685L24.1312 24.1999C23.9939 24.3802 23.7793 24.4831 23.5648 24.4746Z" fill="#D5D933"/>
<path d="M22.0635 29.5208C21.7545 29.289 21.6945 28.8514 21.9348 28.5424L22.3295 28.0275C22.5612 27.7186 23.0075 27.6585 23.3078 27.8988C23.6168 28.1305 23.6768 28.5682 23.4365 28.8771M24.063 27.5899C23.9171 27.5899 23.7712 27.5384 23.6511 27.444C23.3421 27.2123 23.2821 26.766 23.5224 26.4657L23.9171 25.9508C24.1488 25.6418 24.5951 25.5818 24.8954 25.8221C25.2044 26.0538 25.2644 26.5 25.0242 26.8004L24.6294 27.3153C24.4921 27.4955 24.2775 27.5985 24.063 27.5899ZM25.642 25.5131C25.4961 25.5131 25.3503 25.4616 25.2301 25.3672C24.9212 25.1355 24.8611 24.6893 25.1014 24.3889L25.4961 23.874C25.7278 23.5651 26.1741 23.505 26.4744 23.7453C26.7834 23.977 26.8435 24.4233 26.6032 24.7236L26.2084 25.2385C26.0711 25.4187 25.8566 25.5217 25.642 25.5131Z" fill="#D5D933"/>
<path d="M18.004 31.7605C17.9353 31.7605 17.8667 31.7433 17.798 31.709L7.47429 26.5085C7.35415 26.4484 7.26834 26.3369 7.23401 26.2081C7.19968 26.0794 7.23401 25.9421 7.31124 25.8305L17.635 11.791C17.8066 11.5593 18.2014 11.5593 18.373 11.791L28.6967 25.8305C28.7739 25.9421 28.8083 26.0794 28.7739 26.2081C28.7396 26.3369 28.6538 26.4484 28.5336 26.5085L18.2099 31.709C18.1413 31.7433 18.0726 31.7605 18.004 31.7605ZM8.3582 25.9421L17.9954 30.7907L27.6326 25.9421L17.9954 12.8379L8.3582 25.9421Z" fill="#00282E"/>
<path d="M18.0047 31.7606C17.7558 31.7606 17.5498 31.5546 17.5498 31.3057V12.2202C17.198 11.8082 15.619 10.3236 12.2464 12.1687C10.7188 13.0097 9.054 13.0183 8.01562 12.203C7.50072 11.7911 6.71121 10.8214 7.24327 8.87332C7.68952 7.24281 9.11407 5.77534 10.9505 5.03732C13.465 4.02469 16.5029 4.45377 19.5064 6.24733C22.9219 8.28118 25.5994 11.6023 25.711 11.7482C25.8654 11.9455 25.8397 12.2287 25.6423 12.3918C25.4449 12.5463 25.1617 12.5205 24.9987 12.3231C24.973 12.2888 22.3126 8.99346 19.043 7.03685C15.516 4.93434 12.8814 5.25186 11.2938 5.89549C9.74053 6.52195 8.49619 7.79203 8.12718 9.13077C7.83541 10.2121 7.98988 11.0273 8.59059 11.4993C9.32861 12.0829 10.633 12.0399 11.8173 11.3877C16.3656 8.89048 18.3737 11.7997 18.3994 11.834C18.4509 11.9112 18.4766 11.997 18.4766 12.0829V31.3229C18.4766 31.5718 18.2707 31.7777 18.0218 31.7777L18.0047 31.7606Z" fill="#00282E"/>
<path d="M26.8869 18.459C26.7496 18.459 26.6037 18.3903 26.5179 18.2702L23.849 14.5972C23.746 14.4599 23.7374 14.2797 23.8061 14.1252L24.9389 11.8168C25.0075 11.6795 25.1362 11.5851 25.2821 11.5679L27.8223 11.2075C27.9939 11.1817 28.157 11.2504 28.26 11.3877L30.9288 15.0606C30.9975 15.155 31.0318 15.2838 31.0061 15.4039C30.9889 15.524 30.9203 15.627 30.8259 15.7043L27.1529 18.3732C27.0757 18.4332 26.9813 18.459 26.8869 18.459ZM24.7415 14.2797L26.9813 17.3605L29.9162 15.2237L27.6764 12.1429L25.6426 12.4347L24.7415 14.2797Z" fill="#00282E"/>
</g>
<defs>
<clipPath id="clip0_660_9587">
<rect width="36" height="36" fill="white"/>
</clipPath>
</defs>
</svg>
