<svg width="61" height="60" viewBox="0 0 61 60" fill="none" xmlns="http://www.w3.org/2000/svg">
<g clip-path="url(#clip0_335_15166)">
<path d="M15.9346 47.0505C16.6283 47.5374 16.7987 48.4988 16.3119 49.1925L15.5939 50.2148L15.3504 50.5678C14.8636 51.2615 13.89 51.4319 13.1963 50.9451L12.9772 50.799C12.2835 50.3122 12.1131 49.3386 12.5999 48.6449L13.0989 47.939L13.5614 47.2818C14.0482 46.5759 15.0218 46.4055 15.7156 46.9045L15.9346 47.0505Z" fill="white"/>
<path d="M20.5468 46.771C21.4352 47.3917 21.6543 48.6331 21.0336 49.5215L18.916 52.5397C18.2831 53.4282 17.0539 53.6473 16.1654 53.0266L16.0803 52.9657C15.1918 52.345 14.9727 51.1036 15.5934 50.2152L16.3115 49.2051L17.7111 47.1969C18.3318 46.3085 19.5732 46.0894 20.4616 46.7101L20.5468 46.771Z" fill="white"/>
<path d="M23.8932 49.1198C24.7816 49.7405 25.0007 50.9697 24.38 51.8581L23.4794 53.1482C23.4794 53.1482 23.4307 53.209 23.4185 53.2334L22.2502 54.8885C21.6295 55.777 20.4003 55.996 19.5118 55.3753L19.4145 55.3145C18.5382 54.6938 18.3191 53.4524 18.9398 52.564L21.0575 49.5336C21.6782 48.6451 22.9196 48.4382 23.808 49.0589L23.8932 49.1198Z" fill="white"/>
<path d="M26.0477 53.0871C26.778 53.5983 26.9605 54.6206 26.4494 55.3508V55.3752L25.2445 57.0668C24.7333 57.7971 23.711 57.9796 22.9686 57.4685L22.6157 57.2129C21.8855 56.7017 21.7029 55.6794 22.2141 54.9492L22.2506 54.8883L23.4189 53.2332C23.4189 53.2332 23.4555 53.1723 23.4798 53.148C24.0031 52.4908 24.9767 52.3326 25.6826 52.8315L26.0477 53.0871Z" fill="white"/>
<path d="M17.7113 47.1966L16.3117 49.1925C16.7986 48.4988 16.6282 47.5374 15.9345 47.0506L15.7154 46.9045C15.0217 46.4055 14.048 46.5759 13.5612 47.2818L13.0988 47.939L12.332 47.1723C10.7377 45.5049 8.96083 43.1074 8.4375 42.1946L17.3219 28.0039C20.9121 29.5861 25.5977 31.436 26.7661 31.6794L26.9487 31.9228C26.7174 32.0932 26.474 32.2757 26.2428 32.4583C25.2691 33.1885 24.2347 33.9187 23.5288 34.9289C23.1637 35.4278 22.8594 35.9755 22.7864 36.5962C22.6647 37.5455 23.2002 38.5435 24.0399 39.0181C25.2205 39.6875 26.8148 39.5171 27.9101 38.7382C29.3097 37.7402 30.8919 36.4502 32.1698 35.513L32.5349 35.4887L35.4071 38.3609L35.2975 38.4704C39.1069 42.085 44.6566 47.3426 45.3746 48.0242C45.4233 48.0729 45.4598 48.0972 45.4598 48.0972C46.2874 48.8274 46.3117 50.1905 45.4841 51.1155C44.6687 52.0404 43.3178 52.1986 42.4781 51.4562L42.2103 51.225C42.4902 51.5414 42.6241 51.9552 42.6241 52.3812C42.6241 52.9289 42.405 53.513 41.9913 53.9877C41.1637 54.9126 39.8614 55.1074 39.0825 54.4258L38.3645 53.7808L38.2549 53.9025C38.4132 54.1581 38.4984 54.4623 38.4984 54.7909C38.4984 55.3386 38.2671 55.9471 37.829 56.4461C37.0014 57.3832 35.7478 57.6145 35.0298 56.9816L33.691 55.7767C33.8614 56.0566 33.9466 56.3852 33.9466 56.726C33.9466 57.2737 33.7276 57.87 33.3016 58.3447C32.474 59.294 31.1596 59.4887 30.3685 58.7828L26.7174 55.5698L26.4375 55.3751V55.3508C26.9608 54.6205 26.7783 53.5982 26.048 53.0871L25.6829 52.8315C24.9771 52.3325 24.0034 52.4907 23.4801 53.1479L24.3807 51.8579C25.0014 50.9694 24.7823 49.7402 23.8939 49.1195L23.8087 49.0587C22.9203 48.438 21.6789 48.6449 21.0582 49.5333H21.0338C21.6545 48.6327 21.4355 47.3913 20.547 46.7706L20.4618 46.7098C19.5734 46.0891 18.332 46.3082 17.7113 47.1966Z" fill="white"/>
<path d="M45.3613 48.0245C44.6432 47.343 39.0935 42.0854 35.2842 38.4708L35.3937 38.3612L32.5215 35.489L32.1564 35.5134C30.8785 36.4505 29.2964 37.7406 27.8968 38.7385C26.8015 39.5174 25.2071 39.6878 24.0266 39.0184C23.1868 38.5438 22.6513 37.5458 22.7731 36.5965C22.8461 35.9759 23.1503 35.4282 23.5154 34.9292C24.2213 33.9191 25.2558 33.1888 26.2294 32.4586C26.4607 32.2761 26.7041 32.0935 26.9353 31.9231C27.8238 31.2781 28.7365 30.6696 29.7102 30.1462C31.3288 29.27 33.2518 29.0022 35.0773 29.0752C37.0367 29.1483 38.9353 29.8663 40.9069 29.8176C42.3187 29.7811 43.4505 29.4525 44.5702 28.9292H44.5824L53.199 42.6939C51.5317 44.5316 47.1382 47.5621 46.0915 47.988L45.3735 48.0245H45.3613Z" fill="white"/>
<path d="M43.5234 3.49288C48.4646 10.9046 38.1928 20.215 33.1908 24.1217C31.6695 25.3265 30.6472 26.0081 30.6472 26.0081C30.6472 26.0081 29.5883 25.3265 28.067 24.1095C23.0528 20.1785 12.8662 10.8803 17.7831 3.49288C22.566 -3.69982 29.8561 5.6592 30.5985 6.63283L30.6593 6.69369C31.0853 6.10951 38.5944 -3.85804 43.5234 3.49288Z" fill="#EAB698"/>
<path d="M18.4045 26.2638L17.3214 28.0042L8.43697 42.1949L7.01304 44.4586L1.46334 40.6979H1.45117V14.6411H1.46334L18.4045 26.2638Z" fill="#2F9280"/>
<path d="M59.845 14.6533V40.7223L54.3075 44.4586L53.2 42.6939L44.5834 28.9292L42.916 26.2639L59.8329 14.6655L59.845 14.6533Z" fill="#2F9280"/>
<path d="M1.46289 14.6411L18.4041 26.2638L17.3209 28.0042L8.43652 42.1949L7.01259 44.4586L1.46289 40.6979" stroke="black" stroke-width="1.3" stroke-linecap="round" stroke-linejoin="round"/>
<path d="M59.8694 14.6411L59.845 14.6533L59.8329 14.6655L42.916 26.2638L44.5834 28.9291L53.2 42.6939L54.3075 44.4586L59.845 40.7222L59.8572 40.7101L59.8694 40.6979" stroke="black" stroke-width="1.3" stroke-linecap="round" stroke-linejoin="round"/>
<path d="M46.0801 47.988C47.1267 47.562 51.5202 44.5316 53.1876 42.6938" stroke="black" stroke-width="1.3" stroke-linecap="round" stroke-linejoin="round"/>
<path d="M8.43555 42.1948C8.95887 43.1076 10.7357 45.5052 12.3301 47.1725" stroke="black" stroke-width="1.3" stroke-linecap="round" stroke-linejoin="round"/>
<path d="M26.7645 31.6794C25.5962 31.436 20.9106 29.5861 17.3203 28.0039" stroke="black" stroke-width="1.3" stroke-linecap="round" stroke-linejoin="round"/>
<path d="M32.1564 35.5134C30.8785 36.4505 29.2964 37.7406 27.8968 38.7385C26.8015 39.5174 25.2071 39.6878 24.0266 39.0184C23.1868 38.5438 22.6513 37.5458 22.7731 36.5965C22.8461 35.9759 23.1503 35.4282 23.5154 34.9292C24.2213 33.9191 25.2558 33.1888 26.2294 32.4586C26.4607 32.2761 26.7041 32.0935 26.9353 31.9231C27.8238 31.2781 28.7365 30.6696 29.7102 30.1462C31.3288 29.27 33.2518 29.0022 35.0773 29.0752C37.0367 29.1483 38.9353 29.8663 40.9069 29.8176C42.3187 29.7811 43.4505 29.4525 44.5702 28.9292" stroke="black" stroke-width="1.3" stroke-linecap="round" stroke-linejoin="round"/>
<path d="M34.5059 44.434L42.1975 51.2251L42.4653 51.4563C43.305 52.1987 44.656 52.0405 45.4714 51.1156C46.299 50.1906 46.2746 48.8275 45.447 48.0973C45.447 48.0973 45.4105 48.073 45.3618 48.0243C44.6438 47.3427 39.0941 42.0851 35.2848 38.4705C35.0292 38.2271 34.7858 37.9837 34.5424 37.7646" stroke="black" stroke-width="1.3" stroke-linecap="round" stroke-linejoin="round"/>
<path d="M30.6953 46.9169L38.3505 53.781L39.0685 54.426C39.8474 55.1076 41.1497 54.9129 41.9773 53.9879C42.3911 53.5133 42.6101 52.9291 42.6101 52.3814C42.6101 51.9555 42.4762 51.5417 42.1963 51.2252C42.1476 51.1644 42.099 51.1035 42.0381 51.0548L34.602 44.4585" stroke="black" stroke-width="1.3" stroke-linecap="round" stroke-linejoin="round"/>
<path d="M26.7168 55.5697L30.3679 58.7827C31.159 59.4886 32.4734 59.2939 33.301 58.3446C33.7269 57.8699 33.946 57.2736 33.946 56.7259C33.946 56.3851 33.8608 56.0565 33.6904 55.7766C33.6052 55.6306 33.4957 55.4967 33.374 55.375" stroke="black" stroke-width="1.3" stroke-linecap="round" stroke-linejoin="round"/>
<path d="M26.8496 49.6064L33.6894 55.7768L35.0281 56.9817C35.7462 57.6146 36.9997 57.3833 37.8273 56.4462C38.2654 55.9472 38.4967 55.3387 38.4967 54.791C38.4967 54.4624 38.4115 54.1582 38.2533 53.9026" stroke="black" stroke-width="1.3" stroke-linecap="round" stroke-linejoin="round"/>
<path d="M16.3115 49.1929L17.7111 47.1969C18.3318 46.3085 19.5732 46.0894 20.4616 46.7101L20.5468 46.771C21.4352 47.3917 21.6543 48.6331 21.0336 49.5215L18.916 52.5397C18.2831 53.4282 17.0539 53.6473 16.1654 53.0266L16.0803 52.9657C15.1918 52.345 14.9727 51.1036 15.5934 50.2152" stroke="black" stroke-width="1.3" stroke-linecap="round" stroke-linejoin="round"/>
<path d="M22.2502 54.8885C21.6295 55.777 20.4003 55.996 19.5118 55.3753L19.4145 55.3145C18.5382 54.6938 18.3191 53.4524 18.9398 52.564L21.0575 49.5336C21.6782 48.6451 22.9196 48.4382 23.808 49.0589L23.8932 49.1198C24.7816 49.7405 25.0007 50.9697 24.38 51.8581L23.4794 53.1482" stroke="black" stroke-width="1.3" stroke-linecap="round" stroke-linejoin="round"/>
<path d="M15.5919 50.2148L15.3485 50.5678C14.8617 51.2615 13.888 51.4319 13.1943 50.9451L12.9753 50.799C12.2816 50.3122 12.1112 49.3386 12.598 48.6449L13.097 47.939L13.5594 47.2818C14.0463 46.5759 15.0199 46.4055 15.7136 46.9045L15.9327 47.0505C16.6264 47.5374 16.7968 48.4988 16.31 49.1925L15.5919 50.2148Z" stroke="black" stroke-width="1.3" stroke-linecap="round" stroke-linejoin="round"/>
<path d="M26.4372 55.3752L25.2445 57.0668C24.7333 57.7971 23.711 57.9796 22.9686 57.4685L22.6157 57.2129C21.8855 56.7017 21.7029 55.6794 22.2141 54.9492L22.2506 54.8883L23.4189 53.2332C23.4189 53.2332 23.4555 53.1723 23.4798 53.148C24.0031 52.4908 24.9767 52.3326 25.6826 52.8315L26.0477 53.0871C26.778 53.5983 26.9605 54.6206 26.4494 55.3508V55.3752H26.4372Z" stroke="black" stroke-width="1.3" stroke-linecap="round" stroke-linejoin="round"/>
<path d="M30.6593 6.69369C31.0853 6.10951 38.5944 -3.85804 43.5234 3.49288C48.4646 10.9046 38.1928 20.215 33.1908 24.1217C31.6695 25.3265 30.6472 26.0081 30.6472 26.0081C30.6472 26.0081 29.5883 25.3265 28.067 24.1095C23.0528 20.1785 12.8662 10.8803 17.7831 3.49288C22.566 -3.69982 29.8561 5.6592 30.5985 6.63283" stroke="black" stroke-width="1.3" stroke-linecap="round" stroke-linejoin="round"/>
</g>
<defs>
<clipPath id="clip0_335_15166">
<rect width="59.9878" height="60" fill="white" transform="translate(0.671875)"/>
</clipPath>
</defs>
</svg>
