<svg width="60" height="60" viewBox="0 0 60 60" fill="none" xmlns="http://www.w3.org/2000/svg">
<g clip-path="url(#clip0_335_15197)">
<path d="M31.9355 27.5536C32.0328 27.152 32.1302 26.7382 32.2154 26.3366C32.8848 23.2453 33.2255 20.2879 33.2986 17.4157V1.42383H48.5967V4.44208L48.8401 20.0202C49.2052 23.3427 49.6556 24.219 51.116 27.2616C52.4426 30.0242 53.757 32.7869 55.0835 35.5496C56.3493 38.2027 57.6272 40.8437 58.8929 43.4969C59.6718 45.0425 59.0389 46.9289 57.4933 47.6956C55.9476 48.4745 54.0612 47.8417 53.2823 46.296C53.2823 46.296 51.9314 43.582 50.4466 40.6003C50.2397 40.1865 49.619 40.3326 49.619 40.795V54.5841C49.619 56.2392 48.0004 57.5293 46.2722 56.9695C45.3594 56.6774 44.7509 55.8376 44.6048 54.9005H44.5805L44.5562 56.6287C44.5562 57.7119 43.899 58.7585 42.8645 59.0993C41.1241 59.6591 39.5176 58.3691 39.5176 56.7139V54.0242C39.5176 55.1196 38.8604 56.1662 37.8259 56.4948C36.6332 56.8843 35.4892 56.3853 34.8929 55.4968L34.4304 55.1074V54.0486H33.7245C34.5643 53.3549 35.5136 52.576 36.4994 51.7119C36.7793 51.4685 37.0592 51.2007 37.3635 50.933C38.7509 49.6916 40.1992 48.2676 41.5501 46.7342C42.256 45.9309 42.9497 45.0912 43.5947 44.2149C43.6434 44.1419 43.7042 44.0689 43.7529 44.008C47.3919 39.1033 49.4852 33.4685 46.1992 28.5151C41.1971 21.0303 34.0409 27.8701 31.2418 31.0831L30.9375 30.9248L31.5947 28.004L31.972 27.5658L31.9355 27.5536Z" fill="white"/>
<path d="M13.8496 28.5033C18.5596 21.4567 25.1803 27.1037 28.2715 30.4749C28.734 30.9739 29.1235 31.4364 29.4034 31.7893C29.5616 31.9475 29.6711 32.0814 29.7563 32.2153C29.9145 32.4465 29.9997 32.5439 29.9997 32.5439C29.9997 32.5439 30.0849 32.4343 30.2431 32.2153C30.3283 32.0936 30.4379 31.9475 30.5961 31.7893C30.7665 31.5824 30.9612 31.339 31.1924 31.0834C33.9795 27.8583 41.1478 21.0185 46.1498 28.5155C49.4358 33.4688 47.3547 39.1037 43.7036 44.0084C43.6549 44.0814 43.5941 44.1544 43.5454 44.2153C42.9125 45.0794 42.2066 45.9191 41.5007 46.7346C40.1498 48.268 38.7016 49.692 37.3141 50.9333C37.0099 51.2011 36.73 51.4567 36.45 51.7122C35.4642 52.5763 34.5271 53.3552 33.6752 54.0368C31.5089 55.7528 29.9754 56.7751 29.9754 56.7751C29.9754 56.7751 28.3081 55.6676 25.9957 53.8055C25.2289 53.1849 24.377 52.479 23.5129 51.7122C23.233 51.4688 22.9531 51.2011 22.6488 50.9333C21.2614 49.692 19.8131 48.268 18.4622 46.7346C17.7563 45.9313 17.0626 45.0915 16.4298 44.2153C16.3811 44.1423 16.3202 44.0692 16.2715 44.0084C12.6326 39.1037 10.5393 33.4688 13.8253 28.5155L13.8496 28.5033Z" fill="#EAB698"/>
<path d="M6.74301 46.2719C5.9641 47.8175 4.07769 48.4504 2.53205 47.6715C0.986414 46.9048 0.353555 45.0183 1.13246 43.4727C2.39818 40.8196 3.67607 38.1786 4.94179 35.5254C6.26836 32.7628 7.58276 30.0001 8.90934 27.2374C10.3698 24.1948 10.8201 23.3307 11.1852 19.996L11.4286 4.41794V1.32666H26.7268V17.4159C26.7998 20.2881 27.1406 23.2455 27.7978 26.3368C27.883 26.7384 27.9803 27.14 28.0777 27.5538H28.6132C28.6132 27.5538 28.8323 29.3916 29.1 30.4139L28.2724 30.4626C25.1811 27.0914 18.5604 21.4443 13.8505 28.491C10.5645 33.4443 12.6578 39.0792 16.2968 43.9839C16.3454 44.0569 16.4063 44.1299 16.455 44.1908C17.0878 45.0549 17.7937 45.8946 18.4874 46.71C19.8383 48.2435 21.2866 49.6674 22.674 50.9088C22.9783 51.1766 23.2582 51.4321 23.5381 51.6877C24.4144 52.4544 25.2542 53.1603 26.0209 53.781L25.7166 54.2557V55.4849H25.1446C24.5483 56.3733 23.4043 56.8723 22.2116 56.4828C21.1771 56.1542 20.5199 55.1076 20.5199 54.0123V56.7019C20.5199 58.3571 18.9134 59.6471 17.173 59.0873C16.1385 58.7465 15.4813 57.6999 15.4813 56.6167L15.457 54.8885H15.4327C15.2988 55.8256 14.6781 56.6532 13.7653 56.9453C12.0371 57.5173 10.4185 56.2151 10.4185 54.5599V40.7709C10.4185 40.3084 9.79777 40.1624 9.59088 40.5762C8.09392 43.5579 6.75518 46.2719 6.75518 46.2719H6.74301Z" fill="white"/>
<path d="M43.5102 37.0223C43.924 35.5254 43.9605 33.8824 43.3885 32.4219C42.8286 30.998 41.5142 29.5375 39.9199 29.355" stroke="black" stroke-width="1.3" stroke-linecap="round" stroke-linejoin="round"/>
<path d="M33.2869 0.791016V17.4158C33.2139 20.288 32.8731 23.2454 32.2037 26.3367C32.1186 26.7383 32.0212 27.1399 31.9238 27.5537" stroke="black" stroke-width="1.3" stroke-linecap="round" stroke-linejoin="round"/>
<path d="M34.8691 55.4848C35.4655 56.3733 36.6095 56.8722 37.8022 56.4828C38.8367 56.1542 39.4939 55.1075 39.4939 54.0122" stroke="black" stroke-width="1.3" stroke-linecap="round" stroke-linejoin="round"/>
<path d="M39.4941 51.8945V56.6897C39.4941 58.3448 41.1006 59.6349 42.841 59.0751C43.8755 58.7343 44.5327 57.6876 44.5327 56.6045L44.557 54.8763" stroke="black" stroke-width="1.3" stroke-linecap="round" stroke-linejoin="round"/>
<path d="M44.5566 47.0263V54.4746C44.5566 54.6085 44.5566 54.7423 44.581 54.8762C44.7149 55.8133 45.3355 56.6409 46.2483 56.9452C47.9765 57.5172 49.5952 56.2149 49.5952 54.5598V40.7707C49.5952 40.3083 50.2159 40.1622 50.4228 40.576C51.9076 43.5577 53.2585 46.2717 53.2585 46.2717C54.0374 47.8174 55.9238 48.4502 57.4694 47.6713C59.0151 46.9046 59.6479 45.0182 58.869 43.4726C57.6033 40.8194 56.3254 38.1784 55.0597 35.5253C53.7331 32.7626 52.4065 29.9999 51.0921 27.2373C49.6317 24.1947 49.1814 23.3306 48.8163 19.9959L48.5729 4.41779V0.791016" stroke="black" stroke-width="1.3" stroke-linecap="round" stroke-linejoin="round"/>
<path d="M26.7148 0.791016V17.4158C26.7879 20.288 27.1286 23.2454 27.7858 26.3367C27.871 26.7383 27.9684 27.1399 28.0658 27.5537" stroke="black" stroke-width="1.3" stroke-linecap="round" stroke-linejoin="round"/>
<path d="M20.5078 54C20.5078 55.0953 21.165 56.142 22.1995 56.4706C23.3922 56.86 24.5362 56.3611 25.1326 55.4726" stroke="black" stroke-width="1.3" stroke-linecap="round" stroke-linejoin="round"/>
<path d="M20.5082 51.8945V56.6897C20.5082 58.3448 18.9017 59.6349 17.1613 59.0751C16.1269 58.7343 15.4697 57.6876 15.4697 56.6045L15.4453 54.8763" stroke="black" stroke-width="1.3" stroke-linecap="round" stroke-linejoin="round"/>
<path d="M31.1924 31.0709C33.9795 27.8457 41.1478 21.006 46.1498 28.5029C49.4358 33.4563 47.3547 39.0912 43.7036 43.9958C43.6549 44.0689 43.5941 44.1419 43.5454 44.2027C42.9125 45.0668 42.2066 45.9066 41.5007 46.722C40.1498 48.2555 38.7016 49.6794 37.3141 50.9208C37.0099 51.1885 36.73 51.4441 36.45 51.6997C35.4642 52.5638 34.5271 53.3427 33.6752 54.0242C31.5089 55.7403 29.9754 56.7626 29.9754 56.7626C29.9754 56.7626 28.3081 55.6551 25.9957 53.793C25.2289 53.1723 24.377 52.4664 23.5129 51.6997C23.233 51.4563 22.9531 51.1885 22.6488 50.9208C21.2614 49.6794 19.8131 48.2555 18.4622 46.722C17.7563 45.9188 17.0626 45.079 16.4298 44.2027C16.3811 44.1297 16.3202 44.0567 16.2715 43.9958C12.6326 39.0912 10.5393 33.4563 13.8253 28.5029C18.5352 21.4563 25.1559 27.1033 28.2472 30.4745C28.7097 30.9735 29.0991 31.436 29.379 31.7889C29.5373 31.9472 29.6468 32.081 29.732 32.2149C29.8902 32.4461 29.9754 32.5435 29.9754 32.5435C29.9754 32.5435 30.0606 32.434 30.2188 32.2149C30.304 32.0932 30.4135 31.9472 30.5717 31.7889C30.7421 31.582 30.9369 31.3386 31.1681 31.0831L31.1924 31.0709Z" stroke="black" stroke-width="1.3" stroke-linecap="round" stroke-linejoin="round"/>
<path d="M15.4448 47.0263V54.4746C15.4448 54.6085 15.4448 54.7423 15.4205 54.8762C15.2866 55.8133 14.6659 56.6409 13.7531 56.9452C12.025 57.5172 10.4063 56.2149 10.4063 54.5598V40.7707C10.4063 40.3083 9.7856 40.1622 9.57871 40.576C8.08175 43.5577 6.74301 46.2717 6.74301 46.2717C5.9641 47.8174 4.07769 48.4502 2.53205 47.6713C0.986414 46.9046 0.353555 45.0182 1.13246 43.4726C2.39818 40.8194 3.67607 38.1784 4.94179 35.5253C6.26836 32.7626 7.58276 29.9999 8.90934 27.2373C10.3698 24.1947 10.8201 23.3306 11.1852 19.9959L11.4286 4.41779V0.791016" stroke="black" stroke-width="1.3" stroke-linecap="round" stroke-linejoin="round"/>
</g>
<defs>
<clipPath id="clip0_335_15197">
<rect width="60" height="60" fill="white"/>
</clipPath>
</defs>
</svg>
