<svg width="61" height="60" viewBox="0 0 61 60" fill="none" xmlns="http://www.w3.org/2000/svg">
<g clip-path="url(#clip0_335_15217)">
<path d="M39.6301 37.7529V58.0531C39.6301 58.686 39.1068 59.1971 38.4618 59.1971H2.2914C1.64637 59.1971 1.12305 58.686 1.12305 58.0531V37.7529H39.6301Z" fill="white"/>
<path d="M59.2001 29.5376C59.6626 30 59.6626 30.7424 59.2001 31.2049L55.3299 35.0751C54.8674 35.5376 54.125 35.5376 53.6626 35.0751L41.6504 23.0629L47.054 17.6593L47.1757 17.5254L53.1392 23.4767L59.2001 29.5376Z" fill="white"/>
<path d="M37.2322 18.6452L25.2687 6.66957C24.8063 6.2071 24.8063 5.46471 25.2687 5.0144L29.1389 1.14422C29.6014 0.681745 30.3438 0.681745 30.8063 1.14422L36.8671 7.20507L42.7819 13.1077L42.3316 13.558L37.2444 18.6452H37.2322Z" fill="white"/>
<path d="M45.0219 15.3228L53.4804 16.5155C55.0503 16.7467 56.1944 17.9516 56.4499 19.3877C56.5595 19.9718 56.5108 20.5804 56.2917 21.1889C55.7806 22.5885 54.5148 23.4282 53.1518 23.5013L47.1883 17.5499L46.9692 17.3309L45.2045 15.5662L45.0098 15.3714L45.0341 15.3471L45.0219 15.3228Z" fill="#2F9280"/>
<path d="M45.0218 15.3225L44.9975 15.3468L44.7175 15.0547L42.9528 13.29L42.7703 13.1075L36.8555 7.20484C36.9163 5.84176 37.7561 4.57604 39.1557 4.06488C39.7642 3.84581 40.3727 3.79713 40.9569 3.8945C42.3808 4.15007 43.5979 5.29409 43.8291 6.86407L45.0096 15.3103L45.0218 15.3225Z" fill="#2F9280"/>
<path d="M46.9566 17.3067L47.1878 17.5258L47.0539 17.6596L41.6503 23.0633L37.2324 18.6454L42.3075 13.5582L42.7578 13.1079L42.9525 13.2905L44.7172 15.0552L44.9971 15.3473L45.1919 15.542L46.9566 17.3067Z" fill="#2F9280"/>
<path d="M31.8046 21.274C35.5652 26.8723 29.3948 33.6999 24.7823 37.704V37.7527H15.9466V37.704C11.3096 33.6878 5.20011 26.8602 8.94859 21.274C13.1839 14.921 19.6585 23.1847 20.3279 24.0245V24.0488L20.3766 24.0853C20.7539 23.562 27.4354 14.7872 31.8046 21.2618V21.274Z" fill="#EAB698"/>
<path d="M26.6084 11.7446C27.3143 11.7446 27.8985 12.3288 27.8985 13.0347C27.8985 13.7406 27.3265 14.3248 26.6084 14.3248C25.8904 14.3248 25.3184 13.7406 25.3184 13.0347C25.3184 12.3288 25.8904 11.7446 26.6084 11.7446Z" fill="black"/>
<path d="M15.7998 7.94727C16.5057 7.94727 17.0777 8.53144 17.0777 9.23733C17.0777 9.94321 16.5057 10.5274 15.7998 10.5274C15.0939 10.5274 14.5098 9.94321 14.5098 9.23733C14.5098 8.53144 15.0818 7.94727 15.7998 7.94727Z" fill="black"/>
<path d="M4.8467 28.6372C5.55258 28.6372 6.12459 29.2214 6.12459 29.9273C6.12459 30.6331 5.55258 31.2173 4.8467 31.2173C4.14082 31.2173 3.55664 30.6331 3.55664 29.9273C3.55664 29.2214 4.12865 28.6372 4.8467 28.6372Z" fill="black"/>
<path d="M41.6501 23.0631L37.2322 18.6452L25.2687 6.66957C24.8063 6.2071 24.8063 5.46471 25.2687 5.0144L29.1389 1.14422C29.6014 0.681745 30.3438 0.681745 30.8063 1.14422L36.8671 7.20507L42.7819 13.1077L42.9645 13.2903L44.7292 15.055L45.0091 15.3471L45.2038 15.5418L46.9685 17.3065L47.1876 17.5256L53.1511 23.4769L59.2119 29.5377C59.6744 30.0002 59.6744 30.7426 59.2119 31.2051L55.3418 35.0753C54.8793 35.5377 54.1369 35.5377 53.6744 35.0753L41.6622 23.0631H41.6501Z" stroke="black" stroke-width="1.3" stroke-linecap="round" stroke-linejoin="round"/>
<path d="M15.9466 37.7529H39.6302V58.0531C39.6302 58.686 39.1068 59.1971 38.4618 59.1971H2.2914C1.64637 59.1971 1.12305 58.686 1.12305 58.0531V37.7529H15.9466Z" stroke="black" stroke-width="1.3" stroke-linecap="round" stroke-linejoin="round"/>
<path d="M37.2324 18.6453L42.3075 13.5581" stroke="black" stroke-width="1.3" stroke-linecap="round" stroke-linejoin="round"/>
<path d="M41.6504 23.0633L47.054 17.6597" stroke="black" stroke-width="1.3" stroke-linecap="round" stroke-linejoin="round"/>
<path d="M36.8555 7.19267C36.9163 5.84176 37.7561 4.56387 39.1557 4.06488C39.7642 3.84581 40.3727 3.79713 40.9569 3.8945C42.3808 4.15007 43.5979 5.29409 43.8291 6.86407L45.0096 15.3103" stroke="black" stroke-width="1.3" stroke-linecap="round" stroke-linejoin="round"/>
<path d="M45.0215 15.3228L53.4799 16.5155C55.0499 16.7467 56.1939 17.9516 56.4495 19.3877C56.559 19.9718 56.5103 20.5804 56.2913 21.1889C55.7801 22.5885 54.5144 23.4282 53.1513 23.5013" stroke="black" stroke-width="1.3" stroke-linecap="round" stroke-linejoin="round"/>
<path d="M5.99023 8.36133V10.5277" stroke="black" stroke-width="1.3" stroke-linecap="round" stroke-linejoin="round"/>
<path d="M5.99023 14.8604V17.0267" stroke="black" stroke-width="1.3" stroke-linecap="round" stroke-linejoin="round"/>
<path d="M8.69271 12.6938H7.3418" stroke="black" stroke-width="1.3" stroke-linecap="round" stroke-linejoin="round"/>
<path d="M4.62826 12.6938H3.27734" stroke="black" stroke-width="1.3" stroke-linecap="round" stroke-linejoin="round"/>
<path d="M39.1309 25.1318V27.2982" stroke="black" stroke-width="1.3" stroke-linecap="round" stroke-linejoin="round"/>
<path d="M39.1309 31.6309V33.7972" stroke="black" stroke-width="1.3" stroke-linecap="round" stroke-linejoin="round"/>
<path d="M41.8333 29.4648H40.4824" stroke="black" stroke-width="1.3" stroke-linecap="round" stroke-linejoin="round"/>
<path d="M37.7689 29.4648H36.418" stroke="black" stroke-width="1.3" stroke-linecap="round" stroke-linejoin="round"/>
<path d="M15.9466 37.7041C11.3096 33.6879 5.20011 26.8603 8.94859 21.2741C13.1839 14.9211 19.6585 23.1848 20.3279 24.0246V24.0489" stroke="black" stroke-width="1.3" stroke-linecap="round" stroke-linejoin="round"/>
<path d="M20.377 24.0975C20.7542 23.5742 27.4358 14.7994 31.8049 21.274C35.5656 26.8724 29.3952 33.7 24.7826 37.704" stroke="black" stroke-width="1.3" stroke-linecap="round" stroke-linejoin="round"/>
</g>
<defs>
<clipPath id="clip0_335_15217">
<rect width="60" height="60" fill="white" transform="translate(0.332031)"/>
</clipPath>
</defs>
</svg>
